<?xml version="1.0" encoding="UTF-8" standalone="no"?>
<svg
   xmlns:dc="http://purl.org/dc/elements/1.1/"
   xmlns:cc="http://creativecommons.org/ns#"
   xmlns:rdf="http://www.w3.org/1999/02/22-rdf-syntax-ns#"
   xmlns:svg="http://www.w3.org/2000/svg"
   xmlns="http://www.w3.org/2000/svg"
   xmlns:sodipodi="http://sodipodi.sourceforge.net/DTD/sodipodi-0.dtd"
   xmlns:inkscape="http://www.inkscape.org/namespaces/inkscape"
   version="1.1"
   id="svg2"
   width="82.906548"
   height="83.597534"
   viewBox="0 0 82.906548 83.597534"
   sodipodi:docname="admin.svg"
   inkscape:version="0.92.4 (5da689c313, 2019-01-14)">
  <sodipodi:namedview
     pagecolor="#ffffff"
     bordercolor="#666666"
     borderopacity="1"
     objecttolerance="10"
     gridtolerance="10"
     guidetolerance="10"
     inkscape:pageopacity="0"
     inkscape:pageshadow="2"
     inkscape:window-width="640"
     inkscape:window-height="480"
     id="namedview6"
     showgrid="false"
     inkscape:zoom="2.8230498"
     inkscape:cx="35.254304"
     inkscape:cy="41.798767"
     inkscape:window-x="0"
     inkscape:window-y="0"
     inkscape:window-maximized="0"
     inkscape:current-layer="svg2" />
  <metadata
     id="metadata8">
    <rdf:RDF>
      <cc:Work
         rdf:about="">
        <dc:format>image/svg+xml</dc:format>
        <dc:type
           rdf:resource="http://purl.org/dc/dcmitype/StillImage" />
        <dc:title />
      </cc:Work>
    </rdf:RDF>
  </metadata>
  <defs
     id="defs6" />
  <path
     style="fill:#ffffff"
     d="M 59.71372,83.121825 C 59.32117,82.729278 59,81.59466 59,80.60045 c 0,-2.555856 -5.44119,-5.228446 -7.93141,-3.895725 -1.61393,0.863751 -2.25367,0.473317 -4.08821,-2.495034 -2.10983,-3.413774 -2.11539,-6.468254 -0.0118,-6.468254 0.56726,0 1.03139,-1.8 1.03139,-4 0,-2.2 -0.46413,-4 -1.03139,-4 -2.10362,0 -2.09806,-3.05448 0.0118,-6.468254 1.83454,-2.968351 2.47429,-3.358785 4.08822,-2.495034 2.62421,1.404437 7.68259,-1.262261 8.11041,-4.275678 0.27904,-1.965522 0.90914,-2.261034 4.821,-2.261034 3.91186,0 4.54195,0.295512 4.82099,2.261034 0.42782,3.013417 5.4862,5.680115 8.11041,4.275678 1.61393,-0.863751 2.25368,-0.473317 4.08822,2.495034 2.10983,3.413774 2.11538,6.468254 0.0118,6.468254 -1.6834,0 -1.25179,7.701445 0.46862,8.361626 2.02633,0.777577 1.88834,2.273952 -0.57763,6.263979 -1.74608,2.825211 -2.38296,3.198262 -3.99097,2.337683 -2.62421,-1.404437 -7.68259,1.262261 -8.11041,4.275678 -0.26412,1.86045 -1.03609,2.313663 -4.35727,2.558089 -2.21995,0.16338 -4.35745,-0.02412 -4.75,-0.416667 z m 8.97183,-14.554702 c 2.90526,-2.72935 2.96094,-6.508624 0.14013,-9.511235 -2.72935,-2.90526 -6.50862,-2.960943 -9.51123,-0.140137 -2.90526,2.72935 -2.96094,6.508624 -0.14014,9.511235 2.72935,2.90526 6.50863,2.960943 9.51124,0.140137 z M 0,65.276233 c 0,-5.789504 0.32066,-6.830415 3.06813,-9.959608 3.9074699,-4.450367 11.34502,-7.963204 21.13971,-9.984527 7.7816,-1.605883 16.94561,-2.103871 18.06766,-0.981828 0.33486,0.334858 -0.46391,2.247358 -1.77503,4.25 -3.21557,4.911533 -4.89032,12.201705 -4.1803,18.196742 l 0.5856,4.944425 H 18.45288 0 Z M 29.17962,30.116351 c -1.8262,-0.931087 -4.5262,-3.273813 -6,-5.206058 C 19.67133,20.31068 19.36218,11.412087 22.56179,7.1265558 31.72476,-5.1462579 50.06207,-0.75945391 51.73765,14.106251 53.08193,26.032699 39.74109,35.501093 29.17962,30.116351 Z"
     id="path14" />
</svg>
