<?xml version="1.0" encoding="UTF-8" standalone="no"?>
<!-- Created with Inkscape (http://www.inkscape.org/) -->

<svg
   xmlns:dc="http://purl.org/dc/elements/1.1/"
   xmlns:cc="http://creativecommons.org/ns#"
   xmlns:rdf="http://www.w3.org/1999/02/22-rdf-syntax-ns#"
   xmlns:svg="http://www.w3.org/2000/svg"
   xmlns="http://www.w3.org/2000/svg"
   xmlns:xlink="http://www.w3.org/1999/xlink"
   xmlns:sodipodi="http://sodipodi.sourceforge.net/DTD/sodipodi-0.dtd"
   xmlns:inkscape="http://www.inkscape.org/namespaces/inkscape"
   width="344.82083mm"
   height="134.78352mm"
   viewBox="0 0 344.82083 134.78351"
   version="1.1"
   id="svg8"
   inkscape:version="0.92.4 (5da689c313, 2019-01-14)"
   sodipodi:docname="logo.es.paths.svg">
  <defs
     id="defs2">
    <linearGradient
       inkscape:collect="always"
       id="linearGradient4854">
      <stop
         style="stop-color:#fff185;stop-opacity:1"
         offset="0"
         id="stop4850" />
      <stop
         style="stop-color:#ffffff;stop-opacity:1"
         offset="1"
         id="stop4852" />
    </linearGradient>
    <linearGradient
       inkscape:collect="always"
       id="linearGradient4815">
      <stop
         style="stop-color:#ffffdd;stop-opacity:0.90697676"
         offset="0"
         id="stop4811" />
      <stop
         style="stop-color:#ffa100;stop-opacity:1"
         offset="1"
         id="stop4813" />
    </linearGradient>
    <linearGradient
       id="linearGradient4595-3"
       inkscape:collect="always">
      <stop
         id="stop4591"
         offset="0"
         style="stop-color:#ffffdd;stop-opacity:0.90697676" />
      <stop
         id="stop4593"
         offset="1"
         style="stop-color:#c1a100;stop-opacity:1" />
    </linearGradient>
    <linearGradient
       inkscape:collect="always"
       id="linearGradient4493-3">
      <stop
         style="stop-color:#9e5700;stop-opacity:1"
         offset="0"
         id="stop4489" />
      <stop
         style="stop-color:#f5c700;stop-opacity:1"
         offset="1"
         id="stop4491" />
    </linearGradient>
    <linearGradient
       inkscape:collect="always"
       xlink:href="#linearGradient4493-3"
       id="linearGradient4495"
       x1="16.636105"
       y1="79.516586"
       x2="185.65324"
       y2="79.516586"
       gradientUnits="userSpaceOnUse"
       gradientTransform="matrix(2.612677,0,0,2.612677,-595.84114,-70.251881)" />
    <linearGradient
       inkscape:collect="always"
       xlink:href="#linearGradient4595-3"
       id="linearGradient4574"
       x1="2.0552444"
       y1="85.982872"
       x2="186.99261"
       y2="85.982872"
       gradientUnits="userSpaceOnUse" />
    <linearGradient
       inkscape:collect="always"
       xlink:href="#linearGradient4815"
       id="linearGradient4809"
       gradientUnits="userSpaceOnUse"
       x1="2.0552444"
       y1="85.982872"
       x2="704.19073"
       y2="372.86621" />
    <filter
       inkscape:collect="always"
       style="color-interpolation-filters:sRGB"
       id="filter4833"
       x="-0.021865444"
       width="1.0437309"
       y="-0.026596405"
       height="1.0531929">
      <feGaussianBlur
         inkscape:collect="always"
         stdDeviation="1.6848907"
         id="feGaussianBlur4835" />
    </filter>
    <linearGradient
       inkscape:collect="always"
       xlink:href="#linearGradient4854"
       id="linearGradient4843"
       x1="-553.8764"
       y1="137.49928"
       x2="-109.2892"
       y2="137.49928"
       gradientUnits="userSpaceOnUse" />
    <linearGradient
       inkscape:collect="always"
       xlink:href="#linearGradient4493-3"
       id="linearGradient4592"
       gradientUnits="userSpaceOnUse"
       gradientTransform="matrix(2.612677,0,0,2.612677,-595.84114,-70.251881)"
       x1="16.636105"
       y1="79.516586"
       x2="185.65324"
       y2="79.516586" />
    <linearGradient
       inkscape:collect="always"
       xlink:href="#linearGradient4854"
       id="linearGradient4594"
       gradientUnits="userSpaceOnUse"
       x1="-553.8764"
       y1="137.49928"
       x2="-109.2892"
       y2="137.49928" />
    <linearGradient
       inkscape:collect="always"
       xlink:href="#linearGradient4854"
       id="linearGradient917"
       x1="-472.45868"
       y1="318.22693"
       x2="144.21381"
       y2="318.22693"
       gradientUnits="userSpaceOnUse"
       gradientTransform="translate(-45.585607,-246.53438)" />
    <linearGradient
       inkscape:collect="always"
       xlink:href="#linearGradient4493-3"
       id="linearGradient925"
       x1="-472.45868"
       y1="318.22693"
       x2="144.21381"
       y2="318.22693"
       gradientUnits="userSpaceOnUse"
       gradientTransform="translate(-45.585607,-246.53438)" />
  </defs>
  <sodipodi:namedview
     id="base"
     pagecolor="#ffffff"
     bordercolor="#666666"
     borderopacity="1.0"
     inkscape:pageopacity="0.0"
     inkscape:pageshadow="2"
     inkscape:zoom="0.70710678"
     inkscape:cx="519.01404"
     inkscape:cy="182.34469"
     inkscape:document-units="mm"
     inkscape:current-layer="text78"
     showgrid="false"
     fit-margin-top="0"
     fit-margin-left="0"
     fit-margin-right="0"
     fit-margin-bottom="0"
     inkscape:window-width="1366"
     inkscape:window-height="705"
     inkscape:window-x="-8"
     inkscape:window-y="-8"
     inkscape:window-maximized="1" />
  <metadata
     id="metadata5">
    <rdf:RDF>
      <cc:Work
         rdf:about="">
        <dc:format>image/svg+xml</dc:format>
        <dc:type
           rdf:resource="http://purl.org/dc/dcmitype/StillImage" />
        <dc:title></dc:title>
      </cc:Work>
    </rdf:RDF>
  </metadata>
  <g
     inkscape:label="Layer 1"
     inkscape:groupmode="layer"
     id="layer1"
     transform="translate(558.60093,-119.30769)">
    <g
       id="g4590"
       transform="matrix(0.28440083,0,0,0.28440083,-411.12194,139.78198)">
      <g
         id="g115"
         transform="matrix(2.1385379,0,0,2.1449646,526.89692,-123.7533)">
        <g
           id="layer1-6-3"
           inkscape:label="Layer 1"
           transform="translate(-127.04967,18.213277)"
           style="fill:#e59e00;fill-opacity:1;filter:url(#filter4833)">
          <g
             id="g108">
            <path
               inkscape:connector-curvature="0"
               style="fill:#e59e00;fill-opacity:1;stroke:none;stroke-width:0.99999994"
               d="M 9.4179688,37.65625 C 6.92471,37.868624 7.0778433,50.4305 11.113281,72.876953 20.358307,124.30086 89.800704,232.17557 135.64258,266.32617 c 17.02383,12.68217 22.57198,18.60387 45.02344,48.05078 24.16072,31.68879 52.46361,61.62387 77.98632,82.48243 22.47179,18.36514 26.675,24.51068 23.1211,33.8164 -2.02842,5.31137 -4.0803,7.27535 -41.2461,39.47852 -35.29421,30.58148 -37.07142,33.07646 -31.41992,44.15429 3.3626,6.59127 18.16319,17.06534 24.11914,17.06836 2.75465,0.001 2.80992,1.03113 0.3418,6.33203 -8.10042,17.3977 3.81091,28.56835 23.82422,22.3418 5.04406,-1.5693 5.33678,-1.34408 3.73047,2.88086 -7.60224,19.99536 13.04636,29.65278 30.54687,14.28711 3.22895,-2.83506 3.22959,-2.8349 3.64844,5.92578 1.18385,24.76108 17.5455,28.27769 43.24414,9.29297 6.7693,-5.00077 6.19725,-5.09159 7.52344,1.18945 1.57218,7.44613 5.73085,15.50598 8.88476,17.21875 8.39521,4.55898 18.52531,-1.98376 22.7461,-14.6914 1.91917,-5.77807 1.87832,-5.77187 4.44726,-0.73633 10.85231,21.27228 34.45948,15.73194 32.68946,-7.67188 -0.56221,-7.43357 -0.56202,-7.43272 5.11328,-2.24218 16.69432,15.2683 29.788,10.72836 30.96679,-10.73633 0.44535,-8.10909 0.4461,-8.10882 5.57813,-6.15235 16.35394,6.23468 26.24136,-2.49979 25.29297,-22.34375 -0.50687,-10.60561 -0.50686,-10.60664 3.16601,-9.29492 16.71141,5.96844 25.01838,-12.88158 13.22852,-30.01758 -3.05499,-4.44026 -3.05429,-4.44065 2.65234,-6.0996 24.81366,-7.2135 28.60903,-23.03211 8.91992,-37.17579 -2.82035,-2.02597 -5.31834,-3.82696 -5.55078,-4.00195 -0.23255,-0.17495 1.39538,-1.87386 3.61914,-3.77734 7.05253,-6.03666 9.83072,-17.00128 5.42383,-21.40821 -5.4856,-5.48556 -27.92446,-8.79438 -74.12109,-10.93359 -15.5,-0.71773 -15.50068,-0.71849 -12.23438,-2.48633 3.01187,-1.62996 3.61857,-1.64894 7.78516,-0.23437 7.2731,2.46928 13.12902,1.06921 21.17578,-5.06836 3.05174,-2.3277 3.43736,-2.3959 5.5,-0.95117 5.61532,3.93312 23.77344,-2.65164 23.77344,-8.6211 0,-1.55542 0.41503,-1.86384 1.75,-1.30273 8.0307,3.37557 20.25,-2.02251 20.25,-8.94532 0,-3.10069 0.45595,-3.1478 5.5,-0.57617 7.07501,3.60703 14.502,0.9409 14.5,-5.20507 -5.7e-4,-2.13778 0.34576,-2.27149 5.05664,-1.94532 11.22901,0.77787 15.44529,-2.10395 13.06445,-8.93359 -1.40084,-4.01847 -1.42101,-4.00169 3.40821,-2.90039 8.19375,1.86857 16.33181,-2.95823 15.1289,-8.97266 -0.53219,-2.66091 -0.32825,-3.04388 1.61719,-3.04687 6.78928,-0.0114 13.14462,-7.92577 12.24219,-15.2461 -0.58557,-4.74953 -0.58523,-4.74981 2.69922,-4.75586 12.07934,-0.0205 20.07603,-7.97872 16.9707,-16.88671 -1.00948,-2.89577 -0.93914,-2.97612 4.41797,-5.1504 11.76313,-4.77431 16.39453,-10.12249 16.39453,-18.93164 0,-4.61776 0.24746,-5.16803 2.75,-6.11132 7.82971,-2.95132 12.62557,-10.77441 12.66601,-20.66407 0.0297,-7.25 0.0287,-7.25 4.58399,-7.25 8.27308,0 11.0479,-4.60492 12.54297,-20.82031 0.61489,-6.66917 0.91017,-7.42148 3.3164,-8.45117 15.93366,-6.81843 18.11732,-18.95204 5.625,-31.24609 -5.09907,-5.01813 -5.09794,-5.01899 5.07032,-4.64258 22.20676,0.82203 30.07234,-9.37037 13.48437,-17.47266 -9.3086,-4.54673 -10.47688,-5.78889 -6.40625,-6.81055 10.45792,-2.62476 37.73396,-29.91778 34.74023,-34.76171 -1.18383,-1.91551 -8.77333,-0.95712 -28.84765,3.64257 -14.17845,3.24874 -14.72109,2.2753 -3.0332,-5.43164 16.13019,-10.63619 31.13355,-28.37641 31.79882,-37.59961 0.30486,-4.22665 -5.94355,-3.54935 -24.57617,2.66407 -8.13154,2.71162 -14.97868,4.92968 -15.2168,4.92968 -0.23792,0 5.77622,-6.18749 13.36329,-13.749997 28.27861,-28.187044 19.83131,-31.01227 -19.36133,-6.474609 -6.6,4.132112 -13.12501,8.213336 -14.5,9.068356 -2.50001,1.55458 -2.49891,1.55475 -0.39844,-0.89453 27.44164,-31.998731 38.35698,-49.949217 30.375,-49.949217 -4.47171,0 -14.80207,8.40591 -43.40625,35.324219 -17.77667,16.728948 -18.8138,17.218238 -11.63867,5.476562 6.18769,-10.125816 10.02564,-20.566872 10.0332,-27.300781 0.0102,-8.830926 -2.44669,-9.717489 -5.8164,-2.099609 -3.16487,7.154668 -11.76673,12.609825 -56.14844,35.613281 -92.49029,47.938595 -101.62562,55.063545 -124.98828,97.486325 -19.07815,34.64276 -26.60105,42.04605 -43.92969,43.23047 -24.3087,1.6615 -39.15102,-9.14858 -70.76563,-51.53906 -27.28899,-36.59046 -36.51266,-43.73695 -56.3164,-43.63086 -29.48003,0.15793 -52.06456,14.91008 -54.9082,35.86523 -0.92102,6.78702 -1.728,7.74861 -10.2793,12.24219 -6.66874,3.50433 -13.11515,9.5607 -14.07227,13.2207 -0.43524,1.66436 0.0769,1.68553 9.14844,0.37696 26.65543,-3.84505 44.74906,6.33812 36.19336,20.36914 -9.72268,15.94484 -32.26328,16.38914 -66.30078,1.30859 -45.96453,-20.36489 -48.04701,-21.57878 -48.89649,-28.50586 -0.73642,-6.00507 -2.7844,-10.21539 -7.52343,-15.46093 -3.35446,-3.71299 -3.44904,-4.01245 -1.94336,-6.16211 3.19681,-4.56408 1.03551,-10.82082 -6.5625,-19.00586 -4.14427,-4.46444 -4.36019,-4.9995 -4.46485,-11.01563 -0.19552,-11.24083 -4.657055,-16.69289 -15.017575,-18.34961 -4.001,-0.63978 -4.002087,-0.63913 -1.621094,-5.29101 5.529279,-10.80286 -0.07237,-19.55767 -10.001953,-15.63086 -1.579544,0.62466 -1.75,-0.0966 -1.75,-7.4043 0,-19.858197 -8.938594,-30.058539 -15,-17.117187 -3.575335,7.633493 -5,4.593319 -5,-10.671875 0,-14.375388 -4.031742,-17.241952 -12.02539,-8.550781 -5.644675,6.137219 -5.644702,6.136867 -6.847657,-0.570313 -4.476688,-24.960182 -9.771237,-24.422286 -12.730469,1.292969 -0.781824,6.793943 -0.816749,6.745662 -4.914062,-7 C 14.465517,43.922726 11.237374,37.501274 9.4179688,37.65625 Z"
               transform="scale(0.26458333)"
               id="path4496-6" />
          </g>
        </g>
        <g
           style="fill:url(#linearGradient4574);fill-opacity:1"
           id="layer1-6"
           inkscape:label="Layer 1"
           transform="translate(-108.90682,33.332324)">
          <path
             id="path4496"
             transform="scale(0.26458333)"
             d="M 9.4179688,37.65625 C 6.92471,37.868624 7.0778433,50.4305 11.113281,72.876953 20.358307,124.30086 89.800704,232.17557 135.64258,266.32617 c 17.02383,12.68217 22.57198,18.60387 45.02344,48.05078 24.16072,31.68879 52.46361,61.62387 77.98632,82.48243 22.47179,18.36514 26.675,24.51068 23.1211,33.8164 -2.02842,5.31137 -4.0803,7.27535 -41.2461,39.47852 -35.29421,30.58148 -37.07142,33.07646 -31.41992,44.15429 3.3626,6.59127 18.16319,17.06534 24.11914,17.06836 2.75465,0.001 2.80992,1.03113 0.3418,6.33203 -8.10042,17.3977 3.81091,28.56835 23.82422,22.3418 5.04406,-1.5693 5.33678,-1.34408 3.73047,2.88086 -7.60224,19.99536 13.04636,29.65278 30.54687,14.28711 3.22895,-2.83506 3.22959,-2.8349 3.64844,5.92578 1.18385,24.76108 17.5455,28.27769 43.24414,9.29297 6.7693,-5.00077 6.19725,-5.09159 7.52344,1.18945 1.57218,7.44613 5.73085,15.50598 8.88476,17.21875 8.39521,4.55898 18.52531,-1.98376 22.7461,-14.6914 1.91917,-5.77807 1.87832,-5.77187 4.44726,-0.73633 10.85231,21.27228 34.45948,15.73194 32.68946,-7.67188 -0.56221,-7.43357 -0.56202,-7.43272 5.11328,-2.24218 16.69432,15.2683 29.788,10.72836 30.96679,-10.73633 0.44535,-8.10909 0.4461,-8.10882 5.57813,-6.15235 16.35394,6.23468 26.24136,-2.49979 25.29297,-22.34375 -0.50687,-10.60561 -0.50686,-10.60664 3.16601,-9.29492 16.71141,5.96844 25.01838,-12.88158 13.22852,-30.01758 -3.05499,-4.44026 -3.05429,-4.44065 2.65234,-6.0996 24.81366,-7.2135 28.60903,-23.03211 8.91992,-37.17579 -2.82035,-2.02597 -5.31834,-3.82696 -5.55078,-4.00195 -0.23255,-0.17495 1.39538,-1.87386 3.61914,-3.77734 7.05253,-6.03666 9.83072,-17.00128 5.42383,-21.40821 -5.4856,-5.48556 -27.92446,-8.79438 -74.12109,-10.93359 -15.5,-0.71773 -15.50068,-0.71849 -12.23438,-2.48633 3.01187,-1.62996 3.61857,-1.64894 7.78516,-0.23437 7.2731,2.46928 13.12902,1.06921 21.17578,-5.06836 3.05174,-2.3277 3.43736,-2.3959 5.5,-0.95117 5.61532,3.93312 23.77344,-2.65164 23.77344,-8.6211 0,-1.55542 0.41503,-1.86384 1.75,-1.30273 8.0307,3.37557 20.25,-2.02251 20.25,-8.94532 0,-3.10069 0.45595,-3.1478 5.5,-0.57617 7.07501,3.60703 14.502,0.9409 14.5,-5.20507 -5.7e-4,-2.13778 0.34576,-2.27149 5.05664,-1.94532 11.22901,0.77787 15.44529,-2.10395 13.06445,-8.93359 -1.40084,-4.01847 -1.42101,-4.00169 3.40821,-2.90039 8.19375,1.86857 16.33181,-2.95823 15.1289,-8.97266 -0.53219,-2.66091 -0.32825,-3.04388 1.61719,-3.04687 6.78928,-0.0114 13.14462,-7.92577 12.24219,-15.2461 -0.58557,-4.74953 -0.58523,-4.74981 2.69922,-4.75586 12.07934,-0.0205 20.07603,-7.97872 16.9707,-16.88671 -1.00948,-2.89577 -0.93914,-2.97612 4.41797,-5.1504 11.76313,-4.77431 16.39453,-10.12249 16.39453,-18.93164 0,-4.61776 0.24746,-5.16803 2.75,-6.11132 7.82971,-2.95132 12.62557,-10.77441 12.66601,-20.66407 0.0297,-7.25 0.0287,-7.25 4.58399,-7.25 8.27308,0 11.0479,-4.60492 12.54297,-20.82031 0.61489,-6.66917 0.91017,-7.42148 3.3164,-8.45117 15.93366,-6.81843 18.11732,-18.95204 5.625,-31.24609 -5.09907,-5.01813 -5.09794,-5.01899 5.07032,-4.64258 22.20676,0.82203 30.07234,-9.37037 13.48437,-17.47266 -9.3086,-4.54673 -10.47688,-5.78889 -6.40625,-6.81055 10.45792,-2.62476 37.73396,-29.91778 34.74023,-34.76171 -1.18383,-1.91551 -8.77333,-0.95712 -28.84765,3.64257 -14.17845,3.24874 -14.72109,2.2753 -3.0332,-5.43164 16.13019,-10.63619 31.13355,-28.37641 31.79882,-37.59961 0.30486,-4.22665 -5.94355,-3.54935 -24.57617,2.66407 -8.13154,2.71162 -14.97868,4.92968 -15.2168,4.92968 -0.23792,0 5.77622,-6.18749 13.36329,-13.749997 28.27861,-28.187044 19.83131,-31.01227 -19.36133,-6.474609 -6.6,4.132112 -13.12501,8.213336 -14.5,9.068356 -2.50001,1.55458 -2.49891,1.55475 -0.39844,-0.89453 27.44164,-31.998731 38.35698,-49.949217 30.375,-49.949217 -4.47171,0 -14.80207,8.40591 -43.40625,35.324219 -17.77667,16.728948 -18.8138,17.218238 -11.63867,5.476562 6.18769,-10.125816 10.02564,-20.566872 10.0332,-27.300781 0.0102,-8.830926 -2.44669,-9.717489 -5.8164,-2.099609 -3.16487,7.154668 -11.76673,12.609825 -56.14844,35.613281 -92.49029,47.938595 -101.62562,55.063545 -124.98828,97.486325 -19.07815,34.64276 -26.60105,42.04605 -43.92969,43.23047 -24.3087,1.6615 -39.15102,-9.14858 -70.76563,-51.53906 -27.28899,-36.59046 -36.51266,-43.73695 -56.3164,-43.63086 -29.48003,0.15793 -52.06456,14.91008 -54.9082,35.86523 -0.92102,6.78702 -1.728,7.74861 -10.2793,12.24219 -6.66874,3.50433 -13.11515,9.5607 -14.07227,13.2207 -0.43524,1.66436 0.0769,1.68553 9.14844,0.37696 26.65543,-3.84505 44.74906,6.33812 36.19336,20.36914 -9.72268,15.94484 -32.26328,16.38914 -66.30078,1.30859 -45.96453,-20.36489 -48.04701,-21.57878 -48.89649,-28.50586 -0.73642,-6.00507 -2.7844,-10.21539 -7.52343,-15.46093 -3.35446,-3.71299 -3.44904,-4.01245 -1.94336,-6.16211 3.19681,-4.56408 1.03551,-10.82082 -6.5625,-19.00586 -4.14427,-4.46444 -4.36019,-4.9995 -4.46485,-11.01563 -0.19552,-11.24083 -4.657055,-16.69289 -15.017575,-18.34961 -4.001,-0.63978 -4.002087,-0.63913 -1.621094,-5.29101 5.529279,-10.80286 -0.07237,-19.55767 -10.001953,-15.63086 -1.579544,0.62466 -1.75,-0.0966 -1.75,-7.4043 0,-19.858197 -8.938594,-30.058539 -15,-17.117187 -3.575335,7.633493 -5,4.593319 -5,-10.671875 0,-14.375388 -4.031742,-17.241952 -12.02539,-8.550781 -5.644675,6.137219 -5.644702,6.136867 -6.847657,-0.570313 -4.476688,-24.960182 -9.771237,-24.422286 -12.730469,1.292969 -0.781824,6.793943 -0.816749,6.745662 -4.914062,-7 C 14.465517,43.922726 11.237374,37.501274 9.4179688,37.65625 Z"
             style="fill:url(#linearGradient4809);fill-opacity:1;stroke:none;stroke-width:0.99999994"
             inkscape:connector-curvature="0" />
        </g>
      </g>
      <g
         aria-label="Estrellas de
Esperanza"
         style="font-style:normal;font-variant:normal;font-weight:normal;font-stretch:normal;font-size:124.04245758px;line-height:1;font-family:'Sansita One';-inkscape-font-specification:'Sansita One';letter-spacing:0px;word-spacing:0px;fill:url(#linearGradient925);fill-opacity:1;stroke:url(#linearGradient917);stroke-width:22.38038445;stroke-miterlimit:4;stroke-dasharray:none;stroke-opacity:1;paint-order:markers stroke fill"
         id="text78">
        <path
           d="m -447.87937,117.57339 q 2.59249,3.27472 2.59249,8.59614 0,7.36812 -5.45787,11.32508 -5.45786,3.82051 -14.05401,3.82051 -4.91208,0 -12.41665,-1.09158 -14.73624,-2.31959 -19.23898,-2.31959 -4.50274,0 -6.27655,0.27289 -1.77381,0.13645 -4.63919,0.40934 l 16.78295,-90.054821 h 58.80853 q 0,8.323249 -4.09341,12.689543 -3.95695,4.366295 -11.87086,4.366295 -7.91391,0 -15.96426,-3.684061 l -4.22985,23.878172 h 24.28751 q 0,7.231675 -3.54761,11.325077 -3.54762,3.956955 -9.55127,3.956955 -5.86721,0 -9.55127,-1.364468 -3.68406,-1.364467 -4.0934,-1.773807 l -4.91208,25.788425 q 3.27472,0.40934 9.41482,0.40934 10.5064,0 18.01096,-6.54944 z"
           style="font-size:136.44670105px;line-height:1;fill:url(#linearGradient925);fill-opacity:1;stroke:url(#linearGradient917);stroke-width:22.38038445;stroke-miterlimit:4;stroke-dasharray:none;stroke-opacity:1"
           id="path176" />
        <path
           d="m -392.05774,90.69339 q 1.91026,-5.048528 1.91026,-9.414823 0,-8.050355 -6.54945,-8.050355 -3.41116,0 -6.27654,3.138274 -2.72894,3.001827 -2.72894,6.822335 0,2.728934 2.18315,4.912081 3.13827,3.001828 11.18863,7.913909 8.05035,4.912079 11.05218,9.005479 3.13827,3.95696 3.13827,9.55127 0,5.45787 -2.72893,10.5064 -2.59249,5.04853 -7.36812,8.59614 -10.2335,7.64102 -26.60711,7.64102 -8.86903,0 -15.69137,-4.63919 -6.82233,-4.50274 -6.82233,-9.82416 0,-5.32143 3.8205,-8.4597 3.95696,-3.13827 9.68772,-3.13827 5.73076,0 9.27838,2.18314 -1.77381,4.50274 -1.77381,7.50457 0,9.00548 7.64101,9.00548 3.27472,0 5.45787,-2.0467 2.18315,-2.0467 2.18315,-5.59431 0,-6.95878 -11.73442,-14.32691 -9.55127,-6.27654 -11.73441,-8.73258 -3.68406,-4.366298 -3.68406,-9.824166 0,-5.457868 2.59248,-10.642843 2.59249,-5.184975 7.36812,-8.869036 9.96061,-7.641015 27.28934,-7.641015 8.86904,0 14.05402,3.547614 5.32142,3.547615 5.32142,9.551269 0,6.003655 -3.68406,9.414823 -3.54762,3.411167 -10.09706,3.411167 -4.50274,0 -6.68589,-1.500913 z"
           style="font-size:136.44670105px;line-height:1;fill:url(#linearGradient925);fill-opacity:1;stroke:url(#linearGradient917);stroke-width:22.38038445;stroke-miterlimit:4;stroke-dasharray:none;stroke-opacity:1"
           id="path178" />
        <path
           d="m -364.31428,124.94151 q 0,-3.68406 1.91026,-12.96244 l 7.23167,-36.840604 h -8.05035 l 0.54578,-4.093401 q 16.37361,-4.912082 32.20143,-16.919391 h 6.54944 l -3.27472,14.87269 h 10.64284 l -1.22802,6.140102 h -10.5064 l -6.95878,36.840604 q -1.77381,8.4597 -1.77381,11.32508 0,6.54944 5.73077,7.91391 -1.36447,4.63919 -6.27655,7.36812 -4.91208,2.72894 -11.87087,2.72894 -6.95878,0 -10.91573,-4.3663 -3.95696,-4.36629 -3.95696,-12.00731 z"
           style="font-size:136.44670105px;line-height:1;fill:url(#linearGradient925);fill-opacity:1;stroke:url(#linearGradient917);stroke-width:22.38038445;stroke-miterlimit:4;stroke-dasharray:none;stroke-opacity:1"
           id="path180" />
        <path
           d="m -274.48757,100.24466 q 4.91208,-8.73259 4.91208,-17.601626 0,-5.867208 -4.22985,-5.867208 -3.27472,0 -6.68589,5.594315 -3.54761,5.594315 -4.63919,12.82599 l -7.09522,43.390049 -28.24447,2.72894 13.91756,-72.316756 22.51371,-2.728934 -2.45604,13.781117 q 6.68589,-13.781117 21.69502,-13.781117 7.91391,0 12.14376,4.093401 4.36629,4.093401 4.36629,12.553097 0,8.323248 -5.59431,13.64467 -5.45787,5.321422 -14.87269,5.321422 -4.0934,0 -5.73076,-1.63736 z"
           style="font-size:136.44670105px;line-height:1;fill:url(#linearGradient925);fill-opacity:1;stroke:url(#linearGradient917);stroke-width:22.38038445;stroke-miterlimit:4;stroke-dasharray:none;stroke-opacity:1"
           id="path182" />
        <path
           d="m -190.77966,115.52669 q 3.41117,2.31959 3.41117,7.50457 0,5.04853 -2.59249,8.32325 -2.59249,3.27472 -6.82234,5.45786 -8.73258,4.50275 -18.14741,4.50275 -9.41482,0 -15.00913,-2.0467 -5.45787,-2.04671 -9.14193,-5.86721 -7.23168,-7.23168 -7.23168,-20.46701 0,-20.60345 11.18863,-33.156547 12.00731,-13.508223 32.88366,-13.508223 12.96243,0 19.37543,5.457868 4.77563,4.093401 4.77563,10.77929 0,24.014622 -41.47979,24.014622 -0.54579,3.54761 -0.54579,6.54944 0,6.27655 2.72893,8.73259 2.86538,2.31959 8.05036,2.31959 5.18497,0 10.64284,-2.31959 5.59432,-2.45604 7.91391,-6.27655 z M -218.61479,100.654 q 9.68772,0 15.28203,-6.003656 5.59432,-5.730762 5.59432,-14.872691 0,-3.138274 -1.22802,-4.775634 -1.09158,-1.773807 -3.41117,-1.773807 -2.31959,0 -4.36629,0.955127 -1.91026,0.81868 -3.95696,3.820507 -5.04853,6.822335 -7.91391,22.650154 z"
           style="font-size:136.44670105px;line-height:1;fill:url(#linearGradient925);fill-opacity:1;stroke:url(#linearGradient917);stroke-width:22.38038445;stroke-miterlimit:4;stroke-dasharray:none;stroke-opacity:1"
           id="path184" />
        <path
           d="m -140.94251,131.08161 q -4.22985,10.23351 -17.73807,10.23351 -6.82233,0 -11.18863,-4.77564 -3.54761,-3.95695 -3.54761,-8.45969 0,-10.23351 4.77563,-32.610766 l 9.96061,-52.395533 27.69868,-2.728934 -13.23533,69.042033 q -2.31959,10.09705 -2.31959,13.64467 0,7.77746 5.59431,8.05035 z"
           style="font-size:136.44670105px;line-height:1;fill:url(#linearGradient925);fill-opacity:1;stroke:url(#linearGradient917);stroke-width:22.38038445;stroke-miterlimit:4;stroke-dasharray:none;stroke-opacity:1"
           id="path186" />
        <path
           d="m -96.703922,131.08161 q -4.229848,10.23351 -17.738068,10.23351 -6.82234,0 -11.18863,-4.77564 -3.54762,-3.95695 -3.54762,-8.45969 0,-10.23351 4.77564,-32.610766 l 9.96061,-52.395533 27.698677,-2.728934 -13.23533,69.042033 q -2.319597,10.09705 -2.319597,13.64467 0,7.77746 5.594318,8.05035 z"
           style="font-size:136.44670105px;line-height:1;fill:url(#linearGradient925);fill-opacity:1;stroke:url(#linearGradient917);stroke-width:22.38038445;stroke-miterlimit:4;stroke-dasharray:none;stroke-opacity:1"
           id="path188" />
        <path
           d="m -79.208889,134.49278 q -3.138274,-3.54761 -4.639188,-9.14193 -1.364467,-5.59431 -1.364467,-14.73624 0,-9.14193 3.138274,-17.46518 3.138275,-8.323249 8.869036,-14.326903 11.734416,-12.553097 31.109848,-12.553097 6.958782,0 12.00731,2.319594 L -6.7556906,66.26943 -16.852746,119.48364 q -0.409341,1.63736 -0.409341,4.63919 0,3.00183 1.773808,4.91208 1.910253,1.91026 4.639187,2.18315 -1.364467,4.63919 -6.412995,7.36812 -4.912081,2.72894 -10.506396,2.72894 -5.594314,0 -9.414822,-2.18315 -3.684061,-2.0467 -4.775634,-5.59432 -2.183148,3.41117 -6.822336,5.59432 -4.639187,2.18315 -10.915736,2.18315 -6.140101,0 -11.188629,-1.63736 -5.048528,-1.63737 -8.323249,-5.18498 z m 28.790254,-55.39736 q -1.500914,2.456041 -2.865381,6.685888 -1.364467,4.093401 -3.684061,15.282032 -2.183147,11.05218 -2.183147,18.96609 0,7.91391 1.228021,10.2335 1.22802,2.3196 3.411167,2.3196 4.366294,0 7.504569,-4.0934 3.27472,-4.22985 4.502741,-11.59797 l 7.231675,-39.978887 q -2.865381,-2.456041 -6.276548,-2.456041 -3.274721,0 -5.321422,1.091574 -1.910254,1.091573 -3.547614,3.547614 z"
           style="font-size:136.44670105px;line-height:1;fill:url(#linearGradient925);fill-opacity:1;stroke:url(#linearGradient917);stroke-width:22.38038445;stroke-miterlimit:4;stroke-dasharray:none;stroke-opacity:1"
           id="path190" />
        <path
           d="m 41.533631,90.69339 q 1.910254,-5.048528 1.910254,-9.414823 0,-8.050355 -6.549442,-8.050355 -3.411167,0 -6.276548,3.138274 -2.728934,3.001827 -2.728934,6.822335 0,2.728934 2.183147,4.912081 3.138274,3.001828 11.18863,7.913909 8.050355,4.912079 11.052182,9.005479 3.138274,3.95696 3.138274,9.55127 0,5.45787 -2.728934,10.5064 -2.592487,5.04853 -7.368121,8.59614 -10.233503,7.64102 -26.607107,7.64102 -8.8690357,0 -15.6913708,-4.63919 -6.822335,-4.50274 -6.822335,-9.82416 0,-5.32143 3.8205076,-8.4597 3.9569543,-3.13827 9.6877158,-3.13827 5.7307614,0 9.2783754,2.18314 -1.773807,4.50274 -1.773807,7.50457 0,9.00548 7.641015,9.00548 3.274721,0 5.457868,-2.0467 2.183148,-2.0467 2.183148,-5.59431 0,-6.95878 -11.734417,-14.32691 -9.551269,-6.27654 -11.7344159,-8.73258 -3.684061,-4.366298 -3.684061,-9.824166 0,-5.457868 2.5924874,-10.642843 2.5924875,-5.184975 7.3681215,-8.869036 9.960609,-7.641015 27.289341,-7.641015 8.869035,0 14.05401,3.547614 5.321421,3.547615 5.321421,9.551269 0,6.003655 -3.684061,9.414823 -3.547614,3.411167 -10.097056,3.411167 -4.502741,0 -6.685888,-1.500913 z"
           style="font-size:136.44670105px;line-height:1;fill:url(#linearGradient925);fill-opacity:1;stroke:url(#linearGradient917);stroke-width:22.38038445;stroke-miterlimit:4;stroke-dasharray:none;stroke-opacity:1"
           id="path192" />
        <path
           d="m 138.05687,66.26943 q 4.91208,0 8.73258,1.091574 0.13645,-0.545787 0.40934,-2.046701 l 0.68224,-4.229848 q 0.54579,-2.728934 1.36447,-7.231675 l 2.18314,-10.779289 27.1529,-2.728934 -15.14559,79.139083 q -0.13644,0.81868 -0.13644,2.18315 v 2.18315 q 0,3.00183 1.50091,5.32142 1.50091,2.18315 3.95695,2.18315 -2.72893,6.41299 -11.05218,9.14193 -2.86538,0.81868 -6.95878,0.81868 -3.95696,0 -7.64102,-2.18315 -3.68406,-2.0467 -4.77563,-5.59432 -2.18315,3.54762 -6.54944,5.59432 -4.3663,2.18315 -10.77929,2.18315 -6.27655,0 -11.59797,-1.63736 -5.18498,-1.63737 -8.4597,-5.18498 -6.003652,-6.95878 -6.003652,-22.7866 0,-20.467004 12.007312,-32.883653 12.00731,-12.553097 31.10985,-12.553097 z m -0.95513,8.186802 q -5.04853,0 -7.77746,5.457868 -2.72894,5.457868 -5.59432,18.966092 -2.72893,13.508228 -2.72893,25.651978 0,8.32325 4.91208,8.32325 4.36629,0 7.36812,-4.36629 3.13828,-4.3663 4.3663,-11.59797 l 7.36812,-39.978887 q -2.86538,-2.456041 -7.91391,-2.456041 z"
           style="font-size:136.44670105px;line-height:1;fill:url(#linearGradient925);fill-opacity:1;stroke:url(#linearGradient917);stroke-width:22.38038445;stroke-miterlimit:4;stroke-dasharray:none;stroke-opacity:1"
           id="path194" />
        <path
           d="m 235.6163,115.52669 q 3.41117,2.31959 3.41117,7.50457 0,5.04853 -2.59248,8.32325 -2.59249,3.27472 -6.82234,5.45786 -8.73259,4.50275 -18.14741,4.50275 -9.41482,0 -15.00914,-2.0467 -5.45787,-2.04671 -9.14193,-5.86721 -7.23167,-7.23168 -7.23167,-20.46701 0,-20.60345 11.18863,-33.156547 12.00731,-13.508223 32.88365,-13.508223 12.96244,0 19.37543,5.457868 4.77564,4.093401 4.77564,10.77929 0,24.014622 -41.4798,24.014622 -0.54579,3.54761 -0.54579,6.54944 0,6.27655 2.72894,8.73259 2.86538,2.31959 8.05035,2.31959 5.18498,0 10.64285,-2.31959 5.59431,-2.45604 7.9139,-6.27655 z M 207.78118,100.654 q 9.68771,0 15.28203,-6.003656 5.59431,-5.730762 5.59431,-14.872691 0,-3.138274 -1.22802,-4.775634 -1.09157,-1.773807 -3.41116,-1.773807 -2.3196,0 -4.3663,0.955127 -1.91025,0.81868 -3.95695,3.820507 -5.04853,6.822335 -7.91391,22.650154 z"
           style="font-size:136.44670105px;line-height:1;fill:url(#linearGradient925);fill-opacity:1;stroke:url(#linearGradient917);stroke-width:22.38038445;stroke-miterlimit:4;stroke-dasharray:none;stroke-opacity:1"
           id="path196" />
        <path
           d="m -447.87937,254.02009 q 2.59249,3.27472 2.59249,8.59614 0,7.36812 -5.45787,11.32508 -5.45786,3.82051 -14.05401,3.82051 -4.91208,0 -12.41665,-1.09158 -14.73624,-2.31959 -19.23898,-2.31959 -4.50274,0 -6.27655,0.27289 -1.77381,0.13645 -4.63919,0.40934 l 16.78295,-90.05482 h 58.80853 q 0,8.32325 -4.09341,12.68954 -3.95695,4.3663 -11.87086,4.3663 -7.91391,0 -15.96426,-3.68406 l -4.22985,23.87817 h 24.28751 q 0,7.23167 -3.54761,11.32508 -3.54762,3.95695 -9.55127,3.95695 -5.86721,0 -9.55127,-1.36447 -3.68406,-1.36446 -4.0934,-1.7738 l -4.91208,25.78842 q 3.27472,0.40934 9.41482,0.40934 10.5064,0 18.01096,-6.54944 z"
           style="font-size:136.44670105px;line-height:1;fill:url(#linearGradient925);fill-opacity:1;stroke:url(#linearGradient917);stroke-width:22.38038445;stroke-miterlimit:4;stroke-dasharray:none;stroke-opacity:1"
           id="path198" />
        <path
           d="m -392.05774,227.14009 q 1.91026,-5.04853 1.91026,-9.41482 0,-8.05036 -6.54945,-8.05036 -3.41116,0 -6.27654,3.13828 -2.72894,3.00182 -2.72894,6.82233 0,2.72894 2.18315,4.91208 3.13827,3.00183 11.18863,7.91391 8.05035,4.91208 11.05218,9.00548 3.13827,3.95696 3.13827,9.55127 0,5.45787 -2.72893,10.5064 -2.59249,5.04853 -7.36812,8.59614 -10.2335,7.64102 -26.60711,7.64102 -8.86903,0 -15.69137,-4.63919 -6.82233,-4.50274 -6.82233,-9.82416 0,-5.32142 3.8205,-8.4597 3.95696,-3.13827 9.68772,-3.13827 5.73076,0 9.27838,2.18314 -1.77381,4.50275 -1.77381,7.50457 0,9.00548 7.64101,9.00548 3.27472,0 5.45787,-2.0467 2.18315,-2.0467 2.18315,-5.59431 0,-6.95878 -11.73442,-14.3269 -9.55127,-6.27655 -11.73441,-8.73259 -3.68406,-4.3663 -3.68406,-9.82417 0,-5.45786 2.59248,-10.64284 2.59249,-5.18497 7.36812,-8.86903 9.96061,-7.64102 27.28934,-7.64102 8.86904,0 14.05402,3.54762 5.32142,3.54761 5.32142,9.55126 0,6.00366 -3.68406,9.41483 -3.54762,3.41116 -10.09706,3.41116 -4.50274,0 -6.68589,-1.50091 z"
           style="font-size:136.44670105px;line-height:1;fill:url(#linearGradient925);fill-opacity:1;stroke:url(#linearGradient917);stroke-width:22.38038445;stroke-miterlimit:4;stroke-dasharray:none;stroke-opacity:1"
           id="path200" />
        <path
           d="m -302.91326,265.75451 q -5.73076,5.73076 -13.64467,8.86903 -7.77746,3.13828 -15.55492,3.13828 -7.77747,0 -10.5064,-1.36447 l -4.22985,23.19594 -27.69868,2.72893 18.82965,-96.87715 22.24081,-2.3196 -1.77381,9.41482 q 5.73076,-9.68771 17.60163,-9.68771 13.37177,0 20.467,8.59614 6.27655,7.77746 6.27655,19.64832 0,11.87087 -3.13827,20.33056 -3.13828,8.4597 -8.86904,14.32691 z m -38.06863,1.63736 q 2.86538,2.45604 6.413,2.45604 3.54761,0 5.59431,-1.36447 2.0467,-1.36447 3.54761,-4.0934 4.09341,-7.36812 7.36813,-29.74538 0.95512,-6.54944 0.95512,-12.96244 0,-6.41299 -1.50091,-8.45969 -1.36447,-2.0467 -4.0934,-2.0467 -8.32325,0 -11.05218,16.23715 z"
           style="font-size:136.44670105px;line-height:1;fill:url(#linearGradient925);fill-opacity:1;stroke:url(#linearGradient917);stroke-width:22.38038445;stroke-miterlimit:4;stroke-dasharray:none;stroke-opacity:1"
           id="path202" />
        <path
           d="m -227.5563,251.97339 q 3.41117,2.31959 3.41117,7.50457 0,5.04853 -2.59249,8.32325 -2.59249,3.27472 -6.82234,5.45787 -8.73259,4.50274 -18.14741,4.50274 -9.41482,0 -15.00914,-2.0467 -5.45786,-2.0467 -9.14192,-5.86721 -7.23168,-7.23168 -7.23168,-20.46701 0,-20.60345 11.18863,-33.15655 12.00731,-13.50822 32.88365,-13.50822 12.96244,0 19.37544,5.45787 4.77563,4.0934 4.77563,10.77929 0,24.01462 -41.4798,24.01462 -0.54578,3.54761 -0.54578,6.54944 0,6.27655 2.72893,8.73259 2.86538,2.31959 8.05036,2.31959 5.18497,0 10.64284,-2.31959 5.59431,-2.45604 7.91391,-6.27655 z m -27.83513,-14.87269 q 9.68772,0 15.28203,-6.00366 5.59432,-5.73076 5.59432,-14.87269 0,-3.13827 -1.22802,-4.77563 -1.09158,-1.77381 -3.41117,-1.77381 -2.3196,0 -4.3663,0.95513 -1.91025,0.81868 -3.95695,3.82051 -5.04853,6.82233 -7.91391,22.65015 z"
           style="font-size:136.44670105px;line-height:1;fill:url(#linearGradient925);fill-opacity:1;stroke:url(#linearGradient917);stroke-width:22.38038445;stroke-miterlimit:4;stroke-dasharray:none;stroke-opacity:1"
           id="path204" />
        <path
           d="m -167.62209,236.69136 q 4.91208,-8.73259 4.91208,-17.60162 0,-5.86721 -4.22985,-5.86721 -3.27472,0 -6.68589,5.59431 -3.54761,5.59432 -4.63919,12.82599 l -7.09523,43.39005 -28.24446,2.72894 13.91756,-72.31675 22.51371,-2.72894 -2.45604,13.78112 q 6.68588,-13.78112 21.69502,-13.78112 7.91391,0 12.14376,4.0934 4.36629,4.0934 4.36629,12.5531 0,8.32325 -5.59431,13.64467 -5.45787,5.32142 -14.87269,5.32142 -4.0934,0 -5.73076,-1.63736 z"
           style="font-size:136.44670105px;line-height:1;fill:url(#linearGradient925);fill-opacity:1;stroke:url(#linearGradient917);stroke-width:22.38038445;stroke-miterlimit:4;stroke-dasharray:none;stroke-opacity:1"
           id="path206" />
        <path
           d="m -133.30789,270.93948 q -3.13827,-3.54761 -4.63919,-9.14193 -1.36446,-5.59431 -1.36446,-14.73624 0,-9.14193 3.13827,-17.46518 3.13828,-8.32325 8.86904,-14.3269 11.73441,-12.5531 31.109845,-12.5531 6.958782,0 12.007309,2.3196 l 23.332386,-2.3196 -10.097055,53.21421 q -0.409341,1.63736 -0.409341,4.63919 0,3.00183 1.773808,4.91208 1.910253,1.91026 4.639187,2.18315 -1.364467,4.63919 -6.412995,7.36812 -4.912081,2.72894 -10.506396,2.72894 -5.594314,0 -9.414822,-2.18315 -3.684061,-2.0467 -4.775634,-5.59432 -2.183148,3.41117 -6.822332,5.59432 -4.63919,2.18315 -10.91574,2.18315 -6.1401,0 -11.18863,-1.63736 -5.04853,-1.63736 -8.32325,-5.18498 z m 28.79026,-55.39736 q -1.50092,2.45604 -2.86538,6.68589 -1.36447,4.0934 -3.68407,15.28203 -2.18314,11.05218 -2.18314,18.96609 0,7.91391 1.22802,10.2335 1.22802,2.3196 3.41117,2.3196 4.36629,0 7.50456,-4.0934 3.274724,-4.22985 4.502745,-11.59797 l 7.231675,-39.97889 q -2.865381,-2.45604 -6.276548,-2.45604 -3.274721,0 -5.321422,1.09158 -1.91025,1.09157 -3.54761,3.54761 z"
           style="font-size:136.44670105px;line-height:1;fill:url(#linearGradient925);fill-opacity:1;stroke:url(#linearGradient917);stroke-width:22.38038445;stroke-miterlimit:4;stroke-dasharray:none;stroke-opacity:1"
           id="path208" />
        <path
           d="m 4.3540533,277.76182 q -16.5100503,0 -16.5100503,-12.82599 0.136446,-3.54762 1.22802,-9.55127 l 2.4560404,-12.5531 q 3.684061,-17.73807 3.684061,-21.69502 0,-7.91391 -4.6391879,-7.91391 -7.7774615,0 -11.8708625,20.33056 l -8.050356,41.47979 -27.425787,2.72894 14.190457,-72.4532 22.377259,-2.59249 -2.183147,13.37178 q 6.412995,-13.37178 26.0613198,-13.37178 9.5512692,0 13.5082232,4.0934 4.093401,3.95696 4.093401,12.96244 0,8.45969 -4.366294,28.24447 -2.046701,8.86903 -2.046701,12.2802 0,3.27472 1.773807,5.18497 1.910254,1.91026 4.639188,2.18315 -1.364467,4.63919 -6.140101,7.36812 -4.639188,2.72894 -10.7792897,2.72894 z"
           style="font-size:136.44670105px;line-height:1;fill:url(#linearGradient925);fill-opacity:1;stroke:url(#linearGradient917);stroke-width:22.38038445;stroke-miterlimit:4;stroke-dasharray:none;stroke-opacity:1"
           id="path210" />
        <path
           d="m 58.38055,276.39735 q -6.412995,-1.36447 -9.824162,-1.91025 -3.274721,-0.68224 -7.231675,-0.68224 -3.820508,0 -7.641016,1.36447 -2.0467,-1.22802 -3.411167,-3.68406 -1.228021,-2.45604 -1.228021,-6.27655 0,-8.05036 8.186803,-14.19046 l 34.657462,-24.96974 q -9.687716,-2.72894 -18.556752,-2.72894 -8.732589,0 -11.870863,6.00366 -4.639188,-5.45787 -4.639188,-14.05401 0,-5.73076 4.093401,-9.41482 4.229848,-3.82051 12.962437,-3.82051 4.912081,0 9.278376,0.68223 4.502741,0.54579 8.459695,1.09157 l 7.368122,1.09158 q 3.547614,0.54579 7.095229,0.54579 3.68406,0 6.412994,-1.50092 3.547615,3.27472 3.547615,7.77746 0,7.09523 -8.732589,14.46335 l -34.521016,25.78843 q 10.642843,3.13827 16.100711,3.13827 11.461523,0 16.373604,-5.45786 3.820508,4.36629 3.820508,12.00731 0,7.50456 -4.912081,11.87086 -4.912082,4.22985 -13.781117,4.22985 -5.457868,0 -12.00731,-1.36447 z"
           style="font-size:136.44670105px;line-height:1;fill:url(#linearGradient925);fill-opacity:1;stroke:url(#linearGradient917);stroke-width:22.38038445;stroke-miterlimit:4;stroke-dasharray:none;stroke-opacity:1"
           id="path212" />
        <path
           d="m 106.80634,270.93948 q -3.13827,-3.54761 -4.63919,-9.14193 -1.36447,-5.59431 -1.36447,-14.73624 0,-9.14193 3.13828,-17.46518 3.13827,-8.32325 8.86903,-14.3269 11.73442,-12.5531 31.10985,-12.5531 6.95878,0 12.00731,2.3196 l 23.33239,-2.3196 -10.09706,53.21421 q -0.40934,1.63736 -0.40934,4.63919 0,3.00183 1.77381,4.91208 1.91025,1.91026 4.63919,2.18315 -1.36447,4.63919 -6.413,7.36812 -4.91208,2.72894 -10.50639,2.72894 -5.59432,0 -9.41483,-2.18315 -3.68406,-2.0467 -4.77563,-5.59432 -2.18315,3.41117 -6.82234,5.59432 -4.63918,2.18315 -10.91573,2.18315 -6.1401,0 -11.18863,-1.63736 -5.04853,-1.63736 -8.32325,-5.18498 z m 28.79025,-55.39736 q -1.50091,2.45604 -2.86538,6.68589 -1.36446,4.0934 -3.68406,15.28203 -2.18315,11.05218 -2.18315,18.96609 0,7.91391 1.22802,10.2335 1.22803,2.3196 3.41117,2.3196 4.3663,0 7.50457,-4.0934 3.27472,-4.22985 4.50274,-11.59797 l 7.23168,-39.97889 q -2.86538,-2.45604 -6.27655,-2.45604 -3.27472,0 -5.32142,1.09158 -1.91026,1.09157 -3.54762,3.54761 z"
           style="font-size:136.44670105px;line-height:1;fill:url(#linearGradient925);fill-opacity:1;stroke:url(#linearGradient917);stroke-width:22.38038445;stroke-miterlimit:4;stroke-dasharray:none;stroke-opacity:1"
           id="path214" />
      </g>
      <g
         aria-label="Ministerio por Misioneros"
         transform="scale(0.94110509,1.0625806)"
         style="font-style:normal;font-variant:normal;font-weight:normal;font-stretch:normal;font-size:84.51074219px;line-height:1.25;font-family:'Sansita One';-inkscape-font-specification:'Sansita One';letter-spacing:0px;word-spacing:0px;fill:#fff186;fill-opacity:1;stroke:#feb300;stroke-width:1.72496724;stroke-miterlimit:4;stroke-dasharray:none;stroke-opacity:1"
         id="text929">
        <path
           d="m -536.9975,360.54456 15.29644,-55.77709 h 17.66275 l 3.88749,31.86055 15.719,-31.86055 h 14.78938 l 1.52119,41.7483 q 0.33804,8.28206 4.39456,10.81738 -0.92962,1.69021 -3.63396,3.29592 -2.70435,1.6057 -6.33831,1.6057 -3.54945,0 -5.66222,-1.01413 -2.11277,-1.01413 -3.29592,-2.70434 -2.11277,-3.04239 -2.11277,-8.87363 v -26.11382 l -16.64861,37.01571 h -10.47933 l -5.91576,-37.94533 -9.4652,37.94533 z"
           style="fill:#fff186;fill-opacity:1;stroke:#feb300;stroke-width:1.72496724;stroke-miterlimit:4;stroke-dasharray:none;stroke-opacity:1"
           id="path129" />
        <path
           d="m -439.73753,355.89646 q -2.61983,6.33831 -10.98639,6.33831 -4.31005,0 -7.01439,-2.95788 -2.28179,-2.61983 -2.28179,-5.23966 0,-6.84537 3.12689,-20.19807 l 3.1269,-16.39508 17.15568,-1.69022 -5.15515,26.7054 q -1.43669,6.25379 -1.43669,8.45107 0,4.81711 3.46494,4.98613 z m -12.50759,-50.19938 q 0,-3.29591 2.70435,-5.07064 2.78885,-1.77473 6.76086,-1.77473 3.972,0 6.3383,1.77473 2.45081,1.77473 2.45081,5.07064 0,3.29592 -2.70434,4.98614 -2.61983,1.69021 -6.59184,1.69021 -3.972,0 -6.50732,-1.69021 -2.45082,-1.69022 -2.45082,-4.98614 z"
           style="fill:#fff186;fill-opacity:1;stroke:#feb300;stroke-width:1.72496724;stroke-miterlimit:4;stroke-dasharray:none;stroke-opacity:1"
           id="path131" />
        <path
           d="m -396.8721,362.23477 q -10.2258,0 -10.2258,-7.94401 0.0845,-2.19728 0.7606,-5.91575 l 1.52119,-7.77499 q 2.28179,-10.9864 2.28179,-13.43721 0,-4.90162 -2.87336,-4.90162 -4.81711,0 -7.35244,12.5921 l -4.98613,25.69127 -16.98666,1.69021 8.78912,-44.8752 13.85976,-1.60571 -1.35217,8.28206 q 3.972,-8.28206 16.14155,-8.28206 5.91575,0 8.36656,2.53532 2.53532,2.45082 2.53532,8.02853 0,5.23966 -2.70434,17.49372 -1.26766,5.4932 -1.26766,7.60597 0,2.02825 1.09864,3.2114 1.18315,1.18315 2.87336,1.35218 -0.8451,2.87336 -3.80298,4.56358 -2.87336,1.69021 -6.67635,1.69021 z"
           style="fill:#fff186;fill-opacity:1;stroke:#feb300;stroke-width:1.72496724;stroke-miterlimit:4;stroke-dasharray:none;stroke-opacity:1"
           id="path133" />
        <path
           d="m -359.35328,355.89646 q -2.61983,6.33831 -10.9864,6.33831 -4.31004,0 -7.01439,-2.95788 -2.28179,-2.61983 -2.28179,-5.23966 0,-6.84537 3.1269,-20.19807 l 3.1269,-16.39508 17.15568,-1.69022 -5.15516,26.7054 q -1.43668,6.25379 -1.43668,8.45107 0,4.81711 3.46494,4.98613 z m -12.50759,-50.19938 q 0,-3.29591 2.70434,-5.07064 2.78886,-1.77473 6.76086,-1.77473 3.97201,0 6.33831,1.77473 2.45081,1.77473 2.45081,5.07064 0,3.29592 -2.70434,4.98614 -2.61984,1.69021 -6.59184,1.69021 -3.97201,0 -6.50733,-1.69021 -2.45081,-1.69022 -2.45081,-4.98614 z"
           style="fill:#fff186;fill-opacity:1;stroke:#feb300;stroke-width:1.72496724;stroke-miterlimit:4;stroke-dasharray:none;stroke-opacity:1"
           id="path135" />
        <path
           d="m -326.96718,330.88129 q 1.18315,-3.1269 1.18315,-5.83125 0,-4.98613 -4.05652,-4.98613 -2.11277,0 -3.88749,1.94375 -1.69022,1.85923 -1.69022,4.22553 0,1.69022 1.35218,3.04239 1.94374,1.85924 6.92988,4.90162 4.98613,3.04239 6.84537,5.57771 1.94374,2.45081 1.94374,5.91576 0,3.38042 -1.69021,6.50732 -1.60571,3.1269 -4.56358,5.32418 -6.33831,4.7326 -16.4796,4.7326 -5.49319,0 -9.71873,-2.87336 -4.22554,-2.78886 -4.22554,-6.08478 0,-3.29592 2.3663,-5.23966 2.45081,-1.94375 6.00026,-1.94375 3.54946,0 5.74674,1.35217 -1.09864,2.78886 -1.09864,4.64809 0,5.57771 4.7326,5.57771 2.02825,0 3.38043,-1.26766 1.35217,-1.26766 1.35217,-3.46494 0,-4.31005 -7.26793,-8.87363 -5.91575,-3.88749 -7.26792,-5.40869 -2.28179,-2.70434 -2.28179,-6.08477 0,-3.38043 1.60571,-6.59184 1.6057,-3.21141 4.56358,-5.4932 6.16928,-4.7326 16.90214,-4.7326 5.4932,0 8.70461,2.19728 3.29592,2.19728 3.29592,5.91575 0,3.71848 -2.28179,5.83124 -2.19728,2.11277 -6.2538,2.11277 -2.78885,0 -4.14102,-0.92961 z"
           style="fill:#fff186;fill-opacity:1;stroke:#feb300;stroke-width:1.72496724;stroke-miterlimit:4;stroke-dasharray:none;stroke-opacity:1"
           id="path137" />
        <path
           d="m -309.78378,352.09348 q 0,-2.28179 1.18315,-8.02852 l 4.47907,-22.8179 h -4.98613 l 0.33804,-2.53532 q 10.14129,-3.04239 19.94454,-10.47933 h 4.05651 l -2.02826,9.21167 h 6.59184 l -0.76059,3.80298 h -6.50733 l -4.31005,22.8179 q -1.09864,5.23967 -1.09864,7.01439 0,4.05652 3.54945,4.90163 -0.84511,2.87336 -3.88749,4.56358 -3.04239,1.69021 -7.35244,1.69021 -4.31004,0 -6.76086,-2.70434 -2.45081,-2.70435 -2.45081,-7.43695 z"
           style="fill:#fff186;fill-opacity:1;stroke:#feb300;stroke-width:1.72496724;stroke-miterlimit:4;stroke-dasharray:none;stroke-opacity:1"
           id="path139" />
        <path
           d="m -246.7031,346.26224 q 2.11276,1.43668 2.11276,4.64809 0,3.1269 -1.6057,5.15516 -1.6057,2.02825 -4.22554,3.38043 -5.40869,2.78885 -11.23993,2.78885 -5.83124,0 -9.29618,-1.26766 -3.38043,-1.26766 -5.66222,-3.63396 -4.47907,-4.47907 -4.47907,-12.67661 0,-12.76113 6.92988,-20.53611 7.43695,-8.36657 20.36709,-8.36657 8.02852,0 12.00053,3.38043 2.95787,2.53532 2.95787,6.67635 0,14.87389 -25.69126,14.87389 -0.33804,2.19728 -0.33804,4.05652 0,3.88749 1.69021,5.40868 1.77473,1.43669 4.98613,1.43669 3.21141,0 6.59184,-1.43669 3.46494,-1.52119 4.90163,-3.88749 z m -17.2402,-9.21167 q 6.00027,0 9.46521,-3.71847 3.46494,-3.54945 3.46494,-9.21167 0,-1.94375 -0.7606,-2.95788 -0.67609,-1.09864 -2.11277,-1.09864 -1.43668,0 -2.70434,0.59158 -1.18315,0.50706 -2.45081,2.3663 -3.1269,4.22553 -4.90163,14.02878 z"
           style="fill:#fff186;fill-opacity:1;stroke:#feb300;stroke-width:1.72496724;stroke-miterlimit:4;stroke-dasharray:none;stroke-opacity:1"
           id="path141" />
        <path
           d="m -209.58176,336.79704 q 3.04239,-5.40869 3.04239,-10.90189 0,-3.63396 -2.61984,-3.63396 -2.02826,0 -4.14102,3.46494 -2.19728,3.46494 -2.87337,7.94401 l -4.39456,26.87442 -17.49372,1.69021 8.62009,-44.79069 13.94428,-1.69022 -1.5212,8.53559 q 4.14103,-8.53559 13.43721,-8.53559 4.90162,0 7.52146,2.53532 2.70434,2.53533 2.70434,7.77499 0,5.15516 -3.46494,8.45108 -3.38043,3.29592 -9.21167,3.29592 -2.53532,0 -3.54945,-1.01413 z"
           style="fill:#fff186;fill-opacity:1;stroke:#feb300;stroke-width:1.72496724;stroke-miterlimit:4;stroke-dasharray:none;stroke-opacity:1"
           id="path143" />
        <path
           d="m -171.68,355.89646 q -2.61983,6.33831 -10.9864,6.33831 -4.31005,0 -7.01439,-2.95788 -2.28179,-2.61983 -2.28179,-5.23966 0,-6.84537 3.1269,-20.19807 l 3.1269,-16.39508 17.15568,-1.69022 -5.15516,26.7054 q -1.43668,6.25379 -1.43668,8.45107 0,4.81711 3.46494,4.98613 z m -12.50759,-50.19938 q 0,-3.29591 2.70434,-5.07064 2.78886,-1.77473 6.76086,-1.77473 3.97201,0 6.33831,1.77473 2.45081,1.77473 2.45081,5.07064 0,3.29592 -2.70434,4.98614 -2.61984,1.69021 -6.59184,1.69021 -3.97201,0 -6.50733,-1.69021 -2.45081,-1.69022 -2.45081,-4.98614 z"
           style="fill:#fff186;fill-opacity:1;stroke:#feb300;stroke-width:1.72496724;stroke-miterlimit:4;stroke-dasharray:none;stroke-opacity:1"
           id="path145" />
        <path
           d="m -146.13927,362.23477 q -18.59237,0 -18.59237,-17.49372 0,-12.42308 6.84537,-20.4516 7.26793,-8.53559 19.86003,-8.53559 9.12716,0 13.77525,4.22554 4.64809,4.22554 4.64809,13.09916 0,13.52172 -7.26792,21.38122 -7.09891,7.77499 -19.26845,7.77499 z m 2.19728,-36.76217 q -1.01413,2.28179 -1.85924,5.74673 -0.7606,3.38043 -1.77473,8.78912 -1.01413,5.40868 -1.01413,12.08503 0,2.19728 0.67609,3.63396 0.7606,1.43669 2.70434,1.43669 1.94375,0 3.1269,-0.92962 1.26766,-0.92962 2.19728,-3.1269 1.69022,-3.88749 3.04239,-11.07091 1.35217,-7.26792 1.43668,-10.39482 0.16902,-3.1269 0.16902,-5.40869 0,-2.3663 -0.67608,-3.88749 -0.67609,-1.52119 -2.61984,-1.52119 -1.85923,0 -3.12689,1.18315 -1.26767,1.18315 -2.28179,3.46494 z"
           style="fill:#fff186;fill-opacity:1;stroke:#feb300;stroke-width:1.72496724;stroke-miterlimit:4;stroke-dasharray:none;stroke-opacity:1"
           id="path147" />
        <path
           d="m -57.836127,354.79783 q -3.549451,3.54945 -8.451074,5.49319 -4.817113,1.94375 -9.634225,1.94375 -4.817112,0 -6.507327,-0.84511 l -2.619833,14.36683 -17.155684,1.69021 11.662486,-60.00262 13.775251,-1.43669 -1.09864,5.83125 q 3.549451,-6.00027 10.901886,-6.00027 8.282052,0 12.676611,5.32418 3.887494,4.81711 3.887494,12.16955 0,7.35243 -1.943747,12.5921 -1.943747,5.23966 -5.493198,8.87363 z m -23.578497,1.01412 q 1.774725,1.5212 3.972005,1.5212 2.197279,0 3.46494,-0.84511 1.267661,-0.84511 2.197279,-2.53532 2.535323,-4.56358 4.56358,-18.42334 0.591576,-4.05652 0.591576,-8.02852 0,-3.97201 -0.929619,-5.23967 -0.845107,-1.26766 -2.535322,-1.26766 -5.155155,0 -6.84537,10.05678 z"
           style="fill:#fff186;fill-opacity:1;stroke:#feb300;stroke-width:1.72496724;stroke-miterlimit:4;stroke-dasharray:none;stroke-opacity:1"
           id="path149" />
        <path
           d="m -26.965934,362.23477 q -18.592363,0 -18.592363,-17.49372 0,-12.42308 6.84537,-20.4516 7.267924,-8.53559 19.860024,-8.53559 9.1271606,0 13.7752514,4.22554 4.64809081,4.22554 4.64809081,13.09916 0,13.52172 -7.26792381,21.38122 -7.0989024,7.77499 -19.2684494,7.77499 z m 2.197279,-36.76217 q -1.014128,2.28179 -1.859236,5.74673 -0.760597,3.38043 -1.774725,8.78912 -1.014129,5.40868 -1.014129,12.08503 0,2.19728 0.676086,3.63396 0.760596,1.43669 2.704343,1.43669 1.943747,0 3.126898,-0.92962 1.267661,-0.92962 2.197279,-3.1269 1.690215,-3.88749 3.042387,-11.07091 1.352172,-7.26792 1.436682,-10.39482 0.169022,-3.1269 0.169022,-5.40869 0,-2.3663 -0.676086,-3.88749 -0.676086,-1.52119 -2.619833,-1.52119 -1.859236,0 -3.126898,1.18315 -1.267661,1.18315 -2.28179,3.46494 z"
           style="fill:#fff186;fill-opacity:1;stroke:#feb300;stroke-width:1.72496724;stroke-miterlimit:4;stroke-dasharray:none;stroke-opacity:1"
           id="path151" />
        <path
           d="m 31.075801,336.79704 q 3.042386,-5.40869 3.042386,-10.90189 0,-3.63396 -2.619833,-3.63396 -2.028257,0 -4.141026,3.46494 -2.197279,3.46494 -2.873365,7.94401 l -4.394559,26.87442 -17.4937233,1.69021 8.6200953,-44.79069 13.944273,-1.69022 -1.521194,8.53559 q 4.141027,-8.53559 13.437208,-8.53559 4.901624,0 7.521457,2.53532 2.704343,2.53533 2.704343,7.77499 0,5.15516 -3.46494,8.45108 -3.38043,3.29592 -9.211671,3.29592 -2.535322,0 -3.549451,-1.01413 z"
           style="fill:#fff186;fill-opacity:1;stroke:#feb300;stroke-width:1.72496724;stroke-miterlimit:4;stroke-dasharray:none;stroke-opacity:1"
           id="path153" />
        <path
           d="m 63.490899,360.54456 15.296444,-55.77709 h 17.662745 l 3.887492,31.86055 15.719,-31.86055 h 14.78938 l 1.52119,41.7483 q 0.33805,8.28206 4.39456,10.81738 -0.92962,1.69021 -3.63396,3.29592 -2.70434,1.6057 -6.33831,1.6057 -3.54945,0 -5.66221,-1.01413 -2.11277,-1.01413 -3.29592,-2.70434 -2.11277,-3.04239 -2.11277,-8.87363 V 323.52885 L 99.069921,360.54456 H 88.590589 l -5.915752,-37.94533 -9.465203,37.94533 z"
           style="fill:#fff186;fill-opacity:1;stroke:#feb300;stroke-width:1.72496724;stroke-miterlimit:4;stroke-dasharray:none;stroke-opacity:1"
           id="path155" />
        <path
           d="m 160.75088,355.89646 q -2.61984,6.33831 -10.9864,6.33831 -4.31005,0 -7.01439,-2.95788 -2.28179,-2.61983 -2.28179,-5.23966 0,-6.84537 3.1269,-20.19807 l 3.12689,-16.39508 17.15568,-1.69022 -5.15515,26.7054 q -1.43668,6.25379 -1.43668,8.45107 0,4.81711 3.46494,4.98613 z m -12.50759,-50.19938 q 0,-3.29591 2.70434,-5.07064 2.78886,-1.77473 6.76086,-1.77473 3.97201,0 6.33831,1.77473 2.45081,1.77473 2.45081,5.07064 0,3.29592 -2.70435,4.98614 -2.61983,1.69021 -6.59183,1.69021 -3.97201,0 -6.50733,-1.69021 -2.45081,-1.69022 -2.45081,-4.98614 z"
           style="fill:#fff186;fill-opacity:1;stroke:#feb300;stroke-width:1.72496724;stroke-miterlimit:4;stroke-dasharray:none;stroke-opacity:1"
           id="path157" />
        <path
           d="m 193.13704,330.88129 q 1.18315,-3.1269 1.18315,-5.83125 0,-4.98613 -4.05652,-4.98613 -2.11277,0 -3.88749,1.94375 -1.69022,1.85923 -1.69022,4.22553 0,1.69022 1.35217,3.04239 1.94375,1.85924 6.92988,4.90162 4.98614,3.04239 6.84537,5.57771 1.94375,2.45081 1.94375,5.91576 0,3.38042 -1.69021,6.50732 -1.60571,3.1269 -4.56358,5.32418 -6.33831,4.7326 -16.4796,4.7326 -5.4932,0 -9.71873,-2.87336 -4.22554,-2.78886 -4.22554,-6.08478 0,-3.29592 2.3663,-5.23966 2.45081,-1.94375 6.00026,-1.94375 3.54945,0 5.74673,1.35217 -1.09864,2.78886 -1.09864,4.64809 0,5.57771 4.7326,5.57771 2.02826,0 3.38043,-1.26766 1.35218,-1.26766 1.35218,-3.46494 0,-4.31005 -7.26793,-8.87363 -5.91575,-3.88749 -7.26792,-5.40869 -2.28179,-2.70434 -2.28179,-6.08477 0,-3.38043 1.6057,-6.59184 1.60571,-3.21141 4.56358,-5.4932 6.16929,-4.7326 16.90215,-4.7326 5.4932,0 8.70461,2.19728 3.29592,2.19728 3.29592,5.91575 0,3.71848 -2.28179,5.83124 -2.19728,2.11277 -6.2538,2.11277 -2.78885,0 -4.14102,-0.92961 z"
           style="fill:#fff186;fill-opacity:1;stroke:#feb300;stroke-width:1.72496724;stroke-miterlimit:4;stroke-dasharray:none;stroke-opacity:1"
           id="path159" />
        <path
           d="m 229.25082,355.89646 q -2.61984,6.33831 -10.9864,6.33831 -4.31005,0 -7.01439,-2.95788 -2.28179,-2.61983 -2.28179,-5.23966 0,-6.84537 3.1269,-20.19807 l 3.12689,-16.39508 17.15568,-1.69022 -5.15515,26.7054 q -1.43668,6.25379 -1.43668,8.45107 0,4.81711 3.46494,4.98613 z m -12.50759,-50.19938 q 0,-3.29591 2.70434,-5.07064 2.78885,-1.77473 6.76086,-1.77473 3.972,0 6.3383,1.77473 2.45082,1.77473 2.45082,5.07064 0,3.29592 -2.70435,4.98614 -2.61983,1.69021 -6.59184,1.69021 -3.972,0 -6.50732,-1.69021 -2.45081,-1.69022 -2.45081,-4.98614 z"
           style="fill:#fff186;fill-opacity:1;stroke:#feb300;stroke-width:1.72496724;stroke-miterlimit:4;stroke-dasharray:none;stroke-opacity:1"
           id="path161" />
        <path
           d="m 254.79154,362.23477 q -18.59236,0 -18.59236,-17.49372 0,-12.42308 6.84537,-20.4516 7.26792,-8.53559 19.86002,-8.53559 9.12716,0 13.77526,4.22554 4.64809,4.22554 4.64809,13.09916 0,13.52172 -7.26793,21.38122 -7.0989,7.77499 -19.26845,7.77499 z m 2.19728,-36.76217 q -1.01413,2.28179 -1.85923,5.74673 -0.7606,3.38043 -1.77473,8.78912 -1.01413,5.40868 -1.01413,12.08503 0,2.19728 0.67609,3.63396 0.76059,1.43669 2.70434,1.43669 1.94375,0 3.1269,-0.92962 1.26766,-0.92962 2.19728,-3.1269 1.69021,-3.88749 3.04238,-11.07091 1.35218,-7.26792 1.43669,-10.39482 0.16902,-3.1269 0.16902,-5.40869 0,-2.3663 -0.67609,-3.88749 -0.67608,-1.52119 -2.61983,-1.52119 -1.85924,0 -3.1269,1.18315 -1.26766,1.18315 -2.28179,3.46494 z"
           style="fill:#fff186;fill-opacity:1;stroke:#feb300;stroke-width:1.72496724;stroke-miterlimit:4;stroke-dasharray:none;stroke-opacity:1"
           id="path163" />
        <path
           d="m 322.12943,362.23477 q -10.2258,0 -10.2258,-7.94401 0.0845,-2.19728 0.7606,-5.91575 l 1.52119,-7.77499 q 2.28179,-10.9864 2.28179,-13.43721 0,-4.90162 -2.87337,-4.90162 -4.81711,0 -7.35243,12.5921 l -4.98613,25.69127 -16.98666,1.69021 8.78911,-44.8752 13.85977,-1.60571 -1.35218,8.28206 q 3.97201,-8.28206 16.14155,-8.28206 5.91576,0 8.36657,2.53532 2.53532,2.45082 2.53532,8.02853 0,5.23966 -2.70434,17.49372 -1.26766,5.4932 -1.26766,7.60597 0,2.02825 1.09864,3.2114 1.18315,1.18315 2.87336,1.35218 -0.84511,2.87336 -3.80298,4.56358 -2.87337,1.69021 -6.67635,1.69021 z"
           style="fill:#fff186;fill-opacity:1;stroke:#feb300;stroke-width:1.72496724;stroke-miterlimit:4;stroke-dasharray:none;stroke-opacity:1"
           id="path165" />
        <path
           d="m 373.59255,346.26224 q 2.11277,1.43668 2.11277,4.64809 0,3.1269 -1.60571,5.15516 -1.6057,2.02825 -4.22553,3.38043 -5.40869,2.78885 -11.23993,2.78885 -5.83124,0 -9.29618,-1.26766 -3.38043,-1.26766 -5.66222,-3.63396 -4.47907,-4.47907 -4.47907,-12.67661 0,-12.76113 6.92988,-20.53611 7.43694,-8.36657 20.36709,-8.36657 8.02852,0 12.00052,3.38043 2.95788,2.53532 2.95788,6.67635 0,14.87389 -25.69127,14.87389 -0.33804,2.19728 -0.33804,4.05652 0,3.88749 1.69021,5.40868 1.77473,1.43669 4.98614,1.43669 3.21141,0 6.59184,-1.43669 3.46494,-1.52119 4.90162,-3.88749 z m -17.24019,-9.21167 q 6.00026,0 9.4652,-3.71847 3.46494,-3.54945 3.46494,-9.21167 0,-1.94375 -0.7606,-2.95788 -0.67608,-1.09864 -2.11276,-1.09864 -1.43669,0 -2.70435,0.59158 -1.18315,0.50706 -2.45081,2.3663 -3.1269,4.22553 -4.90162,14.02878 z"
           style="fill:#fff186;fill-opacity:1;stroke:#feb300;stroke-width:1.72496724;stroke-miterlimit:4;stroke-dasharray:none;stroke-opacity:1"
           id="path167" />
        <path
           d="m 410.71386,336.79704 q 3.04239,-5.40869 3.04239,-10.90189 0,-3.63396 -2.61983,-3.63396 -2.02826,0 -4.14103,3.46494 -2.19728,3.46494 -2.87337,7.94401 l -4.39455,26.87442 -17.49373,1.69021 8.6201,-44.79069 13.94427,-1.69022 -1.52119,8.53559 q 4.14102,-8.53559 13.43721,-8.53559 4.90162,0 7.52145,2.53532 2.70434,2.53533 2.70434,7.77499 0,5.15516 -3.46494,8.45108 -3.38043,3.29592 -9.21167,3.29592 -2.53532,0 -3.54945,-1.01413 z"
           style="fill:#fff186;fill-opacity:1;stroke:#feb300;stroke-width:1.72496724;stroke-miterlimit:4;stroke-dasharray:none;stroke-opacity:1"
           id="path169" />
        <path
           d="m 446.75639,362.23477 q -18.59237,0 -18.59237,-17.49372 0,-12.42308 6.84537,-20.4516 7.26793,-8.53559 19.86003,-8.53559 9.12716,0 13.77525,4.22554 4.64809,4.22554 4.64809,13.09916 0,13.52172 -7.26792,21.38122 -7.09891,7.77499 -19.26845,7.77499 z m 2.19728,-36.76217 q -1.01413,2.28179 -1.85924,5.74673 -0.7606,3.38043 -1.77473,8.78912 -1.01412,5.40868 -1.01412,12.08503 0,2.19728 0.67608,3.63396 0.7606,1.43669 2.70434,1.43669 1.94375,0 3.1269,-0.92962 1.26766,-0.92962 2.19728,-3.1269 1.69022,-3.88749 3.04239,-11.07091 1.35217,-7.26792 1.43668,-10.39482 0.16902,-3.1269 0.16902,-5.40869 0,-2.3663 -0.67608,-3.88749 -0.67609,-1.52119 -2.61984,-1.52119 -1.85923,0 -3.12689,1.18315 -1.26767,1.18315 -2.28179,3.46494 z"
           style="fill:#fff186;fill-opacity:1;stroke:#feb300;stroke-width:1.72496724;stroke-miterlimit:4;stroke-dasharray:none;stroke-opacity:1"
           id="path171" />
        <path
           d="m 503.61494,330.88129 q 1.18315,-3.1269 1.18315,-5.83125 0,-4.98613 -4.05651,-4.98613 -2.11277,0 -3.8875,1.94375 -1.69021,1.85923 -1.69021,4.22553 0,1.69022 1.35217,3.04239 1.94375,1.85924 6.92988,4.90162 4.98613,3.04239 6.84537,5.57771 1.94375,2.45081 1.94375,5.91576 0,3.38042 -1.69022,6.50732 -1.6057,3.1269 -4.56358,5.32418 -6.3383,4.7326 -16.47959,4.7326 -5.4932,0 -9.71874,-2.87336 -4.22554,-2.78886 -4.22554,-6.08478 0,-3.29592 2.3663,-5.23966 2.45082,-1.94375 6.00027,-1.94375 3.54945,0 5.74673,1.35217 -1.09864,2.78886 -1.09864,4.64809 0,5.57771 4.7326,5.57771 2.02826,0 3.38043,-1.26766 1.35217,-1.26766 1.35217,-3.46494 0,-4.31005 -7.26792,-8.87363 -5.91575,-3.88749 -7.26793,-5.40869 -2.28179,-2.70434 -2.28179,-6.08477 0,-3.38043 1.60571,-6.59184 1.6057,-3.21141 4.56358,-5.4932 6.16928,-4.7326 16.90215,-4.7326 5.49319,0 8.7046,2.19728 3.29592,2.19728 3.29592,5.91575 0,3.71848 -2.28179,5.83124 -2.19728,2.11277 -6.25379,2.11277 -2.78886,0 -4.14103,-0.92961 z"
           style="fill:#fff186;fill-opacity:1;stroke:#feb300;stroke-width:1.72496724;stroke-miterlimit:4;stroke-dasharray:none;stroke-opacity:1"
           id="path173" />
      </g>
    </g>
  </g>
</svg>
