<?xml version="1.0" encoding="UTF-8" standalone="no"?>
<!-- Created with Inkscape (http://www.inkscape.org/) -->

<svg
   xmlns:dc="http://purl.org/dc/elements/1.1/"
   xmlns:cc="http://creativecommons.org/ns#"
   xmlns:rdf="http://www.w3.org/1999/02/22-rdf-syntax-ns#"
   xmlns:svg="http://www.w3.org/2000/svg"
   xmlns="http://www.w3.org/2000/svg"
   xmlns:xlink="http://www.w3.org/1999/xlink"
   xmlns:sodipodi="http://sodipodi.sourceforge.net/DTD/sodipodi-0.dtd"
   xmlns:inkscape="http://www.inkscape.org/namespaces/inkscape"
   width="570.4693mm"
   height="118.24531mm"
   viewBox="0 0 570.4693 118.2453"
   version="1.1"
   id="svg8"
   inkscape:version="0.92.4 (5da689c313, 2019-01-14)"
   sodipodi:docname="logo.es.largo.paths.svg">
  <defs
     id="defs2">
    <linearGradient
       inkscape:collect="always"
       id="linearGradient4854">
      <stop
         style="stop-color:#fff185;stop-opacity:1"
         offset="0"
         id="stop4850" />
      <stop
         style="stop-color:#ffffff;stop-opacity:1"
         offset="1"
         id="stop4852" />
    </linearGradient>
    <linearGradient
       inkscape:collect="always"
       id="linearGradient4815">
      <stop
         style="stop-color:#ffffdd;stop-opacity:0.90697676"
         offset="0"
         id="stop4811" />
      <stop
         style="stop-color:#ffa100;stop-opacity:1"
         offset="1"
         id="stop4813" />
    </linearGradient>
    <linearGradient
       id="linearGradient4595-3"
       inkscape:collect="always">
      <stop
         id="stop4591"
         offset="0"
         style="stop-color:#ffffdd;stop-opacity:0.90697676" />
      <stop
         id="stop4593"
         offset="1"
         style="stop-color:#c1a100;stop-opacity:1" />
    </linearGradient>
    <linearGradient
       inkscape:collect="always"
       id="linearGradient4493-3">
      <stop
         style="stop-color:#9e5700;stop-opacity:1"
         offset="0"
         id="stop4489" />
      <stop
         style="stop-color:#f5c700;stop-opacity:1"
         offset="1"
         id="stop4491" />
    </linearGradient>
    <linearGradient
       inkscape:collect="always"
       xlink:href="#linearGradient4493-3"
       id="linearGradient4495"
       x1="16.636105"
       y1="79.516586"
       x2="185.65324"
       y2="79.516586"
       gradientUnits="userSpaceOnUse"
       gradientTransform="matrix(2.612677,0,0,2.612677,-595.84114,-70.251881)" />
    <linearGradient
       inkscape:collect="always"
       xlink:href="#linearGradient4595-3"
       id="linearGradient4574"
       x1="2.0552444"
       y1="85.982872"
       x2="186.99261"
       y2="85.982872"
       gradientUnits="userSpaceOnUse" />
    <linearGradient
       inkscape:collect="always"
       xlink:href="#linearGradient4815"
       id="linearGradient4809"
       gradientUnits="userSpaceOnUse"
       x1="2.0552444"
       y1="85.982872"
       x2="704.19073"
       y2="372.86621" />
    <filter
       inkscape:collect="always"
       style="color-interpolation-filters:sRGB"
       id="filter4833"
       x="-0.021865444"
       width="1.0437309"
       y="-0.026596405"
       height="1.0531929">
      <feGaussianBlur
         inkscape:collect="always"
         stdDeviation="1.6848907"
         id="feGaussianBlur4835" />
    </filter>
    <linearGradient
       inkscape:collect="always"
       xlink:href="#linearGradient4854"
       id="linearGradient4843"
       x1="-553.8764"
       y1="137.49928"
       x2="-109.2892"
       y2="137.49928"
       gradientUnits="userSpaceOnUse" />
    <linearGradient
       inkscape:collect="always"
       xlink:href="#linearGradient4493-3"
       id="linearGradient4592"
       gradientUnits="userSpaceOnUse"
       gradientTransform="matrix(2.612677,0,0,2.612677,-595.84114,-70.251881)"
       x1="16.636105"
       y1="79.516586"
       x2="185.65324"
       y2="79.516586" />
    <linearGradient
       inkscape:collect="always"
       xlink:href="#linearGradient4854"
       id="linearGradient4594"
       gradientUnits="userSpaceOnUse"
       x1="-553.8764"
       y1="137.49928"
       x2="-109.2892"
       y2="137.49928" />
    <linearGradient
       inkscape:collect="always"
       xlink:href="#linearGradient4854"
       id="linearGradient917"
       x1="-472.45868"
       y1="318.22693"
       x2="144.21381"
       y2="318.22693"
       gradientUnits="userSpaceOnUse"
       gradientTransform="translate(-45.585607,-246.53438)" />
    <linearGradient
       inkscape:collect="always"
       xlink:href="#linearGradient4493-3"
       id="linearGradient925"
       x1="-472.45868"
       y1="318.22693"
       x2="144.21381"
       y2="318.22693"
       gradientUnits="userSpaceOnUse"
       gradientTransform="translate(-45.585607,-246.53438)" />
    <linearGradient
       inkscape:collect="always"
       xlink:href="#linearGradient4493-3"
       id="linearGradient67"
       gradientUnits="userSpaceOnUse"
       gradientTransform="translate(-45.585607,-246.53438)"
       x1="-472.45868"
       y1="318.22693"
       x2="144.21381"
       y2="318.22693" />
    <linearGradient
       inkscape:collect="always"
       xlink:href="#linearGradient4854"
       id="linearGradient69"
       gradientUnits="userSpaceOnUse"
       gradientTransform="translate(-45.585607,-246.53438)"
       x1="-472.45868"
       y1="318.22693"
       x2="144.21381"
       y2="318.22693" />
  </defs>
  <sodipodi:namedview
     id="base"
     pagecolor="#ffffff"
     bordercolor="#666666"
     borderopacity="1.0"
     inkscape:pageopacity="0.0"
     inkscape:pageshadow="2"
     inkscape:zoom="0.35355339"
     inkscape:cx="1555.8024"
     inkscape:cy="142.53825"
     inkscape:document-units="mm"
     inkscape:current-layer="text78"
     showgrid="false"
     fit-margin-top="0"
     fit-margin-left="0"
     fit-margin-right="0"
     fit-margin-bottom="0"
     inkscape:window-width="1366"
     inkscape:window-height="705"
     inkscape:window-x="-8"
     inkscape:window-y="-8"
     inkscape:window-maximized="1" />
  <metadata
     id="metadata5">
    <rdf:RDF>
      <cc:Work
         rdf:about="">
        <dc:format>image/svg+xml</dc:format>
        <dc:type
           rdf:resource="http://purl.org/dc/dcmitype/StillImage" />
        <dc:title></dc:title>
      </cc:Work>
    </rdf:RDF>
  </metadata>
  <g
     inkscape:label="Layer 1"
     inkscape:groupmode="layer"
     id="layer1"
     transform="translate(558.60093,-125.31379)">
    <g
       id="g4590"
       transform="matrix(0.28440083,0,0,0.28440083,-411.12194,139.78198)">
      <g
         id="g65">
        <g
           transform="matrix(2.4885653,0,0,2.4285122,1292.9818,-109.47748)"
           id="g115">
          <g
             style="fill:#e59e00;fill-opacity:1;filter:url(#filter4833)"
             transform="translate(-127.04967,18.213277)"
             inkscape:label="Layer 1"
             id="layer1-6-3">
            <g
               id="g108">
              <path
                 id="path4496-6"
                 transform="scale(0.26458333)"
                 d="M 9.4179688,37.65625 C 6.92471,37.868624 7.0778433,50.4305 11.113281,72.876953 20.358307,124.30086 89.800704,232.17557 135.64258,266.32617 c 17.02383,12.68217 22.57198,18.60387 45.02344,48.05078 24.16072,31.68879 52.46361,61.62387 77.98632,82.48243 22.47179,18.36514 26.675,24.51068 23.1211,33.8164 -2.02842,5.31137 -4.0803,7.27535 -41.2461,39.47852 -35.29421,30.58148 -37.07142,33.07646 -31.41992,44.15429 3.3626,6.59127 18.16319,17.06534 24.11914,17.06836 2.75465,0.001 2.80992,1.03113 0.3418,6.33203 -8.10042,17.3977 3.81091,28.56835 23.82422,22.3418 5.04406,-1.5693 5.33678,-1.34408 3.73047,2.88086 -7.60224,19.99536 13.04636,29.65278 30.54687,14.28711 3.22895,-2.83506 3.22959,-2.8349 3.64844,5.92578 1.18385,24.76108 17.5455,28.27769 43.24414,9.29297 6.7693,-5.00077 6.19725,-5.09159 7.52344,1.18945 1.57218,7.44613 5.73085,15.50598 8.88476,17.21875 8.39521,4.55898 18.52531,-1.98376 22.7461,-14.6914 1.91917,-5.77807 1.87832,-5.77187 4.44726,-0.73633 10.85231,21.27228 34.45948,15.73194 32.68946,-7.67188 -0.56221,-7.43357 -0.56202,-7.43272 5.11328,-2.24218 16.69432,15.2683 29.788,10.72836 30.96679,-10.73633 0.44535,-8.10909 0.4461,-8.10882 5.57813,-6.15235 16.35394,6.23468 26.24136,-2.49979 25.29297,-22.34375 -0.50687,-10.60561 -0.50686,-10.60664 3.16601,-9.29492 16.71141,5.96844 25.01838,-12.88158 13.22852,-30.01758 -3.05499,-4.44026 -3.05429,-4.44065 2.65234,-6.0996 24.81366,-7.2135 28.60903,-23.03211 8.91992,-37.17579 -2.82035,-2.02597 -5.31834,-3.82696 -5.55078,-4.00195 -0.23255,-0.17495 1.39538,-1.87386 3.61914,-3.77734 7.05253,-6.03666 9.83072,-17.00128 5.42383,-21.40821 -5.4856,-5.48556 -27.92446,-8.79438 -74.12109,-10.93359 -15.5,-0.71773 -15.50068,-0.71849 -12.23438,-2.48633 3.01187,-1.62996 3.61857,-1.64894 7.78516,-0.23437 7.2731,2.46928 13.12902,1.06921 21.17578,-5.06836 3.05174,-2.3277 3.43736,-2.3959 5.5,-0.95117 5.61532,3.93312 23.77344,-2.65164 23.77344,-8.6211 0,-1.55542 0.41503,-1.86384 1.75,-1.30273 8.0307,3.37557 20.25,-2.02251 20.25,-8.94532 0,-3.10069 0.45595,-3.1478 5.5,-0.57617 7.07501,3.60703 14.502,0.9409 14.5,-5.20507 -5.7e-4,-2.13778 0.34576,-2.27149 5.05664,-1.94532 11.22901,0.77787 15.44529,-2.10395 13.06445,-8.93359 -1.40084,-4.01847 -1.42101,-4.00169 3.40821,-2.90039 8.19375,1.86857 16.33181,-2.95823 15.1289,-8.97266 -0.53219,-2.66091 -0.32825,-3.04388 1.61719,-3.04687 6.78928,-0.0114 13.14462,-7.92577 12.24219,-15.2461 -0.58557,-4.74953 -0.58523,-4.74981 2.69922,-4.75586 12.07934,-0.0205 20.07603,-7.97872 16.9707,-16.88671 -1.00948,-2.89577 -0.93914,-2.97612 4.41797,-5.1504 11.76313,-4.77431 16.39453,-10.12249 16.39453,-18.93164 0,-4.61776 0.24746,-5.16803 2.75,-6.11132 7.82971,-2.95132 12.62557,-10.77441 12.66601,-20.66407 0.0297,-7.25 0.0287,-7.25 4.58399,-7.25 8.27308,0 11.0479,-4.60492 12.54297,-20.82031 0.61489,-6.66917 0.91017,-7.42148 3.3164,-8.45117 15.93366,-6.81843 18.11732,-18.95204 5.625,-31.24609 -5.09907,-5.01813 -5.09794,-5.01899 5.07032,-4.64258 22.20676,0.82203 30.07234,-9.37037 13.48437,-17.47266 -9.3086,-4.54673 -10.47688,-5.78889 -6.40625,-6.81055 10.45792,-2.62476 37.73396,-29.91778 34.74023,-34.76171 -1.18383,-1.91551 -8.77333,-0.95712 -28.84765,3.64257 -14.17845,3.24874 -14.72109,2.2753 -3.0332,-5.43164 16.13019,-10.63619 31.13355,-28.37641 31.79882,-37.59961 0.30486,-4.22665 -5.94355,-3.54935 -24.57617,2.66407 -8.13154,2.71162 -14.97868,4.92968 -15.2168,4.92968 -0.23792,0 5.77622,-6.18749 13.36329,-13.749997 28.27861,-28.187044 19.83131,-31.01227 -19.36133,-6.474609 -6.6,4.132112 -13.12501,8.213336 -14.5,9.068356 -2.50001,1.55458 -2.49891,1.55475 -0.39844,-0.89453 27.44164,-31.998731 38.35698,-49.949217 30.375,-49.949217 -4.47171,0 -14.80207,8.40591 -43.40625,35.324219 -17.77667,16.728948 -18.8138,17.218238 -11.63867,5.476562 6.18769,-10.125816 10.02564,-20.566872 10.0332,-27.300781 0.0102,-8.830926 -2.44669,-9.717489 -5.8164,-2.099609 -3.16487,7.154668 -11.76673,12.609825 -56.14844,35.613281 -92.49029,47.938595 -101.62562,55.063545 -124.98828,97.486325 -19.07815,34.64276 -26.60105,42.04605 -43.92969,43.23047 -24.3087,1.6615 -39.15102,-9.14858 -70.76563,-51.53906 -27.28899,-36.59046 -36.51266,-43.73695 -56.3164,-43.63086 -29.48003,0.15793 -52.06456,14.91008 -54.9082,35.86523 -0.92102,6.78702 -1.728,7.74861 -10.2793,12.24219 -6.66874,3.50433 -13.11515,9.5607 -14.07227,13.2207 -0.43524,1.66436 0.0769,1.68553 9.14844,0.37696 26.65543,-3.84505 44.74906,6.33812 36.19336,20.36914 -9.72268,15.94484 -32.26328,16.38914 -66.30078,1.30859 -45.96453,-20.36489 -48.04701,-21.57878 -48.89649,-28.50586 -0.73642,-6.00507 -2.7844,-10.21539 -7.52343,-15.46093 -3.35446,-3.71299 -3.44904,-4.01245 -1.94336,-6.16211 3.19681,-4.56408 1.03551,-10.82082 -6.5625,-19.00586 -4.14427,-4.46444 -4.36019,-4.9995 -4.46485,-11.01563 -0.19552,-11.24083 -4.657055,-16.69289 -15.017575,-18.34961 -4.001,-0.63978 -4.002087,-0.63913 -1.621094,-5.29101 5.529279,-10.80286 -0.07237,-19.55767 -10.001953,-15.63086 -1.579544,0.62466 -1.75,-0.0966 -1.75,-7.4043 0,-19.858197 -8.938594,-30.058539 -15,-17.117187 -3.575335,7.633493 -5,4.593319 -5,-10.671875 0,-14.375388 -4.031742,-17.241952 -12.02539,-8.550781 -5.644675,6.137219 -5.644702,6.136867 -6.847657,-0.570313 -4.476688,-24.960182 -9.771237,-24.422286 -12.730469,1.292969 -0.781824,6.793943 -0.816749,6.745662 -4.914062,-7 C 14.465517,43.922726 11.237374,37.501274 9.4179688,37.65625 Z"
                 style="fill:#e59e00;fill-opacity:1;stroke:none;stroke-width:0.99999994"
                 inkscape:connector-curvature="0" />
            </g>
          </g>
          <g
             transform="translate(-108.90682,33.332324)"
             inkscape:label="Layer 1"
             id="layer1-6"
             style="fill:url(#linearGradient4574);fill-opacity:1">
            <path
               inkscape:connector-curvature="0"
               style="fill:url(#linearGradient4809);fill-opacity:1;stroke:none;stroke-width:0.99999994"
               d="M 9.4179688,37.65625 C 6.92471,37.868624 7.0778433,50.4305 11.113281,72.876953 20.358307,124.30086 89.800704,232.17557 135.64258,266.32617 c 17.02383,12.68217 22.57198,18.60387 45.02344,48.05078 24.16072,31.68879 52.46361,61.62387 77.98632,82.48243 22.47179,18.36514 26.675,24.51068 23.1211,33.8164 -2.02842,5.31137 -4.0803,7.27535 -41.2461,39.47852 -35.29421,30.58148 -37.07142,33.07646 -31.41992,44.15429 3.3626,6.59127 18.16319,17.06534 24.11914,17.06836 2.75465,0.001 2.80992,1.03113 0.3418,6.33203 -8.10042,17.3977 3.81091,28.56835 23.82422,22.3418 5.04406,-1.5693 5.33678,-1.34408 3.73047,2.88086 -7.60224,19.99536 13.04636,29.65278 30.54687,14.28711 3.22895,-2.83506 3.22959,-2.8349 3.64844,5.92578 1.18385,24.76108 17.5455,28.27769 43.24414,9.29297 6.7693,-5.00077 6.19725,-5.09159 7.52344,1.18945 1.57218,7.44613 5.73085,15.50598 8.88476,17.21875 8.39521,4.55898 18.52531,-1.98376 22.7461,-14.6914 1.91917,-5.77807 1.87832,-5.77187 4.44726,-0.73633 10.85231,21.27228 34.45948,15.73194 32.68946,-7.67188 -0.56221,-7.43357 -0.56202,-7.43272 5.11328,-2.24218 16.69432,15.2683 29.788,10.72836 30.96679,-10.73633 0.44535,-8.10909 0.4461,-8.10882 5.57813,-6.15235 16.35394,6.23468 26.24136,-2.49979 25.29297,-22.34375 -0.50687,-10.60561 -0.50686,-10.60664 3.16601,-9.29492 16.71141,5.96844 25.01838,-12.88158 13.22852,-30.01758 -3.05499,-4.44026 -3.05429,-4.44065 2.65234,-6.0996 24.81366,-7.2135 28.60903,-23.03211 8.91992,-37.17579 -2.82035,-2.02597 -5.31834,-3.82696 -5.55078,-4.00195 -0.23255,-0.17495 1.39538,-1.87386 3.61914,-3.77734 7.05253,-6.03666 9.83072,-17.00128 5.42383,-21.40821 -5.4856,-5.48556 -27.92446,-8.79438 -74.12109,-10.93359 -15.5,-0.71773 -15.50068,-0.71849 -12.23438,-2.48633 3.01187,-1.62996 3.61857,-1.64894 7.78516,-0.23437 7.2731,2.46928 13.12902,1.06921 21.17578,-5.06836 3.05174,-2.3277 3.43736,-2.3959 5.5,-0.95117 5.61532,3.93312 23.77344,-2.65164 23.77344,-8.6211 0,-1.55542 0.41503,-1.86384 1.75,-1.30273 8.0307,3.37557 20.25,-2.02251 20.25,-8.94532 0,-3.10069 0.45595,-3.1478 5.5,-0.57617 7.07501,3.60703 14.502,0.9409 14.5,-5.20507 -5.7e-4,-2.13778 0.34576,-2.27149 5.05664,-1.94532 11.22901,0.77787 15.44529,-2.10395 13.06445,-8.93359 -1.40084,-4.01847 -1.42101,-4.00169 3.40821,-2.90039 8.19375,1.86857 16.33181,-2.95823 15.1289,-8.97266 -0.53219,-2.66091 -0.32825,-3.04388 1.61719,-3.04687 6.78928,-0.0114 13.14462,-7.92577 12.24219,-15.2461 -0.58557,-4.74953 -0.58523,-4.74981 2.69922,-4.75586 12.07934,-0.0205 20.07603,-7.97872 16.9707,-16.88671 -1.00948,-2.89577 -0.93914,-2.97612 4.41797,-5.1504 11.76313,-4.77431 16.39453,-10.12249 16.39453,-18.93164 0,-4.61776 0.24746,-5.16803 2.75,-6.11132 7.82971,-2.95132 12.62557,-10.77441 12.66601,-20.66407 0.0297,-7.25 0.0287,-7.25 4.58399,-7.25 8.27308,0 11.0479,-4.60492 12.54297,-20.82031 0.61489,-6.66917 0.91017,-7.42148 3.3164,-8.45117 15.93366,-6.81843 18.11732,-18.95204 5.625,-31.24609 -5.09907,-5.01813 -5.09794,-5.01899 5.07032,-4.64258 22.20676,0.82203 30.07234,-9.37037 13.48437,-17.47266 -9.3086,-4.54673 -10.47688,-5.78889 -6.40625,-6.81055 10.45792,-2.62476 37.73396,-29.91778 34.74023,-34.76171 -1.18383,-1.91551 -8.77333,-0.95712 -28.84765,3.64257 -14.17845,3.24874 -14.72109,2.2753 -3.0332,-5.43164 16.13019,-10.63619 31.13355,-28.37641 31.79882,-37.59961 0.30486,-4.22665 -5.94355,-3.54935 -24.57617,2.66407 -8.13154,2.71162 -14.97868,4.92968 -15.2168,4.92968 -0.23792,0 5.77622,-6.18749 13.36329,-13.749997 28.27861,-28.187044 19.83131,-31.01227 -19.36133,-6.474609 -6.6,4.132112 -13.12501,8.213336 -14.5,9.068356 -2.50001,1.55458 -2.49891,1.55475 -0.39844,-0.89453 27.44164,-31.998731 38.35698,-49.949217 30.375,-49.949217 -4.47171,0 -14.80207,8.40591 -43.40625,35.324219 -17.77667,16.728948 -18.8138,17.218238 -11.63867,5.476562 6.18769,-10.125816 10.02564,-20.566872 10.0332,-27.300781 0.0102,-8.830926 -2.44669,-9.717489 -5.8164,-2.099609 -3.16487,7.154668 -11.76673,12.609825 -56.14844,35.613281 -92.49029,47.938595 -101.62562,55.063545 -124.98828,97.486325 -19.07815,34.64276 -26.60105,42.04605 -43.92969,43.23047 -24.3087,1.6615 -39.15102,-9.14858 -70.76563,-51.53906 -27.28899,-36.59046 -36.51266,-43.73695 -56.3164,-43.63086 -29.48003,0.15793 -52.06456,14.91008 -54.9082,35.86523 -0.92102,6.78702 -1.728,7.74861 -10.2793,12.24219 -6.66874,3.50433 -13.11515,9.5607 -14.07227,13.2207 -0.43524,1.66436 0.0769,1.68553 9.14844,0.37696 26.65543,-3.84505 44.74906,6.33812 36.19336,20.36914 -9.72268,15.94484 -32.26328,16.38914 -66.30078,1.30859 -45.96453,-20.36489 -48.04701,-21.57878 -48.89649,-28.50586 -0.73642,-6.00507 -2.7844,-10.21539 -7.52343,-15.46093 -3.35446,-3.71299 -3.44904,-4.01245 -1.94336,-6.16211 3.19681,-4.56408 1.03551,-10.82082 -6.5625,-19.00586 -4.14427,-4.46444 -4.36019,-4.9995 -4.46485,-11.01563 -0.19552,-11.24083 -4.657055,-16.69289 -15.017575,-18.34961 -4.001,-0.63978 -4.002087,-0.63913 -1.621094,-5.29101 5.529279,-10.80286 -0.07237,-19.55767 -10.001953,-15.63086 -1.579544,0.62466 -1.75,-0.0966 -1.75,-7.4043 0,-19.858197 -8.938594,-30.058539 -15,-17.117187 -3.575335,7.633493 -5,4.593319 -5,-10.671875 0,-14.375388 -4.031742,-17.241952 -12.02539,-8.550781 -5.644675,6.137219 -5.644702,6.136867 -6.847657,-0.570313 -4.476688,-24.960182 -9.771237,-24.422286 -12.730469,1.292969 -0.781824,6.793943 -0.816749,6.745662 -4.914062,-7 C 14.465517,43.922726 11.237374,37.501274 9.4179688,37.65625 Z"
               transform="scale(0.26458333)"
               id="path4496" />
          </g>
        </g>
        <g
           aria-label="Estrellas de Esperanza"
           style="font-style:normal;font-variant:normal;font-weight:normal;font-stretch:normal;font-size:124.04245758px;line-height:1;font-family:'Sansita One';-inkscape-font-specification:'Sansita One';letter-spacing:0px;word-spacing:0px;fill:url(#linearGradient67);fill-opacity:1;stroke:url(#linearGradient69);stroke-width:22.38038445;stroke-miterlimit:4;stroke-dasharray:none;stroke-opacity:1;paint-order:markers stroke fill"
           id="text78">
          <path
             d="m -447.87937,117.57339 q 2.59249,3.27472 2.59249,8.59614 0,7.36812 -5.45787,11.32508 -5.45786,3.82051 -14.05401,3.82051 -4.91208,0 -12.41665,-1.09158 -14.73624,-2.31959 -19.23898,-2.31959 -4.50274,0 -6.27655,0.27289 -1.77381,0.13645 -4.63919,0.40934 l 16.78295,-90.054821 h 58.80853 q 0,8.323249 -4.09341,12.689543 -3.95695,4.366295 -11.87086,4.366295 -7.91391,0 -15.96426,-3.684061 l -4.22985,23.878172 h 24.28751 q 0,7.231675 -3.54761,11.325077 -3.54762,3.956955 -9.55127,3.956955 -5.86721,0 -9.55127,-1.364468 -3.68406,-1.364467 -4.0934,-1.773807 l -4.91208,25.788425 q 3.27472,0.40934 9.41482,0.40934 10.5064,0 18.01096,-6.54944 z"
             style="font-size:136.44670105px;line-height:1;fill:url(#linearGradient67);fill-opacity:1;stroke:url(#linearGradient69);stroke-width:22.38038445;stroke-miterlimit:4;stroke-dasharray:none;stroke-opacity:1"
             id="path71" />
          <path
             d="m -392.05774,90.69339 q 1.91026,-5.048528 1.91026,-9.414823 0,-8.050355 -6.54945,-8.050355 -3.41116,0 -6.27654,3.138274 -2.72894,3.001827 -2.72894,6.822335 0,2.728934 2.18315,4.912081 3.13827,3.001828 11.18863,7.913909 8.05035,4.912079 11.05218,9.005479 3.13827,3.95696 3.13827,9.55127 0,5.45787 -2.72893,10.5064 -2.59249,5.04853 -7.36812,8.59614 -10.2335,7.64102 -26.60711,7.64102 -8.86903,0 -15.69137,-4.63919 -6.82233,-4.50274 -6.82233,-9.82416 0,-5.32143 3.8205,-8.4597 3.95696,-3.13827 9.68772,-3.13827 5.73076,0 9.27838,2.18314 -1.77381,4.50274 -1.77381,7.50457 0,9.00548 7.64101,9.00548 3.27472,0 5.45787,-2.0467 2.18315,-2.0467 2.18315,-5.59431 0,-6.95878 -11.73442,-14.32691 -9.55127,-6.27654 -11.73441,-8.73258 -3.68406,-4.366298 -3.68406,-9.824166 0,-5.457868 2.59248,-10.642843 2.59249,-5.184975 7.36812,-8.869036 9.96061,-7.641015 27.28934,-7.641015 8.86904,0 14.05402,3.547614 5.32142,3.547615 5.32142,9.551269 0,6.003655 -3.68406,9.414823 -3.54762,3.411167 -10.09706,3.411167 -4.50274,0 -6.68589,-1.500913 z"
             style="font-size:136.44670105px;line-height:1;fill:url(#linearGradient67);fill-opacity:1;stroke:url(#linearGradient69);stroke-width:22.38038445;stroke-miterlimit:4;stroke-dasharray:none;stroke-opacity:1"
             id="path73" />
          <path
             d="m -364.31428,124.94151 q 0,-3.68406 1.91026,-12.96244 l 7.23167,-36.840604 h -8.05035 l 0.54578,-4.093401 q 16.37361,-4.912082 32.20143,-16.919391 h 6.54944 l -3.27472,14.87269 h 10.64284 l -1.22802,6.140102 h -10.5064 l -6.95878,36.840604 q -1.77381,8.4597 -1.77381,11.32508 0,6.54944 5.73077,7.91391 -1.36447,4.63919 -6.27655,7.36812 -4.91208,2.72894 -11.87087,2.72894 -6.95878,0 -10.91573,-4.3663 -3.95696,-4.36629 -3.95696,-12.00731 z"
             style="font-size:136.44670105px;line-height:1;fill:url(#linearGradient67);fill-opacity:1;stroke:url(#linearGradient69);stroke-width:22.38038445;stroke-miterlimit:4;stroke-dasharray:none;stroke-opacity:1"
             id="path75" />
          <path
             d="m -274.48757,100.24466 q 4.91208,-8.73259 4.91208,-17.601626 0,-5.867208 -4.22985,-5.867208 -3.27472,0 -6.68589,5.594315 -3.54761,5.594315 -4.63919,12.82599 l -7.09522,43.390049 -28.24447,2.72894 13.91756,-72.316756 22.51371,-2.728934 -2.45604,13.781117 q 6.68589,-13.781117 21.69502,-13.781117 7.91391,0 12.14376,4.093401 4.36629,4.093401 4.36629,12.553097 0,8.323248 -5.59431,13.64467 -5.45787,5.321422 -14.87269,5.321422 -4.0934,0 -5.73076,-1.63736 z"
             style="font-size:136.44670105px;line-height:1;fill:url(#linearGradient67);fill-opacity:1;stroke:url(#linearGradient69);stroke-width:22.38038445;stroke-miterlimit:4;stroke-dasharray:none;stroke-opacity:1"
             id="path77" />
          <path
             d="m -190.77966,115.52669 q 3.41117,2.31959 3.41117,7.50457 0,5.04853 -2.59249,8.32325 -2.59249,3.27472 -6.82234,5.45786 -8.73258,4.50275 -18.14741,4.50275 -9.41482,0 -15.00913,-2.0467 -5.45787,-2.04671 -9.14193,-5.86721 -7.23168,-7.23168 -7.23168,-20.46701 0,-20.60345 11.18863,-33.156547 12.00731,-13.508223 32.88366,-13.508223 12.96243,0 19.37543,5.457868 4.77563,4.093401 4.77563,10.77929 0,24.014622 -41.47979,24.014622 -0.54579,3.54761 -0.54579,6.54944 0,6.27655 2.72893,8.73259 2.86538,2.31959 8.05036,2.31959 5.18497,0 10.64284,-2.31959 5.59432,-2.45604 7.91391,-6.27655 z M -218.61479,100.654 q 9.68772,0 15.28203,-6.003656 5.59432,-5.730762 5.59432,-14.872691 0,-3.138274 -1.22802,-4.775634 -1.09158,-1.773807 -3.41117,-1.773807 -2.31959,0 -4.36629,0.955127 -1.91026,0.81868 -3.95696,3.820507 -5.04853,6.822335 -7.91391,22.650154 z"
             style="font-size:136.44670105px;line-height:1;fill:url(#linearGradient67);fill-opacity:1;stroke:url(#linearGradient69);stroke-width:22.38038445;stroke-miterlimit:4;stroke-dasharray:none;stroke-opacity:1"
             id="path79" />
          <path
             d="m -140.94251,131.08161 q -4.22985,10.23351 -17.73807,10.23351 -6.82233,0 -11.18863,-4.77564 -3.54761,-3.95695 -3.54761,-8.45969 0,-10.23351 4.77563,-32.610766 l 9.96061,-52.395533 27.69868,-2.728934 -13.23533,69.042033 q -2.31959,10.09705 -2.31959,13.64467 0,7.77746 5.59431,8.05035 z"
             style="font-size:136.44670105px;line-height:1;fill:url(#linearGradient67);fill-opacity:1;stroke:url(#linearGradient69);stroke-width:22.38038445;stroke-miterlimit:4;stroke-dasharray:none;stroke-opacity:1"
             id="path81" />
          <path
             d="m -96.703922,131.08161 q -4.229848,10.23351 -17.738068,10.23351 -6.82234,0 -11.18863,-4.77564 -3.54762,-3.95695 -3.54762,-8.45969 0,-10.23351 4.77564,-32.610766 l 9.96061,-52.395533 27.698677,-2.728934 -13.23533,69.042033 q -2.319597,10.09705 -2.319597,13.64467 0,7.77746 5.594318,8.05035 z"
             style="font-size:136.44670105px;line-height:1;fill:url(#linearGradient67);fill-opacity:1;stroke:url(#linearGradient69);stroke-width:22.38038445;stroke-miterlimit:4;stroke-dasharray:none;stroke-opacity:1"
             id="path83" />
          <path
             d="m -79.208889,134.49278 q -3.138274,-3.54761 -4.639188,-9.14193 -1.364467,-5.59431 -1.364467,-14.73624 0,-9.14193 3.138274,-17.46518 3.138275,-8.323249 8.869036,-14.326903 11.734416,-12.553097 31.109848,-12.553097 6.958782,0 12.00731,2.319594 L -6.7556906,66.26943 -16.852746,119.48364 q -0.409341,1.63736 -0.409341,4.63919 0,3.00183 1.773808,4.91208 1.910253,1.91026 4.639187,2.18315 -1.364467,4.63919 -6.412995,7.36812 -4.912081,2.72894 -10.506396,2.72894 -5.594314,0 -9.414822,-2.18315 -3.684061,-2.0467 -4.775634,-5.59432 -2.183148,3.41117 -6.822336,5.59432 -4.639187,2.18315 -10.915736,2.18315 -6.140101,0 -11.188629,-1.63736 -5.048528,-1.63737 -8.323249,-5.18498 z m 28.790254,-55.39736 q -1.500914,2.456041 -2.865381,6.685888 -1.364467,4.093401 -3.684061,15.282032 -2.183147,11.05218 -2.183147,18.96609 0,7.91391 1.228021,10.2335 1.22802,2.3196 3.411167,2.3196 4.366294,0 7.504569,-4.0934 3.27472,-4.22985 4.502741,-11.59797 l 7.231675,-39.978887 q -2.865381,-2.456041 -6.276548,-2.456041 -3.274721,0 -5.321422,1.091574 -1.910254,1.091573 -3.547614,3.547614 z"
             style="font-size:136.44670105px;line-height:1;fill:url(#linearGradient67);fill-opacity:1;stroke:url(#linearGradient69);stroke-width:22.38038445;stroke-miterlimit:4;stroke-dasharray:none;stroke-opacity:1"
             id="path85" />
          <path
             d="m 41.533631,90.69339 q 1.910254,-5.048528 1.910254,-9.414823 0,-8.050355 -6.549442,-8.050355 -3.411167,0 -6.276548,3.138274 -2.728934,3.001827 -2.728934,6.822335 0,2.728934 2.183147,4.912081 3.138274,3.001828 11.18863,7.913909 8.050355,4.912079 11.052182,9.005479 3.138274,3.95696 3.138274,9.55127 0,5.45787 -2.728934,10.5064 -2.592487,5.04853 -7.368121,8.59614 -10.233503,7.64102 -26.607107,7.64102 -8.8690357,0 -15.6913708,-4.63919 -6.822335,-4.50274 -6.822335,-9.82416 0,-5.32143 3.8205076,-8.4597 3.9569543,-3.13827 9.6877158,-3.13827 5.7307614,0 9.2783754,2.18314 -1.773807,4.50274 -1.773807,7.50457 0,9.00548 7.641015,9.00548 3.274721,0 5.457868,-2.0467 2.183148,-2.0467 2.183148,-5.59431 0,-6.95878 -11.734417,-14.32691 -9.551269,-6.27654 -11.7344159,-8.73258 -3.684061,-4.366298 -3.684061,-9.824166 0,-5.457868 2.5924874,-10.642843 2.5924875,-5.184975 7.3681215,-8.869036 9.960609,-7.641015 27.289341,-7.641015 8.869035,0 14.05401,3.547614 5.321421,3.547615 5.321421,9.551269 0,6.003655 -3.684061,9.414823 -3.547614,3.411167 -10.097056,3.411167 -4.502741,0 -6.685888,-1.500913 z"
             style="font-size:136.44670105px;line-height:1;fill:url(#linearGradient67);fill-opacity:1;stroke:url(#linearGradient69);stroke-width:22.38038445;stroke-miterlimit:4;stroke-dasharray:none;stroke-opacity:1"
             id="path87" />
          <path
             d="m 138.05687,66.26943 q 4.91208,0 8.73258,1.091574 0.13645,-0.545787 0.40934,-2.046701 l 0.68224,-4.229848 q 0.54579,-2.728934 1.36447,-7.231675 l 2.18314,-10.779289 27.1529,-2.728934 -15.14559,79.139083 q -0.13644,0.81868 -0.13644,2.18315 v 2.18315 q 0,3.00183 1.50091,5.32142 1.50091,2.18315 3.95695,2.18315 -2.72893,6.41299 -11.05218,9.14193 -2.86538,0.81868 -6.95878,0.81868 -3.95696,0 -7.64102,-2.18315 -3.68406,-2.0467 -4.77563,-5.59432 -2.18315,3.54762 -6.54944,5.59432 -4.3663,2.18315 -10.77929,2.18315 -6.27655,0 -11.59797,-1.63736 -5.18498,-1.63737 -8.4597,-5.18498 -6.003652,-6.95878 -6.003652,-22.7866 0,-20.467004 12.007312,-32.883653 12.00731,-12.553097 31.10985,-12.553097 z m -0.95513,8.186802 q -5.04853,0 -7.77746,5.457868 -2.72894,5.457868 -5.59432,18.966092 -2.72893,13.508228 -2.72893,25.651978 0,8.32325 4.91208,8.32325 4.36629,0 7.36812,-4.36629 3.13828,-4.3663 4.3663,-11.59797 l 7.36812,-39.978887 q -2.86538,-2.456041 -7.91391,-2.456041 z"
             style="font-size:136.44670105px;line-height:1;fill:url(#linearGradient67);fill-opacity:1;stroke:url(#linearGradient69);stroke-width:22.38038445;stroke-miterlimit:4;stroke-dasharray:none;stroke-opacity:1"
             id="path89" />
          <path
             d="m 235.6163,115.52669 q 3.41117,2.31959 3.41117,7.50457 0,5.04853 -2.59248,8.32325 -2.59249,3.27472 -6.82234,5.45786 -8.73259,4.50275 -18.14741,4.50275 -9.41482,0 -15.00914,-2.0467 -5.45787,-2.04671 -9.14193,-5.86721 -7.23167,-7.23168 -7.23167,-20.46701 0,-20.60345 11.18863,-33.156547 12.00731,-13.508223 32.88365,-13.508223 12.96244,0 19.37543,5.457868 4.77564,4.093401 4.77564,10.77929 0,24.014622 -41.4798,24.014622 -0.54579,3.54761 -0.54579,6.54944 0,6.27655 2.72894,8.73259 2.86538,2.31959 8.05035,2.31959 5.18498,0 10.64285,-2.31959 5.59431,-2.45604 7.9139,-6.27655 z M 207.78118,100.654 q 9.68771,0 15.28203,-6.003656 5.59431,-5.730762 5.59431,-14.872691 0,-3.138274 -1.22802,-4.775634 -1.09157,-1.773807 -3.41116,-1.773807 -2.3196,0 -4.3663,0.955127 -1.91025,0.81868 -3.95695,3.820507 -5.04853,6.822335 -7.91391,22.650154 z"
             style="font-size:136.44670105px;line-height:1;fill:url(#linearGradient67);fill-opacity:1;stroke:url(#linearGradient69);stroke-width:22.38038445;stroke-miterlimit:4;stroke-dasharray:none;stroke-opacity:1"
             id="path91" />
          <path
             d="m 339.08768,117.57339 q 2.59248,3.27472 2.59248,8.59614 0,7.36812 -5.45786,11.32508 -5.45787,3.82051 -14.05402,3.82051 -4.91208,0 -12.41664,-1.09158 -14.73625,-2.31959 -19.23899,-2.31959 -4.50274,0 -6.27655,0.27289 -1.77381,0.13645 -4.63919,0.40934 l 16.78295,-90.054821 h 58.80853 q 0,8.323249 -4.0934,12.689543 -3.95696,4.366295 -11.87087,4.366295 -7.91391,0 -15.96426,-3.684061 l -4.22985,23.878172 h 24.28751 q 0,7.231675 -3.54761,11.325077 -3.54761,3.956955 -9.55127,3.956955 -5.86721,0 -9.55127,-1.364468 -3.68406,-1.364467 -4.0934,-1.773807 l -4.91208,25.788425 q 3.27472,0.40934 9.41482,0.40934 10.5064,0 18.01097,-6.54944 z"
             style="font-size:136.44670105px;line-height:1;fill:url(#linearGradient67);fill-opacity:1;stroke:url(#linearGradient69);stroke-width:22.38038445;stroke-miterlimit:4;stroke-dasharray:none;stroke-opacity:1"
             id="path93" />
          <path
             d="m 394.9093,90.69339 q 1.91026,-5.048528 1.91026,-9.414823 0,-8.050355 -6.54945,-8.050355 -3.41116,0 -6.27654,3.138274 -2.72894,3.001827 -2.72894,6.822335 0,2.728934 2.18315,4.912081 3.13827,3.001828 11.18863,7.913909 8.05035,4.912079 11.05218,9.005479 3.13828,3.95696 3.13828,9.55127 0,5.45787 -2.72894,10.5064 -2.59249,5.04853 -7.36812,8.59614 -10.2335,7.64102 -26.60711,7.64102 -8.86903,0 -15.69137,-4.63919 -6.82233,-4.50274 -6.82233,-9.82416 0,-5.32143 3.82051,-8.4597 3.95695,-3.13827 9.68771,-3.13827 5.73076,0 9.27838,2.18314 -1.77381,4.50274 -1.77381,7.50457 0,9.00548 7.64101,9.00548 3.27473,0 5.45787,-2.0467 2.18315,-2.0467 2.18315,-5.59431 0,-6.95878 -11.73442,-14.32691 -9.55127,-6.27654 -11.73441,-8.73258 -3.68406,-4.366298 -3.68406,-9.824166 0,-5.457868 2.59248,-10.642843 2.59249,-5.184975 7.36813,-8.869036 9.9606,-7.641015 27.28934,-7.641015 8.86903,0 14.05401,3.547614 5.32142,3.547615 5.32142,9.551269 0,6.003655 -3.68406,9.414823 -3.54762,3.411167 -10.09706,3.411167 -4.50274,0 -6.68589,-1.500913 z"
             style="font-size:136.44670105px;line-height:1;fill:url(#linearGradient67);fill-opacity:1;stroke:url(#linearGradient69);stroke-width:22.38038445;stroke-miterlimit:4;stroke-dasharray:none;stroke-opacity:1"
             id="path95" />
          <path
             d="m 484.05375,129.30781 q -5.73076,5.73076 -13.64467,8.86903 -7.77746,3.13828 -15.55492,3.13828 -7.77747,0 -10.5064,-1.36447 l -4.22985,23.19594 -27.69868,2.72893 18.82965,-96.877156 22.24081,-2.319594 -1.77381,9.414823 q 5.73076,-9.687716 17.60163,-9.687716 13.37177,0 20.467,8.596142 6.27655,7.777462 6.27655,19.648325 0,11.870866 -3.13827,20.330556 -3.13828,8.4597 -8.86904,14.32691 z m -38.06863,1.63736 q 2.86538,2.45604 6.413,2.45604 3.54761,0 5.59431,-1.36447 2.0467,-1.36447 3.54761,-4.0934 4.09341,-7.36812 7.36813,-29.745382 0.95512,-6.549442 0.95512,-12.962436 0,-6.412995 -1.50091,-8.459696 -1.36447,-2.0467 -4.0934,-2.0467 -8.32325,0 -11.05218,16.237157 z"
             style="font-size:136.44670105px;line-height:1;fill:url(#linearGradient67);fill-opacity:1;stroke:url(#linearGradient69);stroke-width:22.38038445;stroke-miterlimit:4;stroke-dasharray:none;stroke-opacity:1"
             id="path97" />
          <path
             d="m 559.41074,115.52669 q 3.41117,2.31959 3.41117,7.50457 0,5.04853 -2.59249,8.32325 -2.59249,3.27472 -6.82234,5.45786 -8.73259,4.50275 -18.14741,4.50275 -9.41482,0 -15.00913,-2.0467 -5.45787,-2.04671 -9.14193,-5.86721 -7.23168,-7.23168 -7.23168,-20.46701 0,-20.60345 11.18863,-33.156547 12.00731,-13.508223 32.88366,-13.508223 12.96243,0 19.37543,5.457868 4.77563,4.093401 4.77563,10.77929 0,24.014622 -41.4798,24.014622 -0.54578,3.54761 -0.54578,6.54944 0,6.27655 2.72893,8.73259 2.86538,2.31959 8.05036,2.31959 5.18497,0 10.64284,-2.31959 5.59431,-2.45604 7.91391,-6.27655 z M 531.57561,100.654 q 9.68772,0 15.28203,-6.003656 5.59432,-5.730762 5.59432,-14.872691 0,-3.138274 -1.22802,-4.775634 -1.09158,-1.773807 -3.41117,-1.773807 -2.31959,0 -4.3663,0.955127 -1.91025,0.81868 -3.95695,3.820507 -5.04853,6.822335 -7.91391,22.650154 z"
             style="font-size:136.44670105px;line-height:1;fill:url(#linearGradient67);fill-opacity:1;stroke:url(#linearGradient69);stroke-width:22.38038445;stroke-miterlimit:4;stroke-dasharray:none;stroke-opacity:1"
             id="path99" />
          <path
             d="m 619.34489,100.24466 q 4.91208,-8.73259 4.91208,-17.601626 0,-5.867208 -4.22985,-5.867208 -3.27472,0 -6.68589,5.594315 -3.54761,5.594315 -4.63919,12.82599 l -7.09523,43.390049 -28.24446,2.72894 13.91756,-72.316756 22.51371,-2.728934 -2.45604,13.781117 q 6.68588,-13.781117 21.69502,-13.781117 7.91391,0 12.14376,4.093401 4.36629,4.093401 4.36629,12.553097 0,8.323248 -5.59431,13.64467 -5.45787,5.321422 -14.87269,5.321422 -4.0934,0 -5.73076,-1.63736 z"
             style="font-size:136.44670105px;line-height:1;fill:url(#linearGradient67);fill-opacity:1;stroke:url(#linearGradient69);stroke-width:22.38038445;stroke-miterlimit:4;stroke-dasharray:none;stroke-opacity:1"
             id="path101" />
          <path
             d="m 653.65918,134.49278 q -3.13827,-3.54761 -4.63918,-9.14193 -1.36447,-5.59431 -1.36447,-14.73624 0,-9.14193 3.13827,-17.46518 3.13828,-8.323249 8.86904,-14.326903 11.73441,-12.553097 31.10985,-12.553097 6.95878,0 12.00731,2.319594 l 23.33238,-2.319594 -10.09705,53.21421 q -0.40934,1.63736 -0.40934,4.63919 0,3.00183 1.7738,4.91208 1.91026,1.91026 4.63919,2.18315 -1.36447,4.63919 -6.41299,7.36812 -4.91209,2.72894 -10.5064,2.72894 -5.59431,0 -9.41482,-2.18315 -3.68406,-2.0467 -4.77564,-5.59432 -2.18314,3.41117 -6.82233,5.59432 -4.63919,2.18315 -10.91574,2.18315 -6.1401,0 -11.18863,-1.63736 -5.04853,-1.63737 -8.32325,-5.18498 z m 28.79026,-55.39736 q -1.50092,2.456041 -2.86538,6.685888 -1.36447,4.093401 -3.68406,15.282032 -2.18315,11.05218 -2.18315,18.96609 0,7.91391 1.22802,10.2335 1.22802,2.3196 3.41117,2.3196 4.36629,0 7.50457,-4.0934 3.27472,-4.22985 4.50274,-11.59797 l 7.23167,-39.978887 q -2.86538,-2.456041 -6.27655,-2.456041 -3.27472,0 -5.32142,1.091574 -1.91025,1.091573 -3.54761,3.547614 z"
             style="font-size:136.44670105px;line-height:1;fill:url(#linearGradient67);fill-opacity:1;stroke:url(#linearGradient69);stroke-width:22.38038445;stroke-miterlimit:4;stroke-dasharray:none;stroke-opacity:1"
             id="path103" />
          <path
             d="m 791.32106,141.31512 q -16.51005,0 -16.51005,-12.82599 0.13645,-3.54762 1.22802,-9.55127 l 2.45604,-12.5531 q 3.68406,-17.738071 3.68406,-21.695025 0,-7.913909 -4.63918,-7.913909 -7.77746,0 -11.87087,20.330559 l -8.05035,41.479795 -27.42579,2.72894 14.19046,-72.453203 22.37726,-2.592487 -2.18315,13.371777 q 6.413,-13.371777 26.06132,-13.371777 9.55127,0 13.50822,4.093401 4.0934,3.956954 4.0934,12.962437 0,8.459695 -4.36629,28.244462 -2.0467,8.86904 -2.0467,12.28021 0,3.27472 1.77381,5.18497 1.91025,1.91026 4.63918,2.18315 -1.36446,4.63919 -6.1401,7.36812 -4.63918,2.72894 -10.77929,2.72894 z"
             style="font-size:136.44670105px;line-height:1;fill:url(#linearGradient67);fill-opacity:1;stroke:url(#linearGradient69);stroke-width:22.38038445;stroke-miterlimit:4;stroke-dasharray:none;stroke-opacity:1"
             id="path105" />
          <path
             d="m 845.34753,139.95065 q -6.41299,-1.36447 -9.82416,-1.91026 -3.27472,-0.68223 -7.23168,-0.68223 -3.82051,0 -7.64101,1.36447 -2.0467,-1.22802 -3.41117,-3.68406 -1.22802,-2.45604 -1.22802,-6.27655 0,-8.05036 8.1868,-14.19046 l 34.65746,-24.969744 q -9.68771,-2.728934 -18.55675,-2.728934 -8.73259,0 -11.87086,6.003655 -4.63919,-5.457868 -4.63919,-14.05401 0,-5.730762 4.0934,-9.414823 4.22985,-3.820507 12.96244,-3.820507 4.91208,0 9.27837,0.682233 4.50275,0.545787 8.4597,1.091574 l 7.36812,1.091573 q 3.54762,0.545787 7.09523,0.545787 3.68406,0 6.413,-1.500914 3.54761,3.274721 3.54761,7.777462 0,7.095229 -8.73259,14.463351 l -34.52101,25.788427 q 10.64284,3.13827 16.10071,3.13827 11.46152,0 16.3736,-5.45786 3.82051,4.36629 3.82051,12.0073 0,7.50457 -4.91208,11.87087 -4.91208,4.22985 -13.78112,4.22985 -5.45787,0 -12.00731,-1.36447 z"
             style="font-size:136.44670105px;line-height:1;fill:url(#linearGradient67);fill-opacity:1;stroke:url(#linearGradient69);stroke-width:22.38038445;stroke-miterlimit:4;stroke-dasharray:none;stroke-opacity:1"
             id="path107" />
          <path
             d="m 893.77332,134.49278 q -3.13827,-3.54761 -4.63919,-9.14193 -1.36447,-5.59431 -1.36447,-14.73624 0,-9.14193 3.13828,-17.46518 3.13827,-8.323249 8.86903,-14.326903 11.73442,-12.553097 31.10985,-12.553097 6.95878,0 12.00731,2.319594 l 23.33239,-2.319594 -10.09706,53.21421 q -0.40934,1.63736 -0.40934,4.63919 0,3.00183 1.77381,4.91208 1.91025,1.91026 4.63919,2.18315 -1.36447,4.63919 -6.413,7.36812 -4.91208,2.72894 -10.50639,2.72894 -5.59432,0 -9.41483,-2.18315 -3.68406,-2.0467 -4.77563,-5.59432 -2.18315,3.41117 -6.82234,5.59432 -4.63918,2.18315 -10.91573,2.18315 -6.1401,0 -11.18863,-1.63736 -5.04853,-1.63737 -8.32325,-5.18498 z m 28.79025,-55.39736 q -1.50091,2.456041 -2.86538,6.685888 -1.36446,4.093401 -3.68406,15.282032 -2.18315,11.05218 -2.18315,18.96609 0,7.91391 1.22802,10.2335 1.22803,2.3196 3.41117,2.3196 4.3663,0 7.50457,-4.0934 3.27472,-4.22985 4.50274,-11.59797 l 7.23168,-39.978887 q -2.86538,-2.456041 -6.27655,-2.456041 -3.27472,0 -5.32142,1.091574 -1.91026,1.091573 -3.54762,3.547614 z"
             style="font-size:136.44670105px;line-height:1;fill:url(#linearGradient67);fill-opacity:1;stroke:url(#linearGradient69);stroke-width:22.38038445;stroke-miterlimit:4;stroke-dasharray:none;stroke-opacity:1"
             id="path109" />
        </g>
        <g
           aria-label="Ministerio por Misioneros"
           transform="scale(0.93406829,1.0705855)"
           style="font-style:normal;font-variant:normal;font-weight:normal;font-stretch:normal;font-size:105.90447235px;line-height:1.25;font-family:'Sansita One';-inkscape-font-specification:'Sansita One';letter-spacing:0px;word-spacing:0px;fill:#fff186;fill-opacity:1;stroke:#feb300;stroke-width:2.16163945;stroke-miterlimit:4;stroke-dasharray:none;stroke-opacity:1"
           id="text929">
          <path
             d="m -543.62633,245.09427 19.16871,-69.89695 h 22.13403 l 4.87161,39.92598 19.69823,-39.92598 h 18.53328 l 1.90628,52.31681 q 0.42362,10.37863 5.50704,13.55577 -1.16495,2.11809 -4.5539,4.13027 -3.38894,2.01219 -7.94283,2.01219 -4.44799,0 -7.0956,-1.27086 -2.64761,-1.27085 -4.13028,-3.38894 -2.64761,-3.81256 -2.64761,-11.11997 v -32.72448 l -20.86318,46.38616 h -13.13215 l -7.41332,-47.55111 -11.8613,47.55111 z"
             style="fill:#fff186;fill-opacity:1;stroke:#feb300;stroke-width:2.16163945;stroke-miterlimit:4;stroke-dasharray:none;stroke-opacity:1"
             id="path112" />
          <path
             d="m -421.74517,239.26952 q -3.28304,7.94284 -13.76759,7.94284 -5.40112,0 -8.79007,-3.70666 -2.85942,-3.28304 -2.85942,-6.56608 0,-8.57826 3.91847,-25.31116 l 3.91846,-20.54547 21.49861,-2.11809 -6.46017,33.46581 q -1.80038,7.83693 -1.80038,10.59045 0,6.03655 4.34209,6.24836 z m -15.67387,-62.90725 q 0,-4.13028 3.38895,-6.35427 3.49484,-2.224 8.47235,-2.224 4.97751,0 7.94284,2.224 3.07123,2.22399 3.07123,6.35427 0,4.13027 -3.38894,6.24836 -3.28304,2.11809 -8.26055,2.11809 -4.97751,0 -8.15465,-2.11809 -3.07123,-2.11809 -3.07123,-6.24836 z"
             style="fill:#fff186;fill-opacity:1;stroke:#feb300;stroke-width:2.16163945;stroke-miterlimit:4;stroke-dasharray:none;stroke-opacity:1"
             id="path114" />
          <path
             d="m -368.02844,247.21236 q -12.81444,0 -12.81444,-9.95502 0.10591,-2.75352 0.95314,-7.41332 l 1.90628,-9.74321 q 2.85942,-13.76758 2.85942,-16.83881 0,-6.14246 -3.60075,-6.14246 -6.03655,0 -9.21369,15.77977 l -6.24836,32.19496 -21.2868,2.11809 11.01407,-56.23528 17.36833,-2.01218 -1.69447,10.37864 q 4.97751,-10.37864 20.22775,-10.37864 7.41331,0 10.48454,3.17713 3.17714,3.07123 3.17714,10.06093 0,6.56607 -3.38894,21.92222 -1.58857,6.88379 -1.58857,9.53141 0,2.5417 1.37676,4.02437 1.48266,1.48266 3.60075,1.69447 -1.05905,3.60075 -4.7657,5.71884 -3.60075,2.11809 -8.36646,2.11809 z"
             style="fill:#fff186;fill-opacity:1;stroke:#feb300;stroke-width:2.16163945;stroke-miterlimit:4;stroke-dasharray:none;stroke-opacity:1"
             id="path116" />
          <path
             d="m -321.01181,239.26952 q -3.28304,7.94284 -13.76759,7.94284 -5.40112,0 -8.79007,-3.70666 -2.85942,-3.28304 -2.85942,-6.56608 0,-8.57826 3.91847,-25.31116 l 3.91846,-20.54547 21.49861,-2.11809 -6.46017,33.46581 q -1.80038,7.83693 -1.80038,10.59045 0,6.03655 4.34209,6.24836 z m -15.67387,-62.90725 q 0,-4.13028 3.38895,-6.35427 3.49484,-2.224 8.47236,-2.224 4.97751,0 7.94283,2.224 3.07123,2.22399 3.07123,6.35427 0,4.13027 -3.38894,6.24836 -3.28304,2.11809 -8.26055,2.11809 -4.97751,0 -8.15465,-2.11809 -3.07123,-2.11809 -3.07123,-6.24836 z"
             style="fill:#fff186;fill-opacity:1;stroke:#feb300;stroke-width:2.16163945;stroke-miterlimit:4;stroke-dasharray:none;stroke-opacity:1"
             id="path118" />
          <path
             d="m -280.42724,207.9218 q 1.48266,-3.91847 1.48266,-7.30741 0,-6.24836 -5.08341,-6.24836 -2.64761,0 -4.87161,2.4358 -2.11809,2.3299 -2.11809,5.29522 0,2.11809 1.69448,3.81256 2.4358,2.3299 8.68416,6.14246 6.24837,3.81256 8.57827,6.9897 2.4358,3.07123 2.4358,7.41331 0,4.23618 -2.11809,8.15465 -2.01219,3.91846 -5.71884,6.67198 -7.94284,5.93065 -20.65137,5.93065 -6.8838,0 -12.17902,-3.60075 -5.29522,-3.49485 -5.29522,-7.62513 0,-4.13027 2.96532,-6.56607 3.07123,-2.43581 7.51922,-2.43581 4.44799,0 7.2015,1.69448 -1.37675,3.49484 -1.37675,5.82474 0,6.9897 5.93065,6.9897 2.5417,0 4.23618,-1.58857 1.69447,-1.58857 1.69447,-4.34208 0,-5.40113 -9.10779,-11.11997 -7.41331,-4.87161 -9.10778,-6.77789 -2.85942,-3.38894 -2.85942,-7.62512 0,-4.23618 2.01218,-8.26055 2.01219,-4.02437 5.71884,-6.88379 7.73103,-5.93065 21.1809,-5.93065 6.88379,0 10.90816,2.75351 4.13027,2.75352 4.13027,7.41332 0,4.65979 -2.85942,7.30741 -2.75351,2.64761 -7.83693,2.64761 -3.49485,0 -5.18932,-1.16495 z"
             style="fill:#fff186;fill-opacity:1;stroke:#feb300;stroke-width:2.16163945;stroke-miterlimit:4;stroke-dasharray:none;stroke-opacity:1"
             id="path120" />
          <path
             d="m -258.89389,234.50382 q 0,-2.85942 1.48267,-10.06092 l 5.61293,-28.59421 h -6.24836 l 0.42362,-3.17714 q 12.70854,-3.81256 24.99345,-13.13215 h 5.08342 l -2.54171,11.54359 h 8.26055 l -0.95314,4.7657 h -8.15464 l -5.40113,28.59421 q -1.37676,6.56607 -1.37676,8.79007 0,5.08341 4.44799,6.14246 -1.05905,3.60075 -4.87161,5.71884 -3.81256,2.11809 -9.21369,2.11809 -5.40113,0 -8.47236,-3.38894 -3.07123,-3.38895 -3.07123,-9.3196 z"
             style="fill:#fff186;fill-opacity:1;stroke:#feb300;stroke-width:2.16163945;stroke-miterlimit:4;stroke-dasharray:none;stroke-opacity:1"
             id="path122" />
          <path
             d="m -179.84448,227.19641 q 2.64762,1.80038 2.64762,5.82475 0,3.91846 -2.01219,6.46017 -2.01218,2.54171 -5.29522,4.23618 -6.77789,3.49485 -14.0853,3.49485 -7.30741,0 -11.64949,-1.58857 -4.23618,-1.58857 -7.0956,-4.55389 -5.61294,-5.61294 -5.61294,-15.88567 0,-15.99158 8.68417,-25.73479 9.31959,-10.48454 25.52298,-10.48454 10.06092,0 15.03843,4.23618 3.70666,3.17713 3.70666,8.36645 0,18.63919 -32.19496,18.63919 -0.42362,2.75351 -0.42362,5.08341 0,4.87161 2.11809,6.77789 2.224,1.80037 6.24837,1.80037 4.02437,0 8.26054,-1.80037 4.34209,-1.90628 6.14246,-4.87161 z m -21.60451,-11.54358 q 7.51922,0 11.8613,-4.6598 4.34209,-4.44799 4.34209,-11.54359 0,-2.4358 -0.95314,-3.70666 -0.84724,-1.37675 -2.64762,-1.37675 -1.80037,0 -3.38894,0.74133 -1.48266,0.63542 -3.07123,2.96532 -3.91846,5.29523 -6.14246,17.58015 z"
             style="fill:#fff186;fill-opacity:1;stroke:#feb300;stroke-width:2.16163945;stroke-miterlimit:4;stroke-dasharray:none;stroke-opacity:1"
             id="path124" />
          <path
             d="m -133.32594,215.33511 q 3.81256,-6.77788 3.81256,-13.66167 0,-4.5539 -3.28304,-4.5539 -2.5417,0 -5.18931,4.34209 -2.75352,4.34208 -3.60076,9.95502 l -5.50703,33.67762 -21.92223,2.11809 10.80226,-56.12937 17.47424,-2.11809 -1.90628,10.69635 q 5.18932,-10.69635 16.83881,-10.69635 6.14246,0 9.4255,3.17713 3.38894,3.17714 3.38894,9.74321 0,6.46018 -4.34208,10.59045 -4.23618,4.13028 -11.54359,4.13028 -3.17713,0 -4.44799,-1.27086 z"
             style="fill:#fff186;fill-opacity:1;stroke:#feb300;stroke-width:2.16163945;stroke-miterlimit:4;stroke-dasharray:none;stroke-opacity:1"
             id="path126" />
          <path
             d="m -85.829426,239.26952 q -3.283038,7.94284 -13.767581,7.94284 -5.401133,0 -8.790073,-3.70666 -2.85942,-3.28304 -2.85942,-6.56608 0,-8.57826 3.91847,-25.31116 l 3.91846,-20.54547 21.49861,-2.11809 -6.460173,33.46581 q -1.800376,7.83693 -1.800376,10.59045 0,6.03655 4.342083,6.24836 z m -15.673864,-62.90725 q 0,-4.13028 3.388946,-6.35427 3.494847,-2.224 8.472357,-2.224 4.977511,0 7.942836,2.224 3.07123,2.22399 3.07123,6.35427 0,4.13027 -3.388944,6.24836 -3.283038,2.11809 -8.260548,2.11809 -4.977511,0 -8.154645,-2.11809 -3.071232,-2.11809 -3.071232,-6.24836 z"
             style="fill:#fff186;fill-opacity:1;stroke:#feb300;stroke-width:2.16163945;stroke-miterlimit:4;stroke-dasharray:none;stroke-opacity:1"
             id="path128" />
          <path
             d="m -53.823112,247.21236 q -23.298984,0 -23.298984,-21.92223 0,-15.56795 8.578263,-25.62888 9.107784,-10.69635 24.887551,-10.69635 11.437683,0 17.262428,5.29522 5.824746,5.29523 5.824746,16.4152 0,16.94471 -9.107784,26.79383 -8.895976,9.74321 -24.14622,9.74321 z m 2.753516,-46.06845 q -1.270853,2.85942 -2.329898,7.20151 -0.95314,4.23618 -2.223994,11.01406 -1.270854,6.77789 -1.270854,15.14434 0,2.75352 0.847236,4.55389 0.95314,1.80038 3.388943,1.80038 2.435803,0 3.918466,-1.16495 1.588567,-1.16495 2.753516,-3.91846 2.11809,-4.87161 3.812561,-13.87349 1.694472,-9.10779 1.800376,-13.02625 0.211809,-3.91847 0.211809,-6.77789 0,-2.96532 -0.847236,-4.8716 -0.847235,-1.90628 -3.283038,-1.90628 -2.329899,0 -3.918466,1.48266 -1.588567,1.48266 -2.859421,4.34208 z"
             style="fill:#fff186;fill-opacity:1;stroke:#feb300;stroke-width:2.16163945;stroke-miterlimit:4;stroke-dasharray:none;stroke-opacity:1"
             id="path130" />
          <path
             d="m 56.833806,237.89276 q -4.447988,4.44799 -10.590447,6.8838 -6.036555,2.4358 -12.07311,2.4358 -6.036555,0 -8.154645,-1.05905 l -3.283038,18.00376 -21.498608,2.11809 14.614817,-75.19217 17.262429,-1.80038 -1.376758,7.30741 q 4.447988,-7.51922 13.661677,-7.51922 10.378638,0 15.885671,6.67198 4.871606,6.03656 4.871606,15.25025 0,9.21369 -2.435803,15.77977 -2.435803,6.56607 -6.883791,11.11996 z m -29.547348,1.27086 q 2.223994,1.90628 4.97751,1.90628 2.753517,0 4.342084,-1.05905 1.588567,-1.05904 2.753516,-3.17713 3.177134,-5.71884 5.718842,-23.08718 0.741331,-5.08341 0.741331,-10.06092 0,-4.97751 -1.164949,-6.56608 -1.059045,-1.58856 -3.177135,-1.58856 -6.460172,0 -8.578262,12.60263 z"
             style="fill:#fff186;fill-opacity:1;stroke:#feb300;stroke-width:2.16163945;stroke-miterlimit:4;stroke-dasharray:none;stroke-opacity:1"
             id="path132" />
          <path
             d="m 95.518716,247.21236 q -23.298984,0 -23.298984,-21.92223 0,-15.56795 8.578262,-25.62888 9.107785,-10.69635 24.887546,-10.69635 11.43769,0 17.26243,5.29522 5.82475,5.29523 5.82475,16.4152 0,16.94471 -9.10778,26.79383 -8.89598,9.74321 -24.146224,9.74321 z m 2.753516,-46.06845 q -1.270854,2.85942 -2.329899,7.20151 -0.95314,4.23618 -2.223993,11.01406 -1.270854,6.77789 -1.270854,15.14434 0,2.75352 0.847236,4.55389 0.95314,1.80038 3.388943,1.80038 2.435803,0 3.918465,-1.16495 1.58857,-1.16495 2.75352,-3.91846 2.11809,-4.87161 3.81256,-13.87349 1.69447,-9.10779 1.80037,-13.02625 0.21181,-3.91847 0.21181,-6.77789 0,-2.96532 -0.84723,-4.8716 -0.84724,-1.90628 -3.28304,-1.90628 -2.3299,0 -3.91847,1.48266 -1.588564,1.48266 -2.859418,4.34208 z"
             style="fill:#fff186;fill-opacity:1;stroke:#feb300;stroke-width:2.16163945;stroke-miterlimit:4;stroke-dasharray:none;stroke-opacity:1"
             id="path134" />
          <path
             d="m 168.25359,215.33511 q 3.81256,-6.77788 3.81256,-13.66167 0,-4.5539 -3.28304,-4.5539 -2.5417,0 -5.18932,4.34209 -2.75351,4.34208 -3.60075,9.95502 l -5.50703,33.67762 -21.92223,2.11809 10.80226,-56.12937 17.47424,-2.11809 -1.90628,10.69635 q 5.18932,-10.69635 16.83881,-10.69635 6.14246,0 9.4255,3.17713 3.38894,3.17714 3.38894,9.74321 0,6.46018 -4.34208,10.59045 -4.23618,4.13028 -11.54359,4.13028 -3.17714,0 -4.44799,-1.27086 z"
             style="fill:#fff186;fill-opacity:1;stroke:#feb300;stroke-width:2.16163945;stroke-miterlimit:4;stroke-dasharray:none;stroke-opacity:1"
             id="path136" />
          <path
             d="m 208.87458,245.09427 19.16871,-69.89695 h 22.13404 l 4.8716,39.92598 19.69824,-39.92598 h 18.53328 l 1.90628,52.31681 q 0.42362,10.37863 5.50703,13.55577 -1.16495,2.11809 -4.55389,4.13027 -3.38894,2.01219 -7.94284,2.01219 -4.44798,0 -7.0956,-1.27086 -2.64761,-1.27085 -4.13027,-3.38894 -2.64761,-3.81256 -2.64761,-11.11997 v -32.72448 l -20.86318,46.38616 h -13.13216 l -7.41331,-47.55111 -11.8613,47.55111 z"
             style="fill:#fff186;fill-opacity:1;stroke:#feb300;stroke-width:2.16163945;stroke-miterlimit:4;stroke-dasharray:none;stroke-opacity:1"
             id="path138" />
          <path
             d="m 330.75572,239.26952 q -3.28304,7.94284 -13.76758,7.94284 -5.40113,0 -8.79007,-3.70666 -2.85942,-3.28304 -2.85942,-6.56608 0,-8.57826 3.91846,-25.31116 l 3.91847,-20.54547 21.4986,-2.11809 -6.46017,33.46581 q -1.80037,7.83693 -1.80037,10.59045 0,6.03655 4.34208,6.24836 z m -15.67386,-62.90725 q 0,-4.13028 3.38894,-6.35427 3.49485,-2.224 8.47236,-2.224 4.97751,0 7.94283,2.224 3.07123,2.22399 3.07123,6.35427 0,4.13027 -3.38894,6.24836 -3.28304,2.11809 -8.26055,2.11809 -4.97751,0 -8.15464,-2.11809 -3.07123,-2.11809 -3.07123,-6.24836 z"
             style="fill:#fff186;fill-opacity:1;stroke:#feb300;stroke-width:2.16163945;stroke-miterlimit:4;stroke-dasharray:none;stroke-opacity:1"
             id="path140" />
          <path
             d="m 371.34032,207.9218 q 1.48267,-3.91847 1.48267,-7.30741 0,-6.24836 -5.08342,-6.24836 -2.64761,0 -4.8716,2.4358 -2.11809,2.3299 -2.11809,5.29522 0,2.11809 1.69447,3.81256 2.4358,2.3299 8.68417,6.14246 6.24836,3.81256 8.57826,6.9897 2.4358,3.07123 2.4358,7.41331 0,4.23618 -2.11809,8.15465 -2.01218,3.91846 -5.71884,6.67198 -7.94284,5.93065 -20.65137,5.93065 -6.88379,0 -12.17902,-3.60075 -5.29522,-3.49485 -5.29522,-7.62513 0,-4.13027 2.96533,-6.56607 3.07123,-2.43581 7.51921,-2.43581 4.44799,0 7.20151,1.69448 -1.37676,3.49484 -1.37676,5.82474 0,6.9897 5.93065,6.9897 2.54171,0 4.23618,-1.58857 1.69447,-1.58857 1.69447,-4.34208 0,-5.40113 -9.10778,-11.11997 -7.41332,-4.87161 -9.10779,-6.77789 -2.85942,-3.38894 -2.85942,-7.62512 0,-4.23618 2.01218,-8.26055 2.01219,-4.02437 5.71885,-6.88379 7.73102,-5.93065 21.18089,-5.93065 6.88379,0 10.90816,2.75351 4.13028,2.75352 4.13028,7.41332 0,4.65979 -2.85942,7.30741 -2.75352,2.64761 -7.83694,2.64761 -3.49484,0 -5.18932,-1.16495 z"
             style="fill:#fff186;fill-opacity:1;stroke:#feb300;stroke-width:2.16163945;stroke-miterlimit:4;stroke-dasharray:none;stroke-opacity:1"
             id="path142" />
          <path
             d="m 416.59629,239.26952 q -3.28303,7.94284 -13.76758,7.94284 -5.40112,0 -8.79007,-3.70666 -2.85942,-3.28304 -2.85942,-6.56608 0,-8.57826 3.91847,-25.31116 l 3.91846,-20.54547 21.49861,-2.11809 -6.46017,33.46581 q -1.80038,7.83693 -1.80038,10.59045 0,6.03655 4.34208,6.24836 z m -15.67386,-62.90725 q 0,-4.13028 3.38895,-6.35427 3.49484,-2.224 8.47235,-2.224 4.97751,0 7.94284,2.224 3.07123,2.22399 3.07123,6.35427 0,4.13027 -3.38894,6.24836 -3.28304,2.11809 -8.26055,2.11809 -4.97751,0 -8.15465,-2.11809 -3.07123,-2.11809 -3.07123,-6.24836 z"
             style="fill:#fff186;fill-opacity:1;stroke:#feb300;stroke-width:2.16163945;stroke-miterlimit:4;stroke-dasharray:none;stroke-opacity:1"
             id="path144" />
          <path
             d="m 448.60258,247.21236 q -23.29899,0 -23.29899,-21.92223 0,-15.56795 8.57827,-25.62888 9.10778,-10.69635 24.88755,-10.69635 11.43768,0 17.26243,5.29522 5.82474,5.29523 5.82474,16.4152 0,16.94471 -9.10778,26.79383 -8.89598,9.74321 -24.14622,9.74321 z m 2.75351,-46.06845 q -1.27085,2.85942 -2.32989,7.20151 -0.95314,4.23618 -2.224,11.01406 -1.27085,6.77789 -1.27085,15.14434 0,2.75352 0.84723,4.55389 0.95314,1.80038 3.38895,1.80038 2.4358,0 3.91846,-1.16495 1.58857,-1.16495 2.75352,-3.91846 2.11809,-4.87161 3.81256,-13.87349 1.69447,-9.10779 1.80038,-13.02625 0.2118,-3.91847 0.2118,-6.77789 0,-2.96532 -0.84723,-4.8716 -0.84724,-1.90628 -3.28304,-1.90628 -2.3299,0 -3.91847,1.48266 -1.58856,1.48266 -2.85942,4.34208 z"
             style="fill:#fff186;fill-opacity:1;stroke:#feb300;stroke-width:2.16163945;stroke-miterlimit:4;stroke-dasharray:none;stroke-opacity:1"
             id="path146" />
          <path
             d="m 532.98694,247.21236 q -12.81444,0 -12.81444,-9.95502 0.10591,-2.75352 0.95314,-7.41332 l 1.90628,-9.74321 q 2.85943,-13.76758 2.85943,-16.83881 0,-6.14246 -3.60076,-6.14246 -6.03655,0 -9.21369,15.77977 l -6.24836,32.19496 -21.2868,2.11809 11.01407,-56.23528 17.36833,-2.01218 -1.69447,10.37864 q 4.97751,-10.37864 20.22775,-10.37864 7.41332,0 10.48455,3.17713 3.17713,3.07123 3.17713,10.06093 0,6.56607 -3.38894,21.92222 -1.58857,6.88379 -1.58857,9.53141 0,2.5417 1.37676,4.02437 1.48266,1.48266 3.60075,1.69447 -1.05905,3.60075 -4.7657,5.71884 -3.60075,2.11809 -8.36646,2.11809 z"
             style="fill:#fff186;fill-opacity:1;stroke:#feb300;stroke-width:2.16163945;stroke-miterlimit:4;stroke-dasharray:none;stroke-opacity:1"
             id="path148" />
          <path
             d="m 597.47776,227.19641 q 2.64761,1.80038 2.64761,5.82475 0,3.91846 -2.01218,6.46017 -2.01219,2.54171 -5.29523,4.23618 -6.77788,3.49485 -14.08529,3.49485 -7.30741,0 -11.64949,-1.58857 -4.23618,-1.58857 -7.0956,-4.55389 -5.61294,-5.61294 -5.61294,-15.88567 0,-15.99158 8.68417,-25.73479 9.31959,-10.48454 25.52297,-10.48454 10.06093,0 15.03844,4.23618 3.70666,3.17713 3.70666,8.36645 0,18.63919 -32.19496,18.63919 -0.42362,2.75351 -0.42362,5.08341 0,4.87161 2.11809,6.77789 2.22399,1.80037 6.24836,1.80037 4.02437,0 8.26055,-1.80037 4.34208,-1.90628 6.14246,-4.87161 z m -21.60451,-11.54358 q 7.51921,0 11.8613,-4.6598 4.34208,-4.44799 4.34208,-11.54359 0,-2.4358 -0.95314,-3.70666 -0.84724,-1.37675 -2.64761,-1.37675 -1.80038,0 -3.38894,0.74133 -1.48267,0.63542 -3.07123,2.96532 -3.91847,5.29523 -6.14246,17.58015 z"
             style="fill:#fff186;fill-opacity:1;stroke:#feb300;stroke-width:2.16163945;stroke-miterlimit:4;stroke-dasharray:none;stroke-opacity:1"
             id="path150" />
          <path
             d="m 643.99639,215.33511 q 3.81256,-6.77788 3.81256,-13.66167 0,-4.5539 -3.28304,-4.5539 -2.54171,0 -5.18932,4.34209 -2.75351,4.34208 -3.60075,9.95502 l -5.50703,33.67762 -21.92223,2.11809 10.80226,-56.12937 17.47424,-2.11809 -1.90629,10.69635 q 5.18932,-10.69635 16.83882,-10.69635 6.14246,0 9.42549,3.17713 3.38895,3.17714 3.38895,9.74321 0,6.46018 -4.34209,10.59045 -4.23618,4.13028 -11.54358,4.13028 -3.17714,0 -4.44799,-1.27086 z"
             style="fill:#fff186;fill-opacity:1;stroke:#feb300;stroke-width:2.16163945;stroke-miterlimit:4;stroke-dasharray:none;stroke-opacity:1"
             id="path152" />
          <path
             d="m 689.163,247.21236 q -23.29898,0 -23.29898,-21.92223 0,-15.56795 8.57826,-25.62888 9.10779,-10.69635 24.88755,-10.69635 11.43769,0 17.26243,5.29522 5.82475,5.29523 5.82475,16.4152 0,16.94471 -9.10779,26.79383 -8.89597,9.74321 -24.14622,9.74321 z m 2.75352,-46.06845 q -1.27085,2.85942 -2.3299,7.20151 -0.95314,4.23618 -2.22399,11.01406 -1.27086,6.77789 -1.27086,15.14434 0,2.75352 0.84724,4.55389 0.95314,1.80038 3.38894,1.80038 2.4358,0 3.91847,-1.16495 1.58856,-1.16495 2.75351,-3.91846 2.11809,-4.87161 3.81256,-13.87349 1.69448,-9.10779 1.80038,-13.02625 0.21181,-3.91847 0.21181,-6.77789 0,-2.96532 -0.84724,-4.8716 -0.84723,-1.90628 -3.28303,-1.90628 -2.3299,0 -3.91847,1.48266 -1.58857,1.48266 -2.85942,4.34208 z"
             style="fill:#fff186;fill-opacity:1;stroke:#feb300;stroke-width:2.16163945;stroke-miterlimit:4;stroke-dasharray:none;stroke-opacity:1"
             id="path154" />
          <path
             d="m 760.41509,207.9218 q 1.48267,-3.91847 1.48267,-7.30741 0,-6.24836 -5.08342,-6.24836 -2.64761,0 -4.8716,2.4358 -2.11809,2.3299 -2.11809,5.29522 0,2.11809 1.69447,3.81256 2.4358,2.3299 8.68416,6.14246 6.24837,3.81256 8.57827,6.9897 2.4358,3.07123 2.4358,7.41331 0,4.23618 -2.11809,8.15465 -2.01219,3.91846 -5.71884,6.67198 -7.94284,5.93065 -20.65137,5.93065 -6.88379,0 -12.17902,-3.60075 -5.29522,-3.49485 -5.29522,-7.62513 0,-4.13027 2.96532,-6.56607 3.07123,-2.43581 7.51922,-2.43581 4.44799,0 7.20151,1.69448 -1.37676,3.49484 -1.37676,5.82474 0,6.9897 5.93065,6.9897 2.5417,0 4.23618,-1.58857 1.69447,-1.58857 1.69447,-4.34208 0,-5.40113 -9.10779,-11.11997 -7.41331,-4.87161 -9.10778,-6.77789 -2.85942,-3.38894 -2.85942,-7.62512 0,-4.23618 2.01218,-8.26055 2.01219,-4.02437 5.71884,-6.88379 7.73103,-5.93065 21.1809,-5.93065 6.88379,0 10.90816,2.75351 4.13027,2.75352 4.13027,7.41332 0,4.65979 -2.85942,7.30741 -2.75351,2.64761 -7.83693,2.64761 -3.49485,0 -5.18932,-1.16495 z"
             style="fill:#fff186;fill-opacity:1;stroke:#feb300;stroke-width:2.16163945;stroke-miterlimit:4;stroke-dasharray:none;stroke-opacity:1"
             id="path156" />
        </g>
        <g
           style="font-style:normal;font-variant:normal;font-weight:normal;font-stretch:normal;font-size:40px;line-height:1.25;font-family:'Sansita One';-inkscape-font-specification:'Sansita One';letter-spacing:0px;word-spacing:0px;fill:#000000;fill-opacity:1;stroke:none"
           id="flowRoot43" />
      </g>
    </g>
  </g>
</svg>
