<svg xmlns="http://www.w3.org/2000/svg" xmlns:xlink="http://www.w3.org/1999/xlink" viewBox="0 0 1920 384"><defs><clipPath id="clip-path"><polygon points="1922.96 387 -3 387 -2.89 -3.44 1922.96 -3.73 1922.96 387" class="cls-1"/></clipPath><clipPath id="clip-path-2"><path d="M214,83.34c-14.15,24.37-34.66,34.51-54.41,23S138,70.33,152.11,46s38.94-39.3,58.69-27.84S228.13,59,214,83.34Z" class="cls-1"/></clipPath><style>.cls-1{fill:none}.cls-4{fill:#1c308a}.cls-12{fill:#0d47bc}.cls-9{fill:#3a8aef}.cls-10{fill:#0d4399}.cls-11{opacity:.5}.cls-15{fill:#0f58ce}.cls-27{fill:#e6a600}.cls-28{fill:#fdcb3f}.cls-29{fill:#f9bd00}.cls-30{fill:#ee8300}.cls-32{fill:#cf6415}.cls-33{fill:#fff}.cls-34{fill:#eee}.cls-36{fill:#302c29}.cls-37{fill:#ffd67a}.cls-38{fill:#2793ff}.cls-39{fill:#1256c4}.cls-40{fill:#152972}</style></defs><title>2020 BP SS 1.1</title><g style="isolation:isolate"><g id="Artwork"><g clip-path="url(#clip-path)"><polygon points="1922.96 387 -3 387 -2.89 -3.44 1922.96 -3.73 1922.96 387" class="cls-4"/><path fill="#0d47bc" d="M-2.81-3.73H1923c-61.09,315-305.23,376.2-256.81,239.76C1738.72,31.58,1289.93,341.76,955.88,376,570.69,415.41,244.6,26,308.21,178.89,466.42,559.09-2.9,78.62-2.9,78.62Z" opacity=".3"/><g opacity=".6"><circle cx="66.56" cy="309.1" r="77.94" class="cls-4"/><circle cx="66.56" cy="309.1" r="88.69" fill="none" stroke="#0f58ce" stroke-linecap="round" stroke-miterlimit="10" stroke-width="1.11"/><circle cx="66.56" cy="309.1" r="100" fill="none" stroke="#0f58ce" stroke-dasharray="0 5.53 33.15 5.53 0 0" stroke-linecap="round" stroke-miterlimit="10" stroke-width="1.11"/><path d="M56.28,258.07,16.85,292.12s2.82,66.37,64.65,69.45c0,0,50.05-23.6,25.94-91.53l-28.06-5.79Z" class="cls-9"/><path d="M58,265.16,23.67,294.57s2.79,57.1,56.06,59.75c0,0,42.76-20.24,22-78.77Z" class="cls-10"/><circle cx="68.73" cy="309.19" r="2.48" class="cls-9"/><rect width="2.69" height="10.35" x="68.56" y="308.51" class="cls-9" rx=".8" transform="translate(-72.27 25.47) rotate(-13.69)"/><circle cx="57.2" cy="261.9" r="1.88" class="cls-9"/><circle cx="80.67" cy="358.23" r="1.88" class="cls-9"/><circle cx="62.45" cy="283.45" r="1.88" class="cls-9"/><circle cx="104.87" cy="273.11" r="1.88" class="cls-9"/><circle cx="20.63" cy="293.64" r="1.88" class="cls-9"/><circle cx="110.73" cy="299.9" r="1.88" class="cls-9"/><circle cx="26.67" cy="320.39" r="1.88" class="cls-9"/><circle cx="75.79" cy="338.2" r="1.88" class="cls-9"/><circle cx="106.07" cy="330.82" r="1.88" class="cls-9"/><circle cx="106.07" cy="330.82" r="1.88" class="cls-9"/><circle cx="45.65" cy="345.54" r="1.88" class="cls-9"/></g><g class="cls-11"><circle cx="746.29" cy="101.69" r="64.86" class="cls-12"/><circle cx="746.29" cy="101.69" r="74.75" fill="none" stroke="#0f58ce" stroke-linecap="round" stroke-miterlimit="10" stroke-width=".82"/><circle cx="746.29" cy="101.69" r="84.98" fill="none" stroke="#0f58ce" stroke-dasharray="0 4.12 24.69 4.12 0 0" stroke-linecap="round" stroke-miterlimit="10" stroke-width=".82"/><path d="M702,121.29l40,33.93,19.25-16a147.36,147.36,0,0,0-6.67-24.78c-5-13.73-5.53-21.16-5.53-21.16s6.67,4.19,11.06,4.38,7.24-1,10.29,0,7.53,5.24,9,7.29,2.16,3.53,3.82,3.43,2.84-2.94,5.78-3.33,4.71-.19,5.78-1.27-2.15-4.31-2.45-6.17a18.4,18.4,0,0,1,.3-4.9s-7.55-1.28-14.8-10.29-7.54-14.31-7.54-14.31-6.66-1.76-11-5.29-5.29-4.31-5-7,.88-7.26.88-7.26-5.49,3.14-6.27,6.77c-.66,3.06.59,4.31.59,4.31s-19.88,3.06-32.43,19.49C702,99,706.36,117.09,702,121.29Z" class="cls-9"/><path d="M757.11,56.25s8.14,8.23,11.76,8.62,6.27,1.08,12.35,2.94,12.63,3.82,17.73.88,7.45-15,2.45-21.65c-.2,8.13-.88,13.32-4.51,13.71S783.18,58.11,776.71,54A15.2,15.2,0,0,0,757.11,56.25Z" class="cls-15"/><path d="M721.84,69.38s12.74-10.88,23.81-12.45a18.18,18.18,0,0,0-16.85,1.18C724.39,60.85,722.43,67.71,721.84,69.38Z" class="cls-15"/><path d="M720.08,71.34s-14.8,12.74-16.85,30.57c-1.08,9.5-.49,16.16-2.55,18.91-5.1-12.94-6.73-26.22,2.55-37.43C712.17,72.57,719.07,70.88,720.08,71.34Z" class="cls-15"/><path d="M811.63,22.4l.06,0L771.22,48a42.63,42.63,0,0,1,5.44,1.54,13.15,13.15,0,0,0,4.18-2C783.94,45.27,803.64,29,811.63,22.4Z" class="cls-15"/><path d="M780.84,47.53a13.15,13.15,0,0,1-4.18,2,19.92,19.92,0,0,1,5,2.47c7.15-6.67,28.85-28.46,30-29.63C803.64,29,783.94,45.27,780.84,47.53Z" class="cls-15"/></g><circle cx="1527.82" cy="245.89" r="74.41" class="cls-9"/><circle cx="1527.82" cy="245.89" r="86.24" fill="none" stroke="#0f58ce" stroke-linecap="round" stroke-miterlimit="10" stroke-width=".93"/><circle cx="1527.82" cy="245.89" r="99.97" fill="none" stroke="#0f58ce" stroke-dasharray="0 4.67 27.99 4.67 0 0" stroke-linecap="round" stroke-miterlimit="10" stroke-width=".93"/><path d="M1512.56,196.05a26.76,26.76,0,0,1,33.38,17.74l3.43,11.17-51.12,15.65-3.42-11.18a26.77,26.77,0,0,1,17.73-33.38Zm24.6,32.65-3.42-11.18A14,14,0,1,0,1507,225.7l3.42,11.18Zm-5,46.09a1.75,1.75,0,0,0,2.18,1.16l4.9-1.5a1.75,1.75,0,0,0,1.16-2.18l-3.23-10.56a7.47,7.47,0,1,0-8.24,2.52Z" class="cls-15"/><path d="M1549.37,225l4.52-1.38a2.77,2.77,0,0,1,3.45,1.84s15.3,51.13,14.93,51.77-61.74,19.68-61.74,19.68a2.75,2.75,0,0,1-3.45-1.83l-15.18-49.59a2.75,2.75,0,0,1,1.83-3.45l4.52-1.39Zm-12.21,3.74-26.71,8.18m21.71,37.91a1.75,1.75,0,0,0,2.18,1.16l4.9-1.5a1.75,1.75,0,0,0,1.16-2.18l-3.23-10.56a7.47,7.47,0,1,0-8.24,2.52Z" class="cls-10"/><g opacity=".8"><circle cx="1832.1" cy="332.7" r="77.93" class="cls-9"/><circle cx="1832.1" cy="332.7" r="88.68" fill="none" stroke="#0f58ce" stroke-linecap="round" stroke-miterlimit="10" stroke-width="1.1"/><circle cx="1832.1" cy="332.7" r="99.99" fill="none" stroke="#0f58ce" stroke-dasharray="0 5.52 33.15 5.52 0 0" stroke-linecap="round" stroke-miterlimit="10" stroke-width="1.1"/><polygon fill="#6363aa" points="1796.11 290.52 1814.89 291.56 1796.28 313.06 1814.86 314.1 1777.69 312.02 1796.11 290.52"/><polygon fill="#7ab8ee" points="1834.36 292.39 1814.96 314.54 1833.08 315.55 1851.2 316.56 1834.36 292.39"/><polygon points="1834.36 292.39 1814.96 314.54 1833.08 315.55 1851.2 316.56 1834.36 292.39" class="cls-15"/><polygon points="1829.27 383.34 1851.2 316.56 1833.08 315.55 1814.96 314.54 1829.27 383.34" class="cls-15"/><polygon points="1851.2 316.56 1873.12 294.54 1857.3 293.68 1834.36 292.39 1851.2 316.56" class="cls-10"/><polygon points="1873.12 294.54 1889.54 318.71 1851.2 316.56 1873.12 294.54" class="cls-10"/><polygon points="1814.96 314.54 1795.62 290.21 1811.41 291.11 1834.36 292.39 1814.96 314.54" class="cls-10"/><polygon points="1795.62 290.21 1776.62 312.4 1814.96 314.54 1795.62 290.21" class="cls-10"/><polygon points="1776.62 312.4 1829.27 383.34 1814.96 314.54 1776.62 312.4" class="cls-10"/><polygon points="1851.2 316.56 1829.27 383.34 1889.54 318.71 1851.2 316.56" class="cls-10"/><polygon points="1829.27 383.34 1884.25 318.46 1873.12 294.54 1878.93 318.11 1829.27 383.34" style="mix-blend-mode:multiply" opacity=".21"/><polygon points="1834.19 295.27 1846.79 316.37 1829.27 383.34 1842.86 316.09 1834.19 295.27" class="cls-9"/></g><polygon points="1923 383.57 .14 383.57 .26 -.73 1923 -1.01 1923 383.57" class="cls-1"/><g class="cls-11"><circle cx="185.31" cy="63.32" r="66.25" class="cls-12"/><circle cx="185.31" cy="63.32" r="75.38" fill="none" stroke="#0f58ce" stroke-linecap="round" stroke-miterlimit="10" stroke-width="1.19"/><circle cx="185.31" cy="63.32" r="85" fill="none" stroke="#0f58ce" stroke-dasharray="0 4.7 28.18 4.7 0 0" stroke-linecap="round" stroke-miterlimit="10" stroke-width="1.19"/><g clip-path="url(#clip-path-2)"><path d="M228.82,39.2A45.28,45.28,0,0,0,218.6,22.15,41.13,41.13,0,0,0,205,13C195.63,9,186.17,8.9,180.92,10a.29.29,0,0,0-.24.36.31.31,0,0,0,.36.24c5.17-1.07,14.48-.94,23.73,2.94a40.33,40.33,0,0,1,13.39,9A44.74,44.74,0,0,1,228.24,39.4a.26.26,0,0,0,.14.17.31.31,0,0,0,.25,0A.3.3,0,0,0,228.82,39.2Z" class="cls-9"/><path d="M203.66,15.39c-9.8-4-19.68-3.93-25.17-2.61a.31.31,0,0,0-.22.38.3.3,0,0,0,.37.22C184,12.08,193.76,12,203.42,16c8,3.29,18.61,10.6,24,26.74a.29.29,0,0,0,.38.19.3.3,0,0,0,.2-.39C222.54,26.13,211.75,18.72,203.66,15.39Z" class="cls-9"/><path d="M202.31,17.81c-10.19-4.13-20.5-3.78-26.24-2.23a.31.31,0,0,0-.21.38.31.31,0,0,0,.38.22c5.64-1.53,15.79-1.87,25.84,2.2,8.18,3.32,19.06,10.8,24.43,27.59a.3.3,0,0,0,.14.17.28.28,0,0,0,.25,0,.3.3,0,0,0,.2-.38C221.65,28.77,210.61,21.18,202.31,17.81Z" class="cls-9"/><path d="M173.66,18.38a.31.31,0,1,0,.17.59c12.69-3.77,42-1.32,51.82,30.29a.34.34,0,0,0,.14.17.31.31,0,0,0,.25,0,.3.3,0,0,0,.2-.38C216.33,17,186.53,14.56,173.66,18.38Z" class="cls-9"/><path d="M216.37,34.86A40.58,40.58,0,0,0,203.83,24.6a45.08,45.08,0,0,0-17.86-5,41,41,0,0,0-14.73,1.54.31.31,0,0,0-.2.39.29.29,0,0,0,.14.17.35.35,0,0,0,.25,0c8-2.55,21-2.5,32.12,3.37,10.28,5.42,17.42,14.64,21.24,27.4a.31.31,0,0,0,.59-.17A50.23,50.23,0,0,0,216.37,34.86Z" class="cls-9"/><path d="M215.37,37.54A40.79,40.79,0,0,0,202.49,27a45.17,45.17,0,0,0-18.34-4.89A41.94,41.94,0,0,0,168.82,24a.3.3,0,0,0-.19.39.29.29,0,0,0,.14.17.31.31,0,0,0,.25,0,41.36,41.36,0,0,1,15.1-1.84,44.48,44.48,0,0,1,18.09,4.83,40,40,0,0,1,12.68,10.38,50.49,50.49,0,0,1,9,17.9.31.31,0,0,0,.59-.17A51.3,51.3,0,0,0,215.37,37.54Z" class="cls-9"/><path d="M214.37,40.23a41,41,0,0,0-13.19-10.81,45.77,45.77,0,0,0-34.78-2.64.3.3,0,0,0-.18.39.26.26,0,0,0,.13.16.3.3,0,0,0,.26,0A45.07,45.07,0,0,1,200.9,30a40.18,40.18,0,0,1,13,10.65,51.49,51.49,0,0,1,9.18,18.49.31.31,0,0,0,.38.22.32.32,0,0,0,.21-.38A52.27,52.27,0,0,0,214.37,40.23Z" class="cls-9"/><path d="M213.38,42.93a41.1,41.1,0,0,0-13.5-11.08A46.54,46.54,0,0,0,164,29.58a.3.3,0,0,0-.18.39.26.26,0,0,0,.13.16.27.27,0,0,0,.26,0,45.94,45.94,0,0,1,35.4,2.25,40.46,40.46,0,0,1,13.3,10.92,52.5,52.5,0,0,1,9.31,19.08.31.31,0,0,0,.37.22.32.32,0,0,0,.22-.38A53.27,53.27,0,0,0,213.38,42.93Z" class="cls-9"/><path d="M212.4,45.65a41.24,41.24,0,0,0-13.79-11.36c-13.47-6.83-28.37-5.3-37-1.91a.3.3,0,0,0-.17.39.29.29,0,0,0,.13.16.36.36,0,0,0,.27,0c8.55-3.34,23.25-4.85,36.53,1.89A40.57,40.57,0,0,1,211.92,46a53.53,53.53,0,0,1,9.42,19.66.31.31,0,0,0,.38.21.31.31,0,0,0,.22-.37A54.35,54.35,0,0,0,212.4,45.65Z" class="cls-9"/><path d="M211.43,48.36a41.71,41.71,0,0,0-14.09-11.62c-13.8-7-29.2-5.2-38.18-1.57a.3.3,0,0,0-.17.4l.13.15a.29.29,0,0,0,.27,0c8.86-3.58,24.05-5.32,37.68,1.55a40.79,40.79,0,0,1,13.87,11.45A54.86,54.86,0,0,1,220.48,69a.31.31,0,0,0,.6-.15A55.47,55.47,0,0,0,211.43,48.36Z" class="cls-9"/><path d="M210.46,51.08a41.83,41.83,0,0,0-14.37-11.89,46.55,46.55,0,0,0-20.92-4.74A49.33,49.33,0,0,0,156.74,38a.31.31,0,0,0-.16.4l.13.15a.29.29,0,0,0,.27,0c9.19-3.83,24.87-5.81,38.83,1.2A41.06,41.06,0,0,1,210,51.46a55.88,55.88,0,0,1,9.65,20.8.31.31,0,0,0,.6-.15A56.72,56.72,0,0,0,210.46,51.08Z" class="cls-9"/><path d="M209.49,53.81a42,42,0,0,0-14.65-12.16,47,47,0,0,0-21.45-4.74,50.88,50.88,0,0,0-19.06,3.86.3.3,0,0,0-.16.4l.12.15a.31.31,0,0,0,.28,0,50.25,50.25,0,0,1,18.83-3.81,46.37,46.37,0,0,1,21.17,4.67,41.3,41.3,0,0,1,14.43,12,57,57,0,0,1,9.76,21.35.3.3,0,0,0,.37.23.32.32,0,0,0,.23-.37A57.71,57.71,0,0,0,209.49,53.81Z" class="cls-9"/><path d="M193.78,44.07A41.66,41.66,0,0,0,172.34,40,64.11,64.11,0,0,0,151,45.21a.3.3,0,0,0-.16.4l.13.15a.32.32,0,0,0,.27,0,63.38,63.38,0,0,1,21.17-5.2,41,41,0,0,1,21.14,4c11.5,5.83,19.35,17.47,23.31,34.6a.31.31,0,0,0,.37.23.29.29,0,0,0,.23-.36C213.42,61.77,205.47,50,193.78,44.07Z" class="cls-9"/><path d="M215.32,80c-.14-.33-.29-.67-.43-1a185.44,185.44,0,0,0-7.61-17.12c-3.8-7.19-8.3-12-14.16-15.16-6.6-3.53-13.72-4.69-22.41-3.64-7.26.88-14.62,3.15-21.5,5.47a.31.31,0,0,0-.19.39.39.39,0,0,0,.14.17.31.31,0,0,0,.25,0c6.84-2.31,14.17-4.56,21.38-5.44,8.55-1,15.56.1,22,3.58,5.75,3.09,10.17,7.82,13.91,14.89,2.45,4.65,4.81,10.19,7.59,17.07.13.35.28.69.42,1a13.24,13.24,0,0,1,.85,2.28.31.31,0,0,0,.36.23.32.32,0,0,0,.24-.37A15.59,15.59,0,0,0,215.32,80Z" class="cls-9"/><path d="M214,83.71c-.24-.4-.49-.81-.72-1.24-2.94-5.52-5.38-11.22-7.52-16.24l-.42-1c-2.56-6-5.94-12.08-13.27-16.11-8.57-4.69-16.33-4.13-22.79-3a141.73,141.73,0,0,0-14.18,3.6c-2.73.8-5.31,1.56-7.61,2.1a.3.3,0,0,0-.08.56.28.28,0,0,0,.22,0c2.31-.54,4.9-1.3,7.64-2.1a139.23,139.23,0,0,1,14.12-3.58c6.35-1.15,14-1.71,22.38,2.89,7.17,3.94,10.49,9.93,13,15.81l.41,1c2.15,5,4.59,10.74,7.55,16.29.24.44.49.86.74,1.27a7.57,7.57,0,0,1,.91,1.8.32.32,0,0,0,.37.23.31.31,0,0,0,.23-.37A7.57,7.57,0,0,0,214,83.71Z" class="cls-9"/><path d="M212.69,87.36c-.34-.43-.72-.91-1.06-1.42a75.65,75.65,0,0,1-8.27-17.28c-2.15-6.45-4.69-12.6-12-16.84L191,51.6c-9.05-5.05-16.7-3.82-23.16-2.28-3.44.83-6.85,1.87-10.14,2.87a79.11,79.11,0,0,1-11.93,3.05.32.32,0,0,0-.27.35.29.29,0,0,0,.34.26,78.37,78.37,0,0,0,12-3.07c3.28-1,6.68-2,10.1-2.86,6.64-1.59,13.87-2.73,22.73,2.22,7.42,4.15,9.95,10.27,12.1,16.72a76.23,76.23,0,0,0,8.34,17.42c.35.53.74,1,1.09,1.46a5.74,5.74,0,0,1,.94,1.39.3.3,0,0,0,.36.23.31.31,0,0,0,.23-.37A5.12,5.12,0,0,0,212.69,87.36Z" class="cls-9"/><path d="M211.49,91A20.06,20.06,0,0,1,210,89.42a46.71,46.71,0,0,1-8.6-17.37c-1.52-6.24-3.24-13.31-11.5-18-9.18-5.21-16.1-3.8-23.54-1.59-2.55.75-5.1,1.61-7.57,2.44-5.67,1.9-11,3.7-14.78,3.71a.31.31,0,0,0-.16.57l.16,0c3.85,0,9.25-1.82,15-3.74,2.47-.83,5-1.68,7.55-2.44,7.31-2.16,14.1-3.54,23.07,1.55,8,4.56,9.72,11.5,11.21,17.62a47.17,47.17,0,0,0,8.71,17.6,21.61,21.61,0,0,0,1.53,1.66,5.85,5.85,0,0,1,.87,1,.31.31,0,1,0,.6-.14C212.45,92,212.14,91.68,211.49,91Z" class="cls-9"/><path d="M210.46,94.76a20.09,20.09,0,0,1-2.1-1.86,34.62,34.62,0,0,1-8.92-17.45l-.1-.72c-1-6.27-2.07-13.38-10.42-18.23l-.08,0c-10.05-5.84-17.12-3.3-23.93-.9-1.84.65-3.71,1.34-5.51,2-6.75,2.52-13.13,4.91-17.12,4.37a.29.29,0,0,0-.34.26.3.3,0,0,0,.14.31l.12,0c4.14.56,10.58-1.84,17.4-4.39,1.8-.67,3.69-1.41,5.53-2.06,6.68-2.35,13.62-4.85,23.43.84l.08,0c8.09,4.69,9.1,11.37,10.1,17.8l.1.72a35.36,35.36,0,0,0,9.08,17.79,22.24,22.24,0,0,0,2.15,1.92c.27.22.57.47.65.55a.29.29,0,0,0,.34.18.3.3,0,0,0,.23-.37C211.25,95.41,211.1,95.28,210.46,94.76Z" class="cls-9"/><path d="M209.92,98.7a22.39,22.39,0,0,1-3.2-2.32c-5.18-4.67-8.81-11.55-9.25-17.53,0-.43-.05-.89-.08-1.33-.42-6.34-.88-13.55-9.62-18.62l0,0c-10.23-5.94-17.1-3.13-23.74-.42l-.52.22c-1.2.48-2.42,1-3.6,1.49-7.81,3.25-15.2,6.33-19.31,5.14a.32.32,0,0,0-.39.21.32.32,0,0,0,.15.35l.06,0c4.33,1.24,11.8-1.87,19.72-5.16,1.18-.49,2.39-1,3.59-1.48l.49-.18c6.8-2.77,13.2-5.35,23.17.44l0,0c8.45,4.91,8.94,11.88,9.35,18.07,0,.45.08.85.11,1.29.45,6.13,4.17,13.16,9.46,17.93a21.55,21.55,0,0,0,3.3,2.39.31.31,0,0,0,.31-.53Z" class="cls-9"/><path d="M139.65,79.35c15.08,2.39,25.93-5.23,28-11.64.5-1.57.39-2.68-.32-3.29-1.47-1.26-5.3-.28-12.42,3.19-5.23,2.56-11.14,3.59-15.06,2.64a.3.3,0,0,0-.37.23.31.31,0,0,0,.22.37c4.05,1,10.13-.07,15.48-2.68,2.46-1.2,9.93-4.85,11.75-3.28.5.43.55,1.32.13,2.63-2,6.21-12.54,13.56-27.28,11.22a.31.31,0,0,0-.35.26.3.3,0,0,0,.15.31Z" class="cls-9"/><path d="M138.41,81.26a2.52,2.52,0,0,0,.88.32c9.38,1.48,16.28-.71,20.41-2.81,5.05-2.56,8.81-6.44,10.06-10.38,1-3.12,0-4.81-1-5.67a3.92,3.92,0,0,0-.62-.45c-2.84-1.64-7.56,0-14.26,3.32C150,67.5,144.25,69,140.34,68.06a2.59,2.59,0,0,0-1.94.3,2.57,2.57,0,0,0,0,4.4,2.38,2.38,0,0,0,.68.28c4.6,1.11,11.12,0,17-2.85l.08,0c1.85-.9,6.75-3.29,7.73-2.73l.09.12c.32,1.21-2.05,4.34-6.65,6.67-3.46,1.75-9.26,3.58-17.29,2.31a2.56,2.56,0,0,0-1.68,4.74Zm-.64-2.52A1.94,1.94,0,0,1,140,77.13c8.18,1.29,14.12-.58,17.66-2.37,3.8-1.93,7.5-5.35,7-7.38a.81.81,0,0,0-.38-.49c-1.16-.67-4.74,1-8.31,2.71l-.08,0c-5.76,2.81-12.11,3.88-16.58,2.8a2.18,2.18,0,0,1-.52-.21,2,2,0,0,1-.92-2.14,2,2,0,0,1,.88-1.2,1.94,1.94,0,0,1,1.47-.23c4.07,1,9.94-.56,14-2.52,6.34-3.09,11.09-4.84,13.68-3.34a3.94,3.94,0,0,1,.53.38c.86.75,1.7,2.22.81,5-1.2,3.78-4.84,7.53-9.75,10a32.48,32.48,0,0,1-20,2.74,1.92,1.92,0,0,1-.67-.24A2,2,0,0,1,137.77,78.74Z" class="cls-9"/><path d="M159.82,70.65a.31.31,0,0,0-.4-.48c-.08.07-8,6.49-21.11,4.11a.31.31,0,0,0-.21.57l.1,0C151.62,77.31,159.74,70.71,159.82,70.65Z" class="cls-9"/><path d="M192.77,79.33c-.74-8.91-3.82-14-10.28-17.15-2.31-1.11-4.19-1.28-5.58-.49-2.16,1.21-2.7,4.46-2.92,6.79-.3,3.18-1.55,4.75-3.14,6.73-.3.38-.62.78-.94,1.21-2,2.58-7.88,6.22-12,7.87-5.5,2.23-14.39,2.67-17.72,2.4a.32.32,0,0,0-.33.29.31.31,0,0,0,.15.29l.13,0c3.49.27,12.34-.16,18-2.45,4.15-1.68,10.19-5.41,12.22-8.07.32-.42.63-.81.93-1.19,1.59-2,3-3.7,3.27-7.06.21-2.2.7-5.24,2.61-6.32,1.2-.68,2.89-.51,5,.51,6.32,3.05,9.2,7.87,9.94,16.65.71,8.51,2.27,13.28,10.09,20.77a.3.3,0,0,0,.43,0,.29.29,0,0,0,0-.43C195,92.35,193.47,87.67,192.77,79.33Z" class="cls-9"/><path d="M195.09,78.32c-.69-8.19-2.42-13.71-9.28-17.69l-.13-.08-.3-.17c-2.6-1.51-7.49-3.67-11.08-1.17-1.77,1.22-2,3.68-2.13,6.05a18.42,18.42,0,0,1-.36,3c-.67,2.74-1.84,4.37-3.7,6.81s-6.32,5.33-11.12,7.21c-5.93,2.3-13.44,2.44-16.58,2.19a2.56,2.56,0,0,0-2.75,2.35A2.53,2.53,0,0,0,140,89.55c3.82.31,12.67.31,18.8-1.87,5.71-2,11.24-7.11,13.37-9.51,4.69-5.29,5-8.88,5.2-11a3.64,3.64,0,0,1,.5-2c1-1.14,2.45-1.1,4.54.11.35.2.65.4.89.56l.37.23c4.2,2.44,5.43,7.35,6,14,.81,9.56,3.18,14.24,11,21.78a2.47,2.47,0,0,0,.49.36,2.56,2.56,0,0,0,3-4.06C197.27,91.4,195.78,86.59,195.09,78.32Zm8.78,23a1.94,1.94,0,0,1-2.38.33,1.69,1.69,0,0,1-.38-.28c-7.72-7.41-10.06-12-10.84-21.39-.57-6.8-1.86-11.87-6.29-14.44l-.34-.21c-.23-.16-.56-.37-.92-.58-2.35-1.37-4.14-1.36-5.32,0a4.13,4.13,0,0,0-.64,2.36c-.2,2.2-.49,5.53-5,10.67-2.44,2.75-7.94,7.5-13.13,9.34-6,2.15-14.76,2.14-18.54,1.84a1.84,1.84,0,0,1-.82-.26,1.95,1.95,0,0,1,1.13-3.62c3.19.26,10.81.12,16.85-2.23,4.9-1.91,9.48-4.89,11.39-7.41a17.82,17.82,0,0,0,3.8-7,19.78,19.78,0,0,0,.39-3.08c.16-2.23.33-4.54,1.86-5.6,3.31-2.3,7.95-.23,10.43,1.2l.28.17.15.09c6.65,3.86,8.28,9,9,17.21.7,8.42,2.22,13.33,9.33,20.15a2,2,0,0,1,.6,1.36A2,2,0,0,1,203.87,101.28Z" class="cls-9"/><path d="M180,94.72c.37-4.27-.35-9.88-3.56-11.74l-.11-.06c-2.28-1.24-5.3-.42-9,2.43-2.87,2.22-8.84,6.85-22.93,6.37-.57,0-1.07,0-1.49,0a.3.3,0,0,0-.31.3.29.29,0,0,0,.16.27l.15,0c.41,0,.9,0,1.47,0,4.64.16,14.31.49,23.32-6.5,3.47-2.68,6.26-3.48,8.31-2.37l.09.05c3,1.72,3.61,7.07,3.26,11.15-.83,9.57,2.25,16.89,5.66,19.9a.31.31,0,0,0,.41-.46C182.17,111.19,179.2,104.07,180,94.72Z" class="cls-9"/><path d="M177.23,95.71a36,36,0,0,0,.14-5.89c-.22-2.22-1-3.62-2.21-4.16-2.27-1-5.39,1.27-6.3,2a35.64,35.64,0,0,1-10.05,4.87c-4.25,1.47-10.55,2-14.65,2.08a.31.31,0,0,0-.31.31.33.33,0,0,0,.16.26l.16,0c4.14,0,10.52-.63,14.84-2.12,4.6-1.59,8.05-3.26,10.23-5,1.73-1.35,4.12-2.56,5.68-1.89,1,.44,1.65,1.67,1.84,3.65a34.77,34.77,0,0,1-.15,5.78c-.43,5.64-1,12.66,4.82,18.84a.31.31,0,1,0,.45-.42C176.27,108.1,176.78,101.51,177.23,95.71Z" class="cls-9"/><path d="M178.52,114.19c-2.39-3.56-6-8.94-4.08-18.23.8-3.89,1.2-6.31-.67-7.11-1.25-.54-3.2.79-5.45,2.33-.88.6-1.79,1.22-2.7,1.76a33,33,0,0,1-17,4.32c-.8,0-1.44,0-1.91.09a.3.3,0,0,0-.26.34.31.31,0,0,0,.15.23.38.38,0,0,0,.19,0c.44-.06,1.06-.07,1.85-.09a33.48,33.48,0,0,0,17.31-4.41c.93-.54,1.85-1.17,2.74-1.78,2-1.37,3.92-2.67,4.86-2.27s1.34,1.44.3,6.42c-2,9.55,1.73,15.06,4.18,18.7l.52.79a.32.32,0,0,0,.43.09.32.32,0,0,0,.09-.43Z" class="cls-9"/><path d="M168.09,60.57l.4.21c.2.09.43.21.66.34a2.52,2.52,0,0,1,.83.69,1.06,1.06,0,0,0,.35.35.62.62,0,0,0,.53.05c.48-.19.75-1,1.08-2.06l.16-.51a.71.71,0,0,0-.31-.9c-.85-.49-3,.12-3.73.73a.67.67,0,0,0-.27.81A.61.61,0,0,0,168.09,60.57Zm.92-1a3.86,3.86,0,0,1,2.47-.34c.05,0,.08,0,0,.17l-.17.53c-.14.47-.48,1.58-.7,1.67,0,0-.05,0-.16-.18a3.13,3.13,0,0,0-1-.87c-.24-.15-.49-.27-.69-.37l-.39-.19A1.62,1.62,0,0,1,169,59.61Z" class="cls-9"/><path d="M172,96c.25-1.08.13-1.78-.35-2.12-1.1-.78-3.6.7-7.28,3.06l-.51.32c-3.79,2.42-9.92,2.69-13.21,2.83l-.78,0a.3.3,0,0,0-.14.57l.17,0,.77,0c3.36-.14,9.6-.42,13.52-2.92l.51-.33c2.39-1.53,5.66-3.62,6.56-3.09l0,0c.25.18.29.7.11,1.48-1.1,4.75-2.05,11.77,2.39,17.83a.31.31,0,0,0,.5-.36C170,107.44,170.88,100.6,172,96Z" class="cls-9"/><path d="M168.19,104.43c.72-3.44.7-5.14-.09-5.67s-1.67.07-2.46.59c-3.53,2.31-8.35,2.92-12.6,3.21a.31.31,0,0,0-.28.33.3.3,0,0,0,.33.28c4.33-.29,9.24-.91,12.88-3.31,1.12-.73,1.59-.73,1.78-.6.36.25.62,1.32-.16,5a10.52,10.52,0,0,0,2.82,9.21l.06,0a.3.3,0,0,0,.37,0,.31.31,0,0,0,0-.44S167.14,109.42,168.19,104.43Z" class="cls-9"/><path d="M165.44,105.35c0-.27.05-.52.07-.75a1.18,1.18,0,0,0-.44-1.11c-.54-.38-1.52-.26-3,.38a15.28,15.28,0,0,1-4.53.78c-.41,0-.81,0-1.18.09a.3.3,0,0,0-.27.34.3.3,0,0,0,.33.27l1.16-.09a15.57,15.57,0,0,0,4.73-.83c1.68-.72,2.23-.54,2.39-.43s.2.14.17.56c0,.22,0,.46-.06.72a10.16,10.16,0,0,0,.67,5.56l.13.14a.29.29,0,0,0,.27,0,.3.3,0,0,0,.16-.4A9.61,9.61,0,0,1,165.44,105.35Z" class="cls-9"/><path d="M162.63,106.6a7.16,7.16,0,0,1-3,1,.3.3,0,0,0-.29.32.33.33,0,0,0,.15.25l.17,0a7.58,7.58,0,0,0,3.32-1.06.31.31,0,0,0,.09-.42A.3.3,0,0,0,162.63,106.6Z" class="cls-9"/><path d="M196.91,100.91c-2.18-2-4.9-4.46-6.58-7.76A22.24,22.24,0,0,1,188.26,86c-.23-1.48-.39-2.55-1-3.05a2.42,2.42,0,0,0-2.51-.34c-1.12.48-2.51,2-2.76,6.31-.42,7.51-.3,18.18,5.64,24.13l.06,0a.31.31,0,0,0,.37-.48c-1.59-1.6-6.42-6.44-5.45-23.66.24-4.25,1.59-5.45,2.38-5.78a1.8,1.8,0,0,1,1.87.24c.42.35.57,1.38.77,2.68a22.74,22.74,0,0,0,2.14,7.31c1.73,3.41,4.49,5.92,6.7,7.94a27.45,27.45,0,0,1,2.59,2.55.31.31,0,0,0,.48-.4A30.1,30.1,0,0,0,196.91,100.91Z" class="cls-9"/><polygon points="176.91 81.08 176.86 81.03 176.85 81.04 176.91 81.08" class="cls-9"/><path d="M183.66,80.79a10.23,10.23,0,0,1,2-.6,1.85,1.85,0,0,0,1.4-.76c1.17-1.55.2-6.89-1.68-9.23a10.63,10.63,0,0,0-2.79-2.48,2.61,2.61,0,0,0-2.58-.36c-.73.4-1.12,1.36-1.18,2.85a10.94,10.94,0,0,1-2.05,5.17c-.89,1.44-1.6,2.74-1.31,3.92.17.66.82,1.16,1.54,1.81l0,0c2.62,1.52,4.15.73,6.27-.13Zm-6.32-.39h0c-.64-.59-1.17-.85-1.3-1.36-.23-.92.48-2.07,1.3-3.39a11.21,11.21,0,0,0,2.12-5.44c.05-1.24.34-2,.85-2.32a2.2,2.2,0,0,1,2,.36,10.22,10.22,0,0,1,2.61,2.34,11,11,0,0,1,1.88,4.67c.31,1.74.23,3.24-.21,3.81-.3.39-.48.43-1,.54a10.64,10.64,0,0,0-2.14.62l-.32.09C181,81.13,179.56,81.69,177.34,80.4Z" class="cls-9"/><path d="M185.1,77.33c.8-1,.38-3.71-.84-5.23l0,0a9.48,9.48,0,0,0-2-2.07.94.94,0,0,0-1-.08c-.4.22-.61.8-.65,1.82a7.54,7.54,0,0,1-1.47,3.51c-.7,1.12-1.31,2.08-1.09,3a1.93,1.93,0,0,0,1,1.19h0C180.81,80.45,184.63,78,185.1,77.33Zm-.49-.4c-.38.5-3.86,2.7-5.28,1.88a1.29,1.29,0,0,1-.67-.76c-.15-.65.41-1.55,1-2.51a8.05,8.05,0,0,0,1.57-3.8c0-1.06.26-1.27.32-1.3s.26,0,.36.08a9.74,9.74,0,0,1,1.83,1.92l0,0C185,74,185.14,76.24,184.61,76.93Z" class="cls-9"/><path d="M182.76,73.66c-.17-.09-.44-.13-.8.25a4.74,4.74,0,0,0-.56.78c-.26.46-1.07,2-.43,2.33s2.18-.54,2.35-.76c.36-.46,0-1.9-.43-2.48Zm.08,2.23a2.58,2.58,0,0,1-1.5.62,5,5,0,0,1,1.14-2.25A2.85,2.85,0,0,1,182.84,75.89Z" class="cls-9"/><path d="M171.63,81.07a5,5,0,0,0,2.91-.08.41.41,0,0,0,.17-.39,2.13,2.13,0,0,0-.89-1.49,1.23,1.23,0,0,0-.52-.17h-.11l-.07,0c-1.21.76-1.8,1.32-1.8,1.7a.41.41,0,0,0,.24.33Zm1.71-1.5.16.07a1.52,1.52,0,0,1,.58.92,6.11,6.11,0,0,1-2.06,0A8.57,8.57,0,0,1,173.34,79.57Z" class="cls-9"/><path d="M180.29,83.08a.89.89,0,0,0-.7,1.19,4.34,4.34,0,0,0,.66,1.37.65.65,0,0,0,.77.29c.8-.32.88-2.83.09-2.82A1.78,1.78,0,0,0,180.29,83.08ZM181,84.3a2.35,2.35,0,0,1-.21,1,2.91,2.91,0,0,1-.42-.8,1.45,1.45,0,0,1-.17-.57c0-.18.36-.19.49-.22l.21,0,0,0,0,.09A1.62,1.62,0,0,1,181,84.3Z" class="cls-9"/><path d="M192.56,100.48c-2.8-3.32-4.62-6.23-5.15-8.19-1.12-4.19-1.94-4.07-2.21-4s-1.18.18-.93,5.64c.29,6.12,1.42,13.9,7.75,19.8l0,0a.31.31,0,0,0,.37-.49c-3.24-3-7-8-7.55-19.38-.22-4.62.4-5,.39-5,.16,0,.78.75,1.54,3.57,1.26,4.73,9,12.83,11.33,14.58a.31.31,0,0,0,.37-.5A44.75,44.75,0,0,1,192.56,100.48Z" class="cls-9"/><path d="M188.87,100c-.15-.29-.29-.53-.54-.51a.32.32,0,0,0-.3.21c-.27.65,1.8,6.77,5.69,11l.07.06a.32.32,0,0,0,.36,0,.32.32,0,0,0,0-.44,26.68,26.68,0,0,1-5.14-8.78,30.77,30.77,0,0,0,6.82,7.29.3.3,0,0,0,.43,0,.31.31,0,0,0-.05-.43C191.64,104.65,189.64,101.55,188.87,100Z" class="cls-9"/></g></g><path d="M403.77,340.35s4.28-36.53,56.53-38.41,57.7,18.7,93.41-16.45c0,0,8.8,37.78-44.53,48.73-18,3.69-.46,43.19-31.22,47.37-23.77,3.23-49.45-1.2-73.54-11.12-7.56-3.11-1.05-19.3-1.05-19.3S408.09,344.29,403.77,340.35Z" class="cls-27"/><path d="M499.78,327.79c-43.13-3.59-52.06-24.61-79.21-13.73,8.41-6.31,21-11.44,39.73-12.12,52.25-1.88,57.7,18.7,93.41-16.45C553.71,285.49,554.63,332.36,499.78,327.79Z" class="cls-28"/><path d="M342.09,206.09c-5.47-3.81-20.5-93.7,2.73-94.11,18.09-.31,35,17.63,43.49,32.36C388.31,144.34,339.46,142.73,342.09,206.09Z" class="cls-27"/><path d="M338.65,207.11c-5.47-3.81-7.81,8.59-10.28,11-5.62-15.56.35-30.18.35-30.18-4.88,2.21-6.31,7.88-9.61,12.82.88-6.67-9.67-29.46,11.62-36.37-5.62-1.76-18-12.52-13.27-30.38,2.25-8.51,13.45-29.74,35.89-19.34,12.54,5.82,23,15.92,31.51,30.65C384.86,145.36,336,143.75,338.65,207.11Z" class="cls-29"/><path d="M400.87,230.67s-16.21,24.86,9.77,57.22c12.31,15.34,23.61,20.83,32.08,22.35s14.75-7.64,10.78-15.34c-3.9-7.54-11.11-17.11-24.46-25.89C401.39,250.82,400.87,230.67,400.87,230.67Z" class="cls-28"/><path d="M426.62,303.24q-5.7-9.9-10.39-20.26c-4.75-10.54-10.09-24.38-10.11-37.09C410.06,252.74,417,261.06,429,269c13.35,8.78,20.56,18.35,24.46,25.89,4,7.7-2.38,16.86-10.78,15.34A41.31,41.31,0,0,1,426.62,303.24Z" class="cls-29"/><path d="M424.94,170.86c-13.37-25.13-44.57-34.73-69-20.83-12,6.81-23.77,19.8-30.78,43.92C306.48,258.1,362.5,354,417.87,363.36c0,0,11.92-.21-2.87-13.93s-39.47-42.25-18.06-75C413.63,249,443.23,205.25,424.94,170.86Z" class="cls-30"/><path fill="#e87a05" d="M331.51,236c27.19,12.24,65.25,26.56,96.26-21-6.19,22.45-20.83,44.28-30.83,59.55-21.41,32.71,3.28,61.24,18.06,75s2.87,13.93,2.87,13.93c-13.47-2.28-26.89-9.52-39.25-20.1C354.5,312.58,334.07,274,331.51,236Z"/><path d="M338.09,204.75a4,4,0,0,1-1.3,1.09,3.94,3.94,0,0,1-3.08.27,4,4,0,0,1-2.37-2,4.18,4.18,0,0,1-.28-3.14l.94-3a1.24,1.24,0,0,1,1.56-.83,1.28,1.28,0,0,1,.82,1.59l-.94,3a1.55,1.55,0,1,0,3,.94l.93-3a1.24,1.24,0,0,1,1.56-.82,1.28,1.28,0,0,1,.82,1.59l-.94,3A4.14,4.14,0,0,1,338.09,204.75Z" class="cls-32"/><path d="M333.87,227.29a4,4,0,0,1-.49.52,3.94,3.94,0,0,1-2.92,1,4,4,0,0,1-2.79-1.37,4.19,4.19,0,0,1-1-3l.18-3.17a1.25,1.25,0,0,1,1.31-1.19,1.27,1.27,0,0,1,1.18,1.34l-.18,3.17a1.62,1.62,0,0,0,.39,1.14,1.56,1.56,0,0,0,1.07.53,1.54,1.54,0,0,0,1.12-.4,1.61,1.61,0,0,0,.52-1.09l.17-3.17a1.25,1.25,0,0,1,1.31-1.19,1.26,1.26,0,0,1,1.18,1.34l-.18,3.17A4.08,4.08,0,0,1,333.87,227.29Z" class="cls-32"/><path d="M342.31,217.13a4,4,0,0,1-.84.81,4,4,0,0,1-3,.7,4.09,4.09,0,0,1-2.62-1.68,4.14,4.14,0,0,1-.68-3.08l.52-3.13a1.25,1.25,0,0,1,1.44-1,1.27,1.27,0,0,1,1,1.46l-.53,3.13a1.54,1.54,0,0,0,.27,1.18,1.47,1.47,0,0,0,1,.64,1.5,1.5,0,0,0,1.16-.26,1.54,1.54,0,0,0,.63-1l.52-3.13a1.25,1.25,0,0,1,1.44-1,1.27,1.27,0,0,1,1,1.47l-.53,3.13A4.06,4.06,0,0,1,342.31,217.13Z" class="cls-32"/><path d="M360.28,274.15a4.09,4.09,0,0,1-1.71,1.28,3.93,3.93,0,0,1-3.1-.08,4,4,0,0,1-2.13-2.28l-1.13-3a1.27,1.27,0,0,1,.71-1.64,1.24,1.24,0,0,1,1.61.73l1.13,3a1.56,1.56,0,0,0,.82.87,1.45,1.45,0,0,0,1.19,0,1.54,1.54,0,0,0,.85-.83,1.56,1.56,0,0,0,0-1.2l-1.13-3a1.27,1.27,0,0,1,.71-1.64,1.23,1.23,0,0,1,1.61.73l1.13,3a4.21,4.21,0,0,1-.59,4Z" class="cls-32"/><path d="M356.93,286.49a4,4,0,0,1-1.24,1.06,3.92,3.92,0,0,1-3.07.34,4,4,0,0,1-2.41-2l-1.51-2.79a1.29,1.29,0,0,1,.49-1.73,1.25,1.25,0,0,1,1.7.51l1.5,2.79a1.55,1.55,0,0,0,.93.75,1.48,1.48,0,0,0,1.18-.13,1.56,1.56,0,0,0,.74-.94,1.62,1.62,0,0,0-.13-1.2l-1.51-2.79a1.28,1.28,0,0,1,.5-1.72,1.23,1.23,0,0,1,1.69.51l1.5,2.78a4.17,4.17,0,0,1,.34,3.13A4.28,4.28,0,0,1,356.93,286.49Z" class="cls-32"/><path d="M384.24,332.68a4,4,0,0,1-4.95,1.13l-2.8-1.41a1.28,1.28,0,0,1-.57-1.7,1.23,1.23,0,0,1,1.67-.58l2.8,1.42a1.57,1.57,0,0,0,2.15-1.93,1.54,1.54,0,0,0-.78-.9L379,327.3a1.29,1.29,0,0,1-.57-1.7,1.23,1.23,0,0,1,1.67-.58l2.8,1.41a4.08,4.08,0,0,1,2,2.38,4.12,4.12,0,0,1-.2,3.14A3.91,3.91,0,0,1,384.24,332.68Z" class="cls-32"/><path d="M375.51,262.81s12.86,2.83,19.95,20.78c0,0-3.46,3.91-13.63-.89,0,0,2.57,16.31-2.58,21C375.53,303.16,370.66,273.63,375.51,262.81Z" class="cls-29"/><path d="M399.4,155.14c-11.79,4-20.12,15.9-16.32,28.18s18.48,14.39,30.28,10.37,17.18-13.73,13.38-26S411.2,151.11,399.4,155.14Z" class="cls-32"/><ellipse cx="407.42" cy="174.02" class="cls-33" rx="17.88" ry="18.21" transform="translate(-8.09 20.31) rotate(-2.83)"/><path d="M389.56,173.11a27.06,27.06,0,0,0,2.89,3.71c3,3.33,7.2,7.52,11.54,8.93,7.57,2.45,15.34-.93,20.63-6.71a18.2,18.2,0,0,1-4.18,7.49,17.65,17.65,0,0,1-25.28.72A18.36,18.36,0,0,1,389.56,173.11Z" class="cls-34"/><path d="M369,173.7c1.25-6.84,12.37-25,30.4-18.56-6.37,4.58-.72,33.73,14,38.55,10.75,15.56-13.75,31.52-14.18,32.7C384.34,234,367.48,188.53,369,173.7Z" style="mix-blend-mode:multiply" fill="#e87a05" opacity=".5"/><path d="M368,174.59c1.25-6.84,12.88-30.23,31-19.49-8.91,3.81-.64,37.94,14.41,38.59,19.31,15-10.46,38-10.89,39.19C387.63,240.49,366.46,189.42,368,174.59Z" class="cls-30"/><ellipse cx="361.02" cy="181.46" class="cls-32" rx="20.93" ry="20.06" transform="translate(159.11 531.45) rotate(-86.71)"/><ellipse cx="363.66" cy="180.49" class="cls-33" rx="17.88" ry="18.21" transform="translate(-8.46 18.16) rotate(-2.83)"/><path d="M345.8,179.57a26.6,26.6,0,0,0,2.89,3.72c3,3.32,7.2,7.51,11.54,8.92,7.57,2.46,15.34-.92,20.63-6.71a18.29,18.29,0,0,1-4.18,7.5,17.65,17.65,0,0,1-25.28.72A18.4,18.4,0,0,1,345.8,179.57Z" class="cls-34"/><path d="M371.65,184c1.39.12,2.7-2,2.92-4.68s-.74-5-2.14-5.12-2.7,2-2.92,4.69S370.25,183.87,371.65,184Z" class="cls-36"/><ellipse cx="388.72" cy="166.72" class="cls-37" rx="1.6" ry="2.7" transform="translate(-33.69 145.09) rotate(-20.28)"/><ellipse cx="387.43" cy="158.55" class="cls-37" rx="1.6" ry="3.2" transform="translate(-30.97 145.07) rotate(-20.41)"/><ellipse cx="385.87" cy="169.49" class="cls-37" rx=".71" ry="1.4" transform="translate(-34.88 145.15) rotate(-20.4)"/><ellipse cx="389.89" cy="176.8" class="cls-37" rx="1.9" ry="1.94" transform="translate(-8.25 19.45) rotate(-2.83)"/><path d="M385.52,178.25a.85.85,0,0,0,.48-1.1.83.83,0,0,0-1.08-.49.85.85,0,0,0-.49,1.1A.84.84,0,0,0,385.52,178.25Z" class="cls-37"/><ellipse cx="382.89" cy="171.27" class="cls-37" rx=".84" ry="1.98" transform="translate(-35.72 144.78) rotate(-20.48)"/><path d="M400.88,199.83c1.71-2.27,3.34,9.06-2.26,10.94s-15.57-9.6-11-8.1C394.14,204.82,398.35,203.18,400.88,199.83Z" class="cls-32"/><polygon points="294.22 335.72 408.66 346.34 420.44 318.29 292.6 330.6 294.22 335.72" class="cls-38"/><polygon points="292.6 330.6 408.84 342.15 419.02 311.46 292.6 330.6" class="cls-39"/><polygon points="326.45 328.23 409.5 333.39 418.22 314.67 326.45 328.23" class="cls-40"/><polygon points="408.66 346.34 410.38 345.03 554.04 198.73 550.73 198.06 421.48 207.23 408.66 346.34" class="cls-38"/><polyline points="446.87 339.07 540.29 323.8 554.04 198.73 423.59 209.51 410.38 345.03 446.87 339.07" class="cls-39"/><ellipse cx="486.15" cy="269.34" class="cls-38" rx="15.87" ry="12.3" transform="translate(134.55 699.76) rotate(-79.74)"/><path d="M370,312.21c-1.7-8.4-6.18-19.76-17.16-32.26-22.73-25.91-17.18-45.28-17.18-45.28s-24,18.68-7.29,57.57c7.94,18.44,17.23,27.2,25.41,31.28a11.26,11.26,0,0,0,4.31,1.17c-.68-3.3-1.74-9.56-5.12-13.59,4.7,4.12,6.94,10.29,7.67,13.53a10,10,0,0,0,5.13-2c-.15-3.12-.92-9.6-4.63-12.55,4.25,2.9,5.71,8.08,6,11.33A9.37,9.37,0,0,0,370,312.21Z" class="cls-28"/><path d="M370,312.21c-1.7-8.4-6.18-19.76-17.16-32.26-9.93-11.32-14.46-21.39-16.42-29.14-3.8,12.12-2.53,27-.86,38.49a225.51,225.51,0,0,0,4.51,22.88c4.88,5.81,9.25,9.11,13.71,11.34a11.26,11.26,0,0,0,4.31,1.17c-.67-3.3-1.74-9.56-5.12-13.59,4.7,4.12,6.94,10.29,7.67,13.53a10,10,0,0,0,5.13-2c-.15-3.12-.92-9.6-4.63-12.55,4.26,2.9,5.71,8.08,6,11.33A9.39,9.39,0,0,0,370,312.21Z" class="cls-29"/><path d="M489.25,332.14s25-19.61,30.62-34.3c-1.31,25.14-9.52,30.81-9.52,30.81Z" style="mix-blend-mode:multiply" fill="#9fa0c2"/><path d="M519.12,355.47c16.68-32.91.75-57.63.75-57.63-14,42.13-39.7,52.74-72.26,64.6-23.27,8.47-39.18,10-45.41,6.31C417.07,388.65,501.68,389.86,519.12,355.47Z" class="cls-28"/><path d="M520.41,357.8c15.05-31-.54-60-.54-60-12.35,43.61-37.91,56.59-71,66.93-30.57,9.56-40.47,7.66-46.7,4C417.07,388.65,503.57,392.51,520.41,357.8Z" class="cls-29"/><path d="M417.17,176.92c1.23.11,2.39-1.74,2.58-4.14s-.65-4.41-1.89-4.52-2.39,1.75-2.58,4.14S415.93,176.82,417.17,176.92Z" class="cls-36"/><g class="cls-11"><circle cx="937.71" cy="332.13" r="66.25" class="cls-12"/><circle cx="937.71" cy="332.13" r="75.38" fill="none" stroke="#0f58ce" stroke-linecap="round" stroke-miterlimit="10" stroke-width=".94"/><circle cx="937.71" cy="332.13" r="85" fill="none" stroke="#0f58ce" stroke-dasharray="0 4.7 28.18 4.7 0 0" stroke-linecap="round" stroke-miterlimit="10" stroke-width=".94"/><path d="M975.62,315a4.34,4.34,0,0,0-3.48,3.56l-14.44,2.62.51,2.83,14.45-2.61a4.32,4.32,0,1,0,3-6.4Zm1,5.68a1.44,1.44,0,1,1,1.16-1.68A1.45,1.45,0,0,1,976.65,320.69Z" class="cls-9"/><path d="M979.73,337.7a4.33,4.33,0,0,0-3.48,3.56l-5,.9-4.73-7.93,2.47-.45a4.31,4.31,0,1,0-.52-2.83l-8.77,1.58.52,2.84,3.27-.59,5.79,9.71a1.44,1.44,0,0,0,1.5.68l5.93-1.07a4.32,4.32,0,1,0,3-6.4Zm-7.21-7.48a1.44,1.44,0,0,1,.51,2.84,1.44,1.44,0,1,1-.51-2.84Zm8.24,13.16a1.44,1.44,0,1,1,1.16-1.68A1.44,1.44,0,0,1,980.76,343.38Z" class="cls-9"/><path d="M957.19,318.35l5.67-1a1.47,1.47,0,0,0,.93-.6l4.3-6.21,2.51-.45a4.33,4.33,0,1,0-.51-2.84l-3.1.56a1.43,1.43,0,0,0-.93.6l-4.3,6.21-5.09.92Zm16.89-11.84a1.44,1.44,0,1,1-1.16,1.67A1.43,1.43,0,0,1,974.08,306.51Z" class="cls-9"/><path d="M962.61,364.51l-.56-3.1a1.42,1.42,0,0,0-.59-.93l-6.21-4.3-.92-5.09,1.42-.26,5.8-8.37-5.13-28.36L948,308.29,941,309.58l-.59-3.27,9.72-5.8a1.47,1.47,0,0,0,.68-1.5l-1.08-5.93a4.32,4.32,0,1,0-2.84.51l.9,5-7.93,4.74-.45-2.47a4.32,4.32,0,1,0-2.83.51l1.59,8.77-8.51,1.54L927,297.19a4.32,4.32,0,1,0-2.83.51l2.61,14.44-2.84.52-1-5.67a1.47,1.47,0,0,0-.6-.93l-6.21-4.31-.45-2.51a4.32,4.32,0,1,0-2.84.52l.56,3.09a1.43,1.43,0,0,0,.6.93l6.21,4.31.92,5.08-1.42.26-5.81,8.37L919,350.16l8.37,5.81,7.09-1.28.6,3.27-9.72,5.79a1.44,1.44,0,0,0-.68,1.5l1.08,5.93a4.32,4.32,0,1,0,2.83-.51l-.9-4.95,7.94-4.73.44,2.47a4.32,4.32,0,1,0,2.84-.52l-1.59-8.77,8.51-1.54,2.61,14.44a4.33,4.33,0,1,0,2.84-.51l-2.62-14.44,2.84-.52,1,5.68a1.41,1.41,0,0,0,.6.92l6.2,4.31.46,2.51a4.33,4.33,0,1,0,2.83-.51Zm-15.33-76.58a1.44,1.44,0,1,1-1.16,1.67A1.44,1.44,0,0,1,947.28,287.93ZM937,295.65a1.44,1.44,0,0,1,.51,2.84,1.44,1.44,0,1,1-.51-2.84ZM924.59,292a1.44,1.44,0,1,1-1.16,1.68A1.44,1.44,0,0,1,924.59,292Zm-11.34,2.06a1.44,1.44,0,0,1,1.67,1.16,1.44,1.44,0,0,1-2.83.51A1.44,1.44,0,0,1,913.25,294.09Zm14.89,82.25a1.44,1.44,0,1,1,1.16-1.68A1.44,1.44,0,0,1,928.14,376.34Zm10.32-7.73a1.44,1.44,0,1,1,1.16-1.68A1.44,1.44,0,0,1,938.46,368.61Zm12.37,3.62a1.44,1.44,0,1,1,1.16-1.68A1.44,1.44,0,0,1,950.83,372.23Zm-21.64-22.45-5-3.48-4.11-22.69,3.48-5,22.69-4.11,5,3.48,4.11,22.69-3.49,5Zm33,20.39a1.44,1.44,0,1,1,1.16-1.67A1.44,1.44,0,0,1,962.18,370.17Z" class="cls-9"/><path d="M899.8,349.25a4.33,4.33,0,0,0,3.48-3.56l14.45-2.62-.52-2.83-14.44,2.61a4.32,4.32,0,1,0-3,6.4Zm-1-5.67a1.43,1.43,0,0,1,1.67,1.16,1.44,1.44,0,1,1-1.67-1.16Z" class="cls-9"/><path d="M895.7,326.56a4.34,4.34,0,0,0,3.48-3.56l5-.9,4.73,7.93-2.47.45a4.33,4.33,0,1,0,.51,2.84l8.77-1.59-.51-2.84-3.27.59-5.8-9.71a1.43,1.43,0,0,0-1.49-.68l-5.94,1.07a4.32,4.32,0,1,0-3,6.4Zm7.21,7.48a1.44,1.44,0,1,1-.51-2.84,1.44,1.44,0,0,1,.51,2.84Zm-8.24-13.15a1.44,1.44,0,1,1-1.16,1.67A1.43,1.43,0,0,1,894.67,320.89Z" class="cls-9"/><path d="M918.24,345.91l-5.67,1a1.42,1.42,0,0,0-.93.59l-4.3,6.21-2.52.46a4.31,4.31,0,1,0,.52,2.83l3.1-.56a1.41,1.41,0,0,0,.92-.6l4.31-6.2,5.08-.92Zm-16.89,11.85a1.44,1.44,0,1,1,1.16-1.68A1.44,1.44,0,0,1,901.35,357.76Z" class="cls-9"/></g><g class="cls-11"><circle cx="1096.04" cy="59.48" r="63.25" class="cls-40"/><circle cx="1096.04" cy="59.48" r="73.3" fill="none" stroke="#0f58ce" stroke-linecap="round" stroke-miterlimit="10" stroke-width=".79"/><circle cx="1096.04" cy="59.48" r="84.98" fill="none" stroke="#0f58ce" stroke-dasharray="0 3.97 23.8 3.97 0 0" stroke-linecap="round" stroke-miterlimit="10" stroke-width=".79"/><polygon points="1125.78 23.13 1136.62 33.35 1130.01 40.36 1127.39 37.89 1129.83 35.31 1125.77 31.48 1116.85 40.95 1120.9 44.77 1123.34 42.19 1125.96 44.66 1119.35 51.67 1108.51 41.45 1125.78 23.13" class="cls-15"/><rect width="25.18" height="1.47" x="1105.08" y="32.06" class="cls-10" transform="translate(327.8 824.23) rotate(-46.74)"/><path d="M1127.94,16.77a3.21,3.21,0,0,1,.13,4.53l-48.61,53.49-2.38,2.51a3.2,3.2,0,0,1-5.46-1.52,3.81,3.81,0,0,1-.07-.59,3.23,3.23,0,0,1,.87-2.29l2.37-2.5,48.62-53.5A3.2,3.2,0,0,1,1127.94,16.77Z" class="cls-15"/><path d="M1086.79,62.3c2,1.84,2.55,4.38,1.33,5.68s-3.79.84-5.74-1-2.55-4.38-1.33-5.68S1084.84,60.46,1086.79,62.3Z" class="cls-15"/><path d="M1084.32,62.17c1,.9,1.26,2.16.66,2.8s-1.87.41-2.83-.49-1.26-2.17-.66-2.8S1083.36,61.26,1084.32,62.17Z" class="cls-15"/><path d="M1073.87,71.36l-.2-.12a20.55,20.55,0,0,0-3.89-2.12,19.54,19.54,0,0,0-5.1-1.34c-.54-.06-1.08-.1-1.61-.11s-.77,0-1.15,0-.75,0-1.13.09a15.3,15.3,0,0,0-3.43.81,14.22,14.22,0,0,0-2.33,1.11l-.33.21a12.67,12.67,0,0,0-2.44,2l-.21.23c-5.62,6.24-4.27,16.82,3.1,23.78a22.5,22.5,0,0,0,3.07,2.42l.39.25a21.11,21.11,0,0,0,2.23,1.22c.47.22,1,.43,1.43.61a18.67,18.67,0,0,0,2.24.7c.38.1.76.19,1.16.26a17,17,0,0,0,5.78.1c.51-.09,1-.19,1.5-.32l.37-.1a13.85,13.85,0,0,0,3.5-1.59,13.27,13.27,0,0,0,2.47-2c5.1-5.41,4.79-14.25-.3-21.09a22.93,22.93,0,0,0-2.59-2.93A24.25,24.25,0,0,0,1073.87,71.36Zm-.16,8.32c3,4.11,3.24,9.41.18,12.65a7.86,7.86,0,0,1-1.49,1.23,7.37,7.37,0,0,1-1.18.62,7.18,7.18,0,0,1-.92.33l-.54.14a9.85,9.85,0,0,1-4,0q-.35-.06-.69-.15a11.41,11.41,0,0,1-2.21-.78,13.68,13.68,0,0,1-1.57-.89,12.28,12.28,0,0,1-1-.75c-.28-.22-.54-.45-.81-.7-4-3.81-5.07-9.43-2.65-13.23a8,8,0,0,1,.92-1.18,7.87,7.87,0,0,1,1.66-1.34,8.54,8.54,0,0,1,1.4-.66,8.89,8.89,0,0,1,2-.49l.68,0a9.41,9.41,0,0,1,1.3,0,10.48,10.48,0,0,1,1.65.26,12.12,12.12,0,0,1,1.77.57,12.41,12.41,0,0,1,2.34,1.27l.11.08a12.5,12.5,0,0,1,1.52,1.24A12.85,12.85,0,0,1,1073.71,79.68Z" class="cls-15"/><path d="M1069.73,75.84l-.12-.08a12.41,12.41,0,0,0-2.34-1.27,11.09,11.09,0,0,0-4.71-.86l-.68.05a9,9,0,0,0-2.06.48,9.45,9.45,0,0,0-1.4.67,8.13,8.13,0,0,0-1.66,1.34c-3.52,3.73-2.74,10.18,1.74,14.41l.47.42c-4.09-4.23-4.71-10.37-1.3-14a7.87,7.87,0,0,1,1.66-1.34,8.45,8.45,0,0,1,3.46-1.15l.67,0a11.17,11.17,0,0,1,4.72.86,12.73,12.73,0,0,1,2.34,1.27l.11.08a11.35,11.35,0,0,1,1.1.87c-.15-.16-.32-.33-.48-.48A14.47,14.47,0,0,0,1069.73,75.84Z" class="cls-10"/><path d="M1078.09,75.5c5.08,6.84,5.4,15.68.3,21.09a13,13,0,0,1-2.48,2,13.78,13.78,0,0,1-3.49,1.59,16.56,16.56,0,0,1-7.66.31c-.39-.07-.77-.15-1.16-.24a20.59,20.59,0,0,1-6.28-2.79,22.23,22.23,0,0,1-2.6-2l.43.43a22.5,22.5,0,0,0,3.07,2.42,20.82,20.82,0,0,0,6.29,2.79c.38.09.77.18,1.16.25a16.65,16.65,0,0,0,7.65-.32,14,14,0,0,0,3.5-1.59,13.27,13.27,0,0,0,2.47-2c5.1-5.41,4.79-14.25-.3-21.09a21.49,21.49,0,0,0-2.59-2.92c-.17-.17-.35-.32-.52-.48A22.93,22.93,0,0,1,1078.09,75.5Z" class="cls-10"/><path d="M1127.53,17.21,1073,77a.61.61,0,0,1-.85,0h0a.61.61,0,0,1,0-.85l54.56-59.79a.6.6,0,0,1,.85,0h0A.61.61,0,0,1,1127.53,17.21Z" class="cls-9"/></g><circle cx="596.96" cy="46.93" r="7.72" class="cls-12"/><circle cx="36.27" cy="128.36" r="7.72" class="cls-12"/><circle cx="971" cy="34.81" r="7.72" class="cls-12"/><circle cx="790.3" cy="349.1" r="7.72" class="cls-12"/><circle cx="1540.48" cy="111.98" r="7.72" class="cls-12"/><circle cx="1259.82" cy="2.01" r="7.72" class="cls-12"/><circle cx="1724.24" cy="19.52" r="7.72" class="cls-12"/><circle cx="1883.6" cy="262.85" r="7.72" class="cls-12"/><circle cx="1669.05" cy="321.14" r="7.72" class="cls-12"/><circle cx="1359.73" cy="202.16" r="7.72" class="cls-12"/><g class="cls-11"><circle cx="1801.52" cy="94.91" r="66.25" class="cls-40"/><circle cx="1801.52" cy="94.91" r="75.38" fill="none" stroke="#0f58ce" stroke-linecap="round" stroke-miterlimit="10" stroke-width=".94"/><circle cx="1801.52" cy="94.91" r="85" fill="none" stroke="#0f58ce" stroke-dasharray="0 4.7 28.18 4.7 0 0" stroke-linecap="round" stroke-miterlimit="10" stroke-width=".94"/><path d="M1801.18,38.61,1751.31,125h99.74Zm4.49,72.71h-9v-9h9Zm-9-16.37V72.14h9V95Z" class="cls-9"/></g></g></g></g></svg>